G04 Layer: TopSilkscreenLayer*
G04 EasyEDA Pro v1.9.29.eba1c1, 2023-07-30 16:19:25*
G04 Gerber Generator version 0.3*
G04 Scale: 100 percent, Rotated: No, Reflected: No*
G04 Dimensions in millimeters*
G04 Leading zeros omitted, absolute positions, 3 integers and 3 decimals*
%FSLAX33Y33*%
%MOMM*%
%ADD10C,0.254*%
G75*


G04 Image Start*
G36*
G01X-10057Y18922D02*
G01X-10057Y18922D01*
G01X-10431Y18841D01*
G01X-10827Y18734D01*
G01X-11245Y18597D01*
G01X-11686Y18427D01*
G01X-12148Y18222D01*
G01X-12651Y17967D01*
G01X-13173Y17668D01*
G01X-13734Y17307D01*
G01X-14310Y16894D01*
G01X-14919Y16408D01*
G01X-15537Y15861D01*
G01X-16180Y15232D01*
G01X-16823Y14536D01*
G01X-17462Y13771D01*
G01X-18091Y12936D01*
G01X-18702Y12031D01*
G01X-19276Y11082D01*
G01X-19779Y10147D01*
G01X-20116Y9481D01*
G01X-20170Y9356D01*
G01X-20196Y9287D01*
G01X-20214Y9230D01*
G01X-20224Y9191D01*
G01X-20231Y9154D01*
G01X-20235Y9126D01*
G01X-20237Y9099D01*
G01Y9072D01*
G01Y9053D01*
G01X-20235Y9034D01*
G01X-20232Y9015D01*
G01X-20228Y8997D01*
G01X-20224Y8979D01*
G01X-20218Y8962D01*
G01X-20211Y8945D01*
G01X-20203Y8928D01*
G01X-20193Y8911D01*
G01X-20183Y8895D01*
G01X-20172Y8879D01*
G01X-20155Y8857D01*
G01X-20136Y8837D01*
G01X-20115Y8816D01*
G01X-20085Y8790D01*
G01X-20052Y8765D01*
G01X-20008Y8734D01*
G01X-19942Y8693D01*
G01X-19845Y8641D01*
G01X-19659Y8552D01*
G01X-18578Y8111D01*
G01X-17935Y7832D01*
G01X-17310Y7521D01*
G01X-16702Y7181D01*
G01X-16114Y6810D01*
G01X-15546Y6412D01*
G01X-14999Y5985D01*
G01X-14459Y5518D01*
G01X-13944Y5023D01*
G01X-13454Y4502D01*
G01X-12990Y3956D01*
G01X-12553Y3384D01*
G01X-12145Y2789D01*
G01X-11765Y2171D01*
G01X-11417Y1531D01*
G01X-11289Y1277D01*
G01X-10530Y-279D01*
G01X-9913Y96D01*
G01X-9767Y191D01*
G01X-9622Y296D01*
G01X-9467Y423D01*
G01X-9314Y561D01*
G01X-9150Y726D01*
G01X-8977Y919D01*
G01X-8794Y1145D01*
G01X-8590Y1425D01*
G01X-8367Y1770D01*
G01X-8125Y2189D01*
G01X-7854Y2717D01*
G01X-7535Y3428D01*
G01X-7160Y4394D01*
G01X-6919Y5094D01*
G01X-6508Y6239D01*
G01X-6008Y7439D01*
G01X-5428Y8654D01*
G01X-4797Y9824D01*
G01X-4151Y10890D01*
G01X-3526Y11812D01*
G01X-2951Y12575D01*
G01X-2432Y13194D01*
G01X-1977Y13685D01*
G01X-1587Y14064D01*
G01X-1239Y14370D01*
G01X-1059Y14515D01*
G01X-370Y15059D01*
G01X-261Y15156D01*
G01X-203Y15213D01*
G01X-166Y15255D01*
G01X-142Y15284D01*
G01X-122Y15312D01*
G01X-108Y15334D01*
G01X-96Y15355D01*
G01X-88Y15371D01*
G01X-82Y15387D01*
G01X-76Y15402D01*
G01X-72Y15418D01*
G01X-68Y15433D01*
G01X-66Y15449D01*
G01X-65Y15464D01*
G01Y15479D01*
G01X-66Y15494D01*
G01X-68Y15509D01*
G01X-71Y15525D01*
G01X-76Y15540D01*
G01X-81Y15555D01*
G01X-88Y15571D01*
G01X-95Y15586D01*
G01X-107Y15607D01*
G01X-121Y15628D01*
G01X-141Y15655D01*
G01X-165Y15683D01*
G01X-197Y15717D01*
G01X-246Y15765D01*
G01X-327Y15835D01*
G01X-523Y15987D01*
G01X-1077Y16389D01*
G01X-1728Y16839D01*
G01X-2391Y17249D01*
G01X-3065Y17619D01*
G01X-3728Y17941D01*
G01X-4377Y18217D01*
G01X-5010Y18449D01*
G01X-5626Y18639D01*
G01X-6221Y18791D01*
G01X-6794Y18906D01*
G01X-7327Y18986D01*
G01X-7837Y19036D01*
G01X-8323Y19059D01*
G01X-8785Y19057D01*
G01X-9223Y19034D01*
G01X-9636Y18990D01*
G01X-10025Y18928D01*
G01X-10057Y18922D01*
G37*
G36*
G01X21126Y-3298D02*
G01X21126Y-3298D01*
G01X20816Y-3762D01*
G01X20474Y-4222D01*
G01X20100Y-4676D01*
G01X19691Y-5123D01*
G01X19248Y-5560D01*
G01X18769Y-5987D01*
G01X18253Y-6401D01*
G01X17701Y-6800D01*
G01X17112Y-7182D01*
G01X16471Y-7553D01*
G01X15792Y-7901D01*
G01X15073Y-8225D01*
G01X14301Y-8528D01*
G01X13489Y-8799D01*
G01X12637Y-9036D01*
G01X11746Y-9237D01*
G01X10817Y-9398D01*
G01X9850Y-9516D01*
G01X8846Y-9588D01*
G01X7892Y-9610D01*
G01X6112D01*
G01X5484Y-10524D01*
G01X5112Y-11097D01*
G01X4769Y-11690D01*
G01X4446Y-12318D01*
G01X4146Y-12982D01*
G01X3881Y-13659D01*
G01X3652Y-14347D01*
G01X3457Y-15044D01*
G01X3299Y-15746D01*
G01X3178Y-16451D01*
G01X3096Y-17136D01*
G01X3050Y-17797D01*
G01X3039Y-18434D01*
G01X3059Y-19045D01*
G01X3107Y-19628D01*
G01X3181Y-20183D01*
G01X3279Y-20708D01*
G01X3283Y-20728D01*
G01X3387Y-21190D01*
G01X3419Y-21301D01*
G01X3442Y-21367D01*
G01X3464Y-21419D01*
G01X3480Y-21453D01*
G01X3497Y-21485D01*
G01X3512Y-21509D01*
G01X3528Y-21531D01*
G01X3544Y-21552D01*
G01X3561Y-21572D01*
G01X3575Y-21585D01*
G01X3589Y-21598D01*
G01X3604Y-21610D01*
G01X3619Y-21621D01*
G01X3635Y-21631D01*
G01X3652Y-21640D01*
G01X3670Y-21649D01*
G01X3688Y-21657D01*
G01X3713Y-21666D01*
G01X3740Y-21674D01*
G01X3768Y-21681D01*
G01X3798Y-21686D01*
G01X3837Y-21690D01*
G01X3879Y-21693D01*
G01X3933D01*
G01X4002Y-21689D01*
G01X4098Y-21679D01*
G01X4244Y-21655D01*
G01X4517Y-21596D01*
G01X5817Y-21235D01*
G01X6919Y-20887D01*
G01X7994Y-20487D01*
G01X9041Y-20036D01*
G01X10057Y-19536D01*
G01X11042Y-18987D01*
G01X11994Y-18392D01*
G01X12912Y-17752D01*
G01X13794Y-17069D01*
G01X14639Y-16345D01*
G01X15445Y-15580D01*
G01X16211Y-14776D01*
G01X16935Y-13936D01*
G01X17617Y-13061D01*
G01X18254Y-12151D01*
G01X18845Y-11209D01*
G01X19389Y-10237D01*
G01X19884Y-9235D01*
G01X20320Y-8228D01*
G01X20707Y-7197D01*
G01X21043Y-6141D01*
G01X21327Y-5064D01*
G01X21535Y-4087D01*
G01X21744Y-2898D01*
G01X21765Y-2721D01*
G01X21769Y-2645D01*
G01X21770Y-2600D01*
G01X21769Y-2573D01*
G01X21767Y-2554D01*
G01X21765Y-2541D01*
G01X21763Y-2530D01*
G01X21761Y-2523D01*
G01X21759Y-2517D01*
G01X21757Y-2511D01*
G01X21754Y-2506D01*
G01X21752Y-2501D01*
G01X21750Y-2499D01*
G01X21749Y-2497D01*
G01X21748Y-2496D01*
G01X21746Y-2494D01*
G01X21744Y-2492D01*
G01X21743Y-2491D01*
G01X21741Y-2490D01*
G01X21739Y-2489D01*
G01X21738Y-2488D01*
G01X21736Y-2487D01*
G01X21734D01*
G01X21732Y-2486D01*
G01X21730D01*
G01X21728D01*
G01X21726Y-2485D01*
G01X21723Y-2486D01*
G01X21721D01*
G01X21719D01*
G01X21717Y-2487D01*
G01X21712Y-2488D01*
G01X21707Y-2490D01*
G01X21701Y-2493D01*
G01X21696Y-2496D01*
G01X21687Y-2501D01*
G01X21678Y-2508D01*
G01X21665Y-2519D01*
G01X21647Y-2536D01*
G01X21624Y-2561D01*
G01X21586Y-2607D01*
G01X21511Y-2707D01*
G01X21236Y-3124D01*
G01X21126Y-3298D01*
G37*
G36*
G01X16402Y12114D02*
G01X16402Y12114D01*
G01X15929Y11740D01*
G01X15416Y11374D01*
G01X14844Y11008D01*
G01X14231Y10659D01*
G01X13576Y10329D01*
G01X12883Y10023D01*
G01X12172Y9752D01*
G01X11449Y9517D01*
G01X10716Y9319D01*
G01X9977Y9159D01*
G01X9258Y9041D01*
G01X8560Y8964D01*
G01X7888Y8923D01*
G01X7264Y8918D01*
G01X6669Y8943D01*
G01X6244Y8980D01*
G01X4881Y9127D01*
G01Y8281D01*
G01X4886Y8106D01*
G01X4900Y7928D01*
G01X4926Y7730D01*
G01X4964Y7529D01*
G01X5018Y7307D01*
G01X5090Y7063D01*
G01X5185Y6798D01*
G01X5305Y6509D01*
G01X5454Y6195D01*
G01X5647Y5838D01*
G01X5892Y5434D01*
G01X6214Y4962D01*
G01X6611Y4437D01*
G01X7133Y3817D01*
G01X7419Y3501D01*
G01X8237Y2572D01*
G01X9039Y1562D01*
G01X9800Y499D01*
G01X10495Y-582D01*
G01X11095Y-1629D01*
G01X11593Y-2608D01*
G01X11987Y-3490D01*
G01X12283Y-4255D01*
G01X12503Y-4922D01*
G01X12661Y-5495D01*
G01X12771Y-5995D01*
G01X12843Y-6426D01*
G01X12850Y-6476D01*
G01X12965Y-7274D01*
G01X12995Y-7417D01*
G01X13016Y-7497D01*
G01X13033Y-7552D01*
G01X13049Y-7595D01*
G01X13064Y-7627D01*
G01X13079Y-7657D01*
G01X13091Y-7679D01*
G01X13105Y-7699D01*
G01X13115Y-7713D01*
G01X13126Y-7726D01*
G01X13137Y-7738D01*
G01X13149Y-7749D01*
G01X13161Y-7759D01*
G01X13174Y-7769D01*
G01X13187Y-7777D01*
G01X13201Y-7785D01*
G01X13215Y-7791D01*
G01X13229Y-7797D01*
G01X13245Y-7802D01*
G01X13260Y-7806D01*
G01X13277Y-7809D01*
G01X13294Y-7812D01*
G01X13317Y-7814D01*
G01X13342D01*
G01X13368D01*
G01X13401Y-7811D01*
G01X13445Y-7804D01*
G01X13499Y-7793D01*
G01X13576Y-7774D01*
G01X13699Y-7734D01*
G01X14051Y-7600D01*
G01X14409Y-7455D01*
G01X15151Y-7132D01*
G01X15833Y-6794D01*
G01X16458Y-6443D01*
G01X17011Y-6094D01*
G01X17516Y-5739D01*
G01X17992Y-5367D01*
G01X18424Y-4992D01*
G01X18814Y-4617D01*
G01X19180Y-4227D01*
G01X19508Y-3840D01*
G01X19812Y-3440D01*
G01X20094Y-3028D01*
G01X20342Y-2622D01*
G01X20568Y-2205D01*
G01X20773Y-1778D01*
G01X20956Y-1341D01*
G01X21124Y-876D01*
G01X21267Y-400D01*
G01X21388Y86D01*
G01X21488Y602D01*
G01X21562Y1127D01*
G01X21611Y1683D01*
G01X21633Y2250D01*
G01X21625Y2847D01*
G01X21586Y3477D01*
G01X21511Y4139D01*
G01X21392Y4857D01*
G01X21228Y5610D01*
G01X21008Y6421D01*
G01X20723Y7291D01*
G01X20364Y8221D01*
G01X19921Y9214D01*
G01X19386Y10268D01*
G01X18731Y11410D01*
G01X18436Y11886D01*
G01X17988Y12593D01*
G01X17910Y12701D01*
G01X17860Y12765D01*
G01X17822Y12807D01*
G01X17791Y12839D01*
G01X17765Y12862D01*
G01X17744Y12878D01*
G01X17723Y12893D01*
G01X17703Y12905D01*
G01X17687Y12914D01*
G01X17672Y12921D01*
G01X17656Y12927D01*
G01X17640Y12932D01*
G01X17625Y12936D01*
G01X17609Y12939D01*
G01X17592Y12941D01*
G01X17576Y12942D01*
G01X17559D01*
G01X17543Y12941D01*
G01X17525Y12939D01*
G01X17508Y12936D01*
G01X17484Y12930D01*
G01X17460Y12922D01*
G01X17435Y12913D01*
G01X17402Y12899D01*
G01X17361Y12878D01*
G01X17311Y12849D01*
G01X17242Y12803D01*
G01X17122Y12715D01*
G01X16402Y12114D01*
G37*
G36*
G01X-4139Y21742D02*
G01X-4139Y21742D01*
G01X-4821Y21601D01*
G01X-5836Y21338D01*
G01X-6971Y20984D01*
G01X-7744Y20702D01*
G01X-8117Y20544D01*
G01X-8304Y20453D01*
G01X-8401Y20400D01*
G01X-8462Y20362D01*
G01X-8498Y20337D01*
G01X-8522Y20317D01*
G01X-8537Y20304D01*
G01X-8546Y20295D01*
G01X-8554Y20286D01*
G01X-8560Y20278D01*
G01X-8565Y20270D01*
G01X-8568Y20266D01*
G01X-8569Y20262D01*
G01X-8571Y20259D01*
G01X-8572Y20255D01*
G01X-8573Y20251D01*
G01X-8574Y20248D01*
G01Y20245D01*
G01Y20241D01*
G01Y20238D01*
G01X-8573Y20235D01*
G01Y20232D01*
G01X-8571Y20229D01*
G01X-8570Y20226D01*
G01X-8568Y20223D01*
G01X-8566Y20220D01*
G01X-8563Y20218D01*
G01X-8560Y20215D01*
G01X-8557Y20212D01*
G01X-8554Y20210D01*
G01X-8550Y20208D01*
G01X-8541Y20203D01*
G01X-8531Y20199D01*
G01X-8520Y20196D01*
G01X-8507Y20192D01*
G01X-8486Y20188D01*
G01X-8452Y20184D01*
G01X-8443Y20183D01*
G01X-7538Y20084D01*
G01X-6703Y19950D01*
G01X-5920Y19783D01*
G01X-5185Y19588D01*
G01X-4484Y19363D01*
G01X-3814Y19110D01*
G01X-3173Y18830D01*
G01X-2549Y18519D01*
G01X-1941Y18177D01*
G01X-1336Y17795D01*
G01X-746Y17380D01*
G01X-161Y16922D01*
G01X431Y16409D01*
G01X1027Y15837D01*
G01X1627Y15200D01*
G01X2238Y14481D01*
G01X2869Y13659D01*
G01X3525Y12710D01*
G01X3949Y12039D01*
G01X4999Y10320D01*
G01X7257Y10262D01*
G01X8188D01*
G01X8984Y10302D01*
G01X9678Y10373D01*
G01X10298Y10468D01*
G01X10883Y10588D01*
G01X11438Y10732D01*
G01X11964Y10898D01*
G01X12481Y11090D01*
G01X12989Y11309D01*
G01X13505Y11563D01*
G01X14046Y11864D01*
G01X14613Y12218D01*
G01X15223Y12643D01*
G01X15655Y12972D01*
G01X16270Y13467D01*
G01X16397Y13584D01*
G01X16472Y13659D01*
G01X16523Y13716D01*
G01X16561Y13763D01*
G01X16589Y13802D01*
G01X16614Y13840D01*
G01X16631Y13871D01*
G01X16646Y13901D01*
G01X16659Y13931D01*
G01X16670Y13961D01*
G01X16676Y13983D01*
G01X16681Y14006D01*
G01X16685Y14029D01*
G01X16688Y14052D01*
G01X16689Y14074D01*
G01X16690Y14097D01*
G01X16688Y14121D01*
G01X16686Y14144D01*
G01X16682Y14168D01*
G01X16675Y14200D01*
G01X16666Y14232D01*
G01X16655Y14265D01*
G01X16641Y14299D01*
G01X16621Y14343D01*
G01X16592Y14396D01*
G01X16551Y14461D01*
G01X16496Y14540D01*
G01X16405Y14655D01*
G01X16240Y14842D01*
G01X15402Y15685D01*
G01X14724Y16319D01*
G01X13928Y16992D01*
G01X13008Y17693D01*
G01X12001Y18384D01*
G01X10912Y19052D01*
G01X9791Y19665D01*
G01X8672Y20206D01*
G01X7610Y20654D01*
G01X6634Y21009D01*
G01X5751Y21281D01*
G01X5487Y21353D01*
G01X5165Y21428D01*
G01X4568Y21534D01*
G01X3406Y21680D01*
G01X1271Y21841D01*
G01X-1215Y21908D01*
G01X-2796Y21874D01*
G01X-3585Y21816D01*
G01X-4020Y21762D01*
G01X-4139Y21742D01*
G37*
G36*
G01X-13831Y-8347D02*
G01X-13831Y-8347D01*
G01X-13925Y-8999D01*
G01X-13987Y-9665D01*
G01X-14016Y-10343D01*
G01X-14011Y-11017D01*
G01X-13972Y-11685D01*
G01X-13898Y-12359D01*
G01X-13794Y-13008D01*
G01X-13659Y-13645D01*
G01X-13493Y-14268D01*
G01X-13302Y-14863D01*
G01X-13089Y-15427D01*
G01X-12856Y-15961D01*
G01X-12606Y-16465D01*
G01X-12340Y-16938D01*
G01X-12061Y-17381D01*
G01X-11771Y-17793D01*
G01X-11480Y-18166D01*
G01X-11181Y-18509D01*
G01X-10878Y-18825D01*
G01X-10571Y-19114D01*
G01X-10261Y-19376D01*
G01X-9950Y-19613D01*
G01X-9640Y-19826D01*
G01X-9330Y-20015D01*
G01X-9024Y-20182D01*
G01X-8797Y-20293D01*
G01X-8297Y-20509D01*
G01X-7608Y-20767D01*
G01X-6682Y-21061D01*
G01X-5481Y-21377D01*
G01X-4076Y-21672D01*
G01X-2661Y-21896D01*
G01X-1438Y-22028D01*
G01X-483Y-22082D01*
G01X220Y-22087D01*
G01X750Y-22063D01*
G01X1071Y-22034D01*
G01X2294Y-21895D01*
G01X2171Y-21266D01*
G01X2042Y-20499D01*
G01X1951Y-19731D01*
G01X1900Y-18963D01*
G01X1887Y-18174D01*
G01X1915Y-17388D01*
G01X1980Y-16632D01*
G01X2082Y-15882D01*
G01X2222Y-15142D01*
G01X2398Y-14412D01*
G01X2611Y-13695D01*
G01X2851Y-13013D01*
G01X3124Y-12347D01*
G01X3431Y-11696D01*
G01X3759Y-11083D01*
G01X4117Y-10489D01*
G01X4492Y-9932D01*
G01X4600Y-9782D01*
G01X5321Y-8797D01*
G01X4445Y-8398D01*
G01X4277Y-8327D01*
G01X4100Y-8263D01*
G01X3900Y-8202D01*
G01X3672Y-8145D01*
G01X3414Y-8095D01*
G01X3123Y-8054D01*
G01X2774Y-8024D01*
G01X2357Y-8008D01*
G01X1817Y-8016D01*
G01X1099Y-8065D01*
G01X104Y-8183D01*
G01X-1384Y-8435D01*
G01X-2685Y-8650D01*
G01X-4057Y-8807D01*
G01X-5446Y-8896D01*
G01X-6779Y-8915D01*
G01X-7994Y-8871D01*
G01X-9061Y-8778D01*
G01X-9960Y-8654D01*
G01X-10714Y-8512D01*
G01X-11332Y-8362D01*
G01X-11838Y-8212D01*
G01X-12251Y-8066D01*
G01X-12596Y-7924D01*
G01X-12882Y-7790D01*
G01X-12910Y-7775D01*
G01X-13667Y-7388D01*
G01X-13831Y-8347D01*
G37*
G36*
G01X-21325Y6346D02*
G01X-21325Y6346D01*
G01X-21591Y5396D01*
G01X-21815Y4410D01*
G01X-21994Y3389D01*
G01X-22122Y2347D01*
G01X-22200Y1274D01*
G01X-22225Y172D01*
G01X-22194Y-944D01*
G01X-22104Y-2084D01*
G01X-21955Y-3231D01*
G01X-21746Y-4383D01*
G01X-21480Y-5524D01*
G01X-21156Y-6649D01*
G01X-20777Y-7756D01*
G01X-20342Y-8842D01*
G01X-19860Y-9892D01*
G01X-19332Y-10903D01*
G01X-18762Y-11874D01*
G01X-18158Y-12792D01*
G01X-17518Y-13667D01*
G01X-16852Y-14488D01*
G01X-16163Y-15254D01*
G01X-15446Y-15974D01*
G01X-14713Y-16641D01*
G01X-13967Y-17254D01*
G01X-13947Y-17269D01*
G01X-13092Y-17934D01*
G01X-13797Y-16446D01*
G01X-14073Y-15823D01*
G01X-14316Y-15192D01*
G01X-14525Y-14553D01*
G01X-14697Y-13921D01*
G01X-14837Y-13283D01*
G01X-14946Y-12625D01*
G01X-15023Y-11962D01*
G01X-15065Y-11293D01*
G01X-15074Y-10605D01*
G01X-15048Y-9898D01*
G01X-14983Y-9173D01*
G01X-14879Y-8430D01*
G01X-14732Y-7669D01*
G01X-14541Y-6891D01*
G01X-14299Y-6082D01*
G01X-14001Y-5241D01*
G01X-13641Y-4370D01*
G01X-13208Y-3455D01*
G01X-12702Y-2512D01*
G01X-12440Y-2063D01*
G01X-11614Y-687D01*
G01X-12391Y871D01*
G01X-12602Y1265D01*
G01X-12860Y1696D01*
G01X-13185Y2180D01*
G01X-13583Y2712D01*
G01X-14060Y3287D01*
G01X-14621Y3897D01*
G01X-15234Y4499D01*
G01X-15892Y5083D01*
G01X-16553Y5612D01*
G01X-17188Y6070D01*
G01X-17773Y6447D01*
G01X-18283Y6741D01*
G01X-18734Y6971D01*
G01X-19126Y7147D01*
G01X-19476Y7284D01*
G01X-19786Y7386D01*
G01X-20056Y7460D01*
G01X-20287Y7510D01*
G01X-20510Y7549D01*
G01X-20576Y7557D01*
G01X-20626Y7560D01*
G01X-20663D01*
G01X-20689Y7558D01*
G01X-20715Y7555D01*
G01X-20739Y7550D01*
G01X-20755Y7546D01*
G01X-20770Y7541D01*
G01X-20785Y7536D01*
G01X-20799Y7529D01*
G01X-20813Y7522D01*
G01X-20827Y7514D01*
G01X-20840Y7505D01*
G01X-20853Y7495D01*
G01X-20866Y7484D01*
G01X-20885Y7466D01*
G01X-20903Y7446D01*
G01X-20922Y7424D01*
G01X-20939Y7399D01*
G01X-20963Y7361D01*
G01X-20992Y7308D01*
G01X-21026Y7234D01*
G01X-21080Y7101D01*
G01X-21216Y6697D01*
G01X-21325Y6346D01*
G37*
G36*
G01X-2480Y3992D02*
G01X-2480Y3992D01*
G01X-2690Y3870D01*
G01X-2889Y3739D01*
G01X-3078Y3600D01*
G01X-3258Y3453D01*
G01X-3427Y3299D01*
G01X-3587Y3138D01*
G01X-3737Y2971D01*
G01X-3877Y2797D01*
G01X-4008Y2617D01*
G01X-4128Y2433D01*
G01X-4247Y2227D01*
G01X-4355Y2016D01*
G01X-4451Y1801D01*
G01X-4535Y1581D01*
G01X-4608Y1358D01*
G01X-4669Y1131D01*
G01X-4718Y902D01*
G01X-4756Y671D01*
G01X-4782Y439D01*
G01X-4797Y187D01*
G01X-4799Y-65D01*
G01X-4787Y-317D01*
G01X-4763Y-550D01*
G01X-4728Y-782D01*
G01X-4682Y-1013D01*
G01X-4623Y-1241D01*
G01X-4553Y-1466D01*
G01X-4471Y-1688D01*
G01X-4377Y-1906D01*
G01X-4272Y-2120D01*
G01X-4155Y-2329D01*
G01X-4026Y-2533D01*
G01X-3897Y-2716D01*
G01X-3757Y-2893D01*
G01X-3608Y-3064D01*
G01X-3448Y-3229D01*
G01X-3279Y-3388D01*
G01X-3099Y-3539D01*
G01X-2909Y-3683D01*
G01X-2710Y-3818D01*
G01X-2588Y-3894D01*
G01X-2350Y-4029D01*
G01X-2108Y-4149D01*
G01X-1884Y-4246D01*
G01X-1659Y-4331D01*
G01X-1432Y-4403D01*
G01X-1205Y-4463D01*
G01X-978Y-4511D01*
G01X-751Y-4548D01*
G01X-525Y-4572D01*
G01X-281Y-4586D01*
G01X-38D01*
G01X203Y-4573D01*
G01X441Y-4548D01*
G01X677Y-4510D01*
G01X909Y-4460D01*
G01X1138Y-4399D01*
G01X1363Y-4325D01*
G01X1583Y-4240D01*
G01X1798Y-4144D01*
G01X2007Y-4037D01*
G01X2211Y-3919D01*
G01X2408Y-3790D01*
G01X2598Y-3652D01*
G01X2781Y-3503D01*
G01X2956Y-3345D01*
G01X3124Y-3178D01*
G01X3282Y-3001D01*
G01X3432Y-2815D01*
G01X3572Y-2620D01*
G01X3702Y-2417D01*
G01X3813Y-2223D01*
G01X3914Y-2021D01*
G01X4006Y-1813D01*
G01X4089Y-1599D01*
G01X4161Y-1378D01*
G01X4222Y-1152D01*
G01X4272Y-919D01*
G01X4312Y-681D01*
G01X4339Y-438D01*
G01X4355Y-189D01*
G01X4358Y1D01*
G01X4351Y268D01*
G01X4330Y529D01*
G01X4298Y765D01*
G01X4256Y996D01*
G01X4202Y1222D01*
G01X4138Y1442D01*
G01X4064Y1657D01*
G01X3972Y1882D01*
G01X3870Y2101D01*
G01X3756Y2312D01*
G01X3632Y2515D01*
G01X3499Y2711D01*
G01X3356Y2898D01*
G01X3204Y3077D01*
G01X3043Y3247D01*
G01X2874Y3408D01*
G01X2697Y3560D01*
G01X2513Y3703D01*
G01X2322Y3836D01*
G01X2125Y3959D01*
G01X1921Y4072D01*
G01X1712Y4175D01*
G01X1498Y4267D01*
G01X1279Y4348D01*
G01X1055Y4418D01*
G01X828Y4476D01*
G01X597Y4523D01*
G01X363Y4558D01*
G01X126Y4581D01*
G01X-113Y4591D01*
G01X-354Y4589D01*
G01X-597Y4574D01*
G01X-840Y4546D01*
G01X-1084Y4505D01*
G01X-1328Y4450D01*
G01X-1572Y4381D01*
G01X-1815Y4298D01*
G01X-2057Y4200D01*
G01X-2297Y4088D01*
G01X-2480Y3992D01*
G37*
G04 Image End*
G04 Image End*
G54D10*

M02*
