G04 Layer: BottomPasteMaskLayer*
G04 EasyEDA Pro v1.9.29.eba1c1, 2023-07-30 16:19:25*
G04 Gerber Generator version 0.3*
G04 Scale: 100 percent, Rotated: No, Reflected: No*
G04 Dimensions in millimeters*
G04 Leading zeros omitted, absolute positions, 3 integers and 3 decimals*
%FSLAX33Y33*%
%MOMM*%
%AMRect*21,1,$1,$2,0,0,$3*%
%ADD10C,0.0254*%
%ADD11R,1.999996X4.499991*%
%ADD12R,0.999998X0.550012*%
%ADD13R,0.999998X0.959993*%
%ADD14R,1.25001X0.699999*%
%ADD15C,1.7046*%
%ADD16C,1.699999*%
%ADD17R,1.699999X1.699999*%
%ADD18R,2.199996X2.799994*%
%ADD19R,2.199996X2.799994*%
%ADD20Rect,1.545006X0.997001X291.88*%
%ADD21Rect,1.545006X0.997001X247.47*%
%ADD22Rect,1.545006X0.997001X220.47*%
%ADD23Rect,1.545006X0.997001X193.47*%
%ADD24Rect,1.545006X0.997001X166.47*%
%ADD25Rect,1.545006X0.997001X139.47*%
%ADD26Rect,1.545006X0.997001X112.47*%
%ADD27Rect,1.545006X0.997001X67.47*%
%ADD28O,0.699999X1.999996*%
G75*


G04 PolygonModel Start*
G36*
G01X9510Y12470D02*
G01X8230Y12470D01*
G01X8180Y12420D01*
G01Y11270D01*
G01X8230Y11220D01*
G01X8640Y11215D01*
G01Y11665D01*
G01X9090D01*
G01Y11225D01*
G01X9510Y11220D01*
G01X9560Y11270D01*
G01Y12420D01*
G01X9510Y12470D01*
G37*
G54D10*
G01X9510Y12470D02*
G01X8230Y12470D01*
G01X8180Y12420D01*
G01Y11270D01*
G01X8230Y11220D01*
G01X8640Y11215D01*
G01Y11665D01*
G01X9090D01*
G01Y11225D01*
G01X9510Y11220D01*
G01X9560Y11270D01*
G01Y12420D01*
G01X9510Y12470D01*
G36*
G01X9510Y10320D02*
G01X9090Y10320D01*
G01Y9875D01*
G01X8640D01*
G01Y10315D01*
G01X8230Y10320D01*
G01X8180Y10270D01*
G01Y9120D01*
G01X8230Y9070D01*
G01X9510D01*
G01X9560Y9120D01*
G01Y10270D01*
G01X9510Y10320D01*
G37*
G01X9510Y10320D02*
G01X9090Y10320D01*
G01Y9875D01*
G01X8640D01*
G01Y10315D01*
G01X8230Y10320D01*
G01X8180Y10270D01*
G01Y9120D01*
G01X8230Y9070D01*
G01X9510D01*
G01X9560Y9120D01*
G01Y10270D01*
G01X9510Y10320D01*
G36*
G01X-650Y12470D02*
G01X-1930Y12470D01*
G01X-1980Y12420D01*
G01Y11270D01*
G01X-1930Y11220D01*
G01X-1520Y11215D01*
G01Y11665D01*
G01X-1070D01*
G01Y11225D01*
G01X-650Y11220D01*
G01X-600Y11270D01*
G01Y12420D01*
G01X-650Y12470D01*
G37*
G01X-650Y12470D02*
G01X-1930Y12470D01*
G01X-1980Y12420D01*
G01Y11270D01*
G01X-1930Y11220D01*
G01X-1520Y11215D01*
G01Y11665D01*
G01X-1070D01*
G01Y11225D01*
G01X-650Y11220D01*
G01X-600Y11270D01*
G01Y12420D01*
G01X-650Y12470D01*
G36*
G01X-650Y10320D02*
G01X-1070Y10320D01*
G01Y9875D01*
G01X-1520D01*
G01Y10315D01*
G01X-1930Y10320D01*
G01X-1980Y10270D01*
G01Y9120D01*
G01X-1930Y9070D01*
G01X-650D01*
G01X-600Y9120D01*
G01Y10270D01*
G01X-650Y10320D01*
G37*
G01X-650Y10320D02*
G01X-1070Y10320D01*
G01Y9875D01*
G01X-1520D01*
G01Y10315D01*
G01X-1930Y10320D01*
G01X-1980Y10270D01*
G01Y9120D01*
G01X-1930Y9070D01*
G01X-650D01*
G01X-600Y9120D01*
G01Y10270D01*
G01X-650Y10320D01*
G36*
G01X1700Y6980D02*
G01X1700Y8260D01*
G01X1650Y8310D01*
G01X500D01*
G01X450Y8260D01*
G01X445Y7850D01*
G01X895D01*
G01Y7400D01*
G01X455D01*
G01X450Y6980D01*
G01X500Y6930D01*
G01X1650D01*
G01X1700Y6980D01*
G37*
G01X1700Y6980D02*
G01X1700Y8260D01*
G01X1650Y8310D01*
G01X500D01*
G01X450Y8260D01*
G01X445Y7850D01*
G01X895D01*
G01Y7400D01*
G01X455D01*
G01X450Y6980D01*
G01X500Y6930D01*
G01X1650D01*
G01X1700Y6980D01*
G36*
G01X-450Y6980D02*
G01X-450Y7400D01*
G01X-895D01*
G01Y7850D01*
G01X-455D01*
G01X-450Y8260D01*
G01X-500Y8310D01*
G01X-1650D01*
G01X-1700Y8260D01*
G01Y6980D01*
G01X-1650Y6930D01*
G01X-500D01*
G01X-450Y6980D01*
G37*
G01X-450Y6980D02*
G01X-450Y7400D01*
G01X-895D01*
G01Y7850D01*
G01X-455D01*
G01X-450Y8260D01*
G01X-500Y8310D01*
G01X-1650D01*
G01X-1700Y8260D01*
G01Y6980D01*
G01X-1650Y6930D01*
G01X-500D01*
G01X-450Y6980D01*
G36*
G01X1910Y12495D02*
G01X630Y12495D01*
G01X580Y12445D01*
G01Y11295D01*
G01X630Y11245D01*
G01X1040Y11240D01*
G01Y11690D01*
G01X1490D01*
G01Y11250D01*
G01X1910Y11245D01*
G01X1960Y11295D01*
G01Y12445D01*
G01X1910Y12495D01*
G37*
G01X1910Y12495D02*
G01X630Y12495D01*
G01X580Y12445D01*
G01Y11295D01*
G01X630Y11245D01*
G01X1040Y11240D01*
G01Y11690D01*
G01X1490D01*
G01Y11250D01*
G01X1910Y11245D01*
G01X1960Y11295D01*
G01Y12445D01*
G01X1910Y12495D01*
G36*
G01X1910Y10345D02*
G01X1490Y10345D01*
G01Y9900D01*
G01X1040D01*
G01Y10340D01*
G01X630Y10345D01*
G01X580Y10295D01*
G01Y9145D01*
G01X630Y9095D01*
G01X1910D01*
G01X1960Y9145D01*
G01Y10295D01*
G01X1910Y10345D01*
G37*
G01X1910Y10345D02*
G01X1490Y10345D01*
G01Y9900D01*
G01X1040D01*
G01Y10340D01*
G01X630Y10345D01*
G01X580Y10295D01*
G01Y9145D01*
G01X630Y9095D01*
G01X1910D01*
G01X1960Y9145D01*
G01Y10295D01*
G01X1910Y10345D01*
G36*
G01X-10175Y6120D02*
G01X-11455Y6120D01*
G01X-11505Y6070D01*
G01Y4920D01*
G01X-11455Y4870D01*
G01X-11045Y4865D01*
G01Y5315D01*
G01X-10595D01*
G01Y4875D01*
G01X-10175Y4870D01*
G01X-10125Y4920D01*
G01Y6070D01*
G01X-10175Y6120D01*
G37*
G01X-10175Y6120D02*
G01X-11455Y6120D01*
G01X-11505Y6070D01*
G01Y4920D01*
G01X-11455Y4870D01*
G01X-11045Y4865D01*
G01Y5315D01*
G01X-10595D01*
G01Y4875D01*
G01X-10175Y4870D01*
G01X-10125Y4920D01*
G01Y6070D01*
G01X-10175Y6120D01*
G36*
G01X-10175Y3970D02*
G01X-10595Y3970D01*
G01Y3525D01*
G01X-11045D01*
G01Y3965D01*
G01X-11455Y3970D01*
G01X-11505Y3920D01*
G01Y2770D01*
G01X-11455Y2720D01*
G01X-10175D01*
G01X-10125Y2770D01*
G01Y3920D01*
G01X-10175Y3970D01*
G37*
G01X-10175Y3970D02*
G01X-10595Y3970D01*
G01Y3525D01*
G01X-11045D01*
G01Y3965D01*
G01X-11455Y3970D01*
G01X-11505Y3920D01*
G01Y2770D01*
G01X-11455Y2720D01*
G01X-10175D01*
G01X-10125Y2770D01*
G01Y3920D01*
G01X-10175Y3970D01*
G36*
G01X-18129Y-5696D02*
G01X-19311Y-6186D01*
G01X-19338Y-6251D01*
G01X-18898Y-7314D01*
G01X-18833Y-7341D01*
G01X-18452Y-7188D01*
G01X-18624Y-6773D01*
G01X-18208Y-6601D01*
G01X-18040Y-7007D01*
G01X-17650Y-6851D01*
G01X-17623Y-6786D01*
G01X-18063Y-5723D01*
G01X-18129Y-5696D01*
G37*
G01X-18129Y-5696D02*
G01X-19311Y-6186D01*
G01X-19338Y-6251D01*
G01X-18898Y-7314D01*
G01X-18833Y-7341D01*
G01X-18452Y-7188D01*
G01X-18624Y-6773D01*
G01X-18208Y-6601D01*
G01X-18040Y-7007D01*
G01X-17650Y-6851D01*
G01X-17623Y-6786D01*
G01X-18063Y-5723D01*
G01X-18129Y-5696D01*
G36*
G01X-17306Y-7682D02*
G01X-17694Y-7843D01*
G01X-17523Y-8254D01*
G01X-17939Y-8426D01*
G01X-18108Y-8020D01*
G01X-18488Y-8172D01*
G01X-18515Y-8238D01*
G01X-18075Y-9300D01*
G01X-18010Y-9327D01*
G01X-16827Y-8837D01*
G01X-16800Y-8772D01*
G01X-17240Y-7709D01*
G01X-17306Y-7682D01*
G37*
G01X-17306Y-7682D02*
G01X-17694Y-7843D01*
G01X-17523Y-8254D01*
G01X-17939Y-8426D01*
G01X-18108Y-8020D01*
G01X-18488Y-8172D01*
G01X-18515Y-8238D01*
G01X-18075Y-9300D01*
G01X-18010Y-9327D01*
G01X-16827Y-8837D01*
G01X-16800Y-8772D01*
G01X-17240Y-7709D01*
G01X-17306Y-7682D01*
G36*
G01X16847Y-8791D02*
G01X18029Y-9281D01*
G01X18094Y-9254D01*
G01X18535Y-8191D01*
G01X18507Y-8126D01*
G01X18131Y-7965D01*
G01X17958Y-8380D01*
G01X17543Y-8208D01*
G01X17711Y-7802D01*
G01X17325Y-7636D01*
G01X17260Y-7663D01*
G01X16819Y-8726D01*
G01X16847Y-8791D01*
G37*
G01X16847Y-8791D02*
G01X18029Y-9281D01*
G01X18094Y-9254D01*
G01X18535Y-8191D01*
G01X18507Y-8126D01*
G01X18131Y-7965D01*
G01X17958Y-8380D01*
G01X17543Y-8208D01*
G01X17711Y-7802D01*
G01X17325Y-7636D01*
G01X17260Y-7663D01*
G01X16819Y-8726D01*
G01X16847Y-8791D01*
G36*
G01X17669Y-6805D02*
G01X18057Y-6965D01*
G01X18228Y-6554D01*
G01X18643Y-6727D01*
G01X18475Y-7133D01*
G01X18852Y-7295D01*
G01X18917Y-7268D01*
G01X19357Y-6205D01*
G01X19330Y-6140D01*
G01X18148Y-5650D01*
G01X18082Y-5677D01*
G01X17642Y-6739D01*
G01X17669Y-6805D01*
G37*
G01X17669Y-6805D02*
G01X18057Y-6965D01*
G01X18228Y-6554D01*
G01X18643Y-6727D01*
G01X18475Y-7133D01*
G01X18852Y-7295D01*
G01X18917Y-7268D01*
G01X19357Y-6205D01*
G01X19330Y-6140D01*
G01X18148Y-5650D01*
G01X18082Y-5677D01*
G01X17642Y-6739D01*
G01X17669Y-6805D01*
G36*
G01X-11019Y15481D02*
G01X-11851Y16454D01*
G01X-11921Y16460D01*
G01X-12796Y15713D01*
G01X-12801Y15643D01*
G01X-12539Y15328D01*
G01X-12196Y15620D01*
G01X-11904Y15278D01*
G01X-12239Y14992D01*
G01X-11970Y14669D01*
G01X-11899Y14664D01*
G01X-11025Y15411D01*
G01X-11019Y15481D01*
G37*
G01X-11019Y15481D02*
G01X-11851Y16454D01*
G01X-11921Y16460D01*
G01X-12796Y15713D01*
G01X-12801Y15643D01*
G01X-12539Y15328D01*
G01X-12196Y15620D01*
G01X-11904Y15278D01*
G01X-12239Y14992D01*
G01X-11970Y14669D01*
G01X-11899Y14664D01*
G01X-11025Y15411D01*
G01X-11019Y15481D01*
G36*
G01X-12654Y14085D02*
G01X-12927Y14404D01*
G01X-13265Y14115D01*
G01X-13558Y14457D01*
G01X-13223Y14743D01*
G01X-13485Y15058D01*
G01X-13556Y15064D01*
G01X-14430Y14317D01*
G01X-14436Y14246D01*
G01X-13605Y13273D01*
G01X-13534Y13267D01*
G01X-12660Y14014D01*
G01X-12654Y14085D01*
G37*
G01X-12654Y14085D02*
G01X-12927Y14404D01*
G01X-13265Y14115D01*
G01X-13558Y14457D01*
G01X-13223Y14743D01*
G01X-13485Y15058D01*
G01X-13556Y15064D01*
G01X-14430Y14317D01*
G01X-14436Y14246D01*
G01X-13605Y13273D01*
G01X-13534Y13267D01*
G01X-12660Y14014D01*
G01X-12654Y14085D01*
G36*
G01X13567Y13305D02*
G01X14398Y14279D01*
G01X14392Y14349D01*
G01X13518Y15096D01*
G01X13447Y15091D01*
G01X13177Y14782D01*
G01X13520Y14490D01*
G01X13227Y14148D01*
G01X12893Y14433D01*
G01X12616Y14117D01*
G01X12622Y14047D01*
G01X13496Y13300D01*
G01X13567Y13305D01*
G37*
G01X13567Y13305D02*
G01X14398Y14279D01*
G01X14392Y14349D01*
G01X13518Y15096D01*
G01X13447Y15091D01*
G01X13177Y14782D01*
G01X13520Y14490D01*
G01X13227Y14148D01*
G01X12893Y14433D01*
G01X12616Y14117D01*
G01X12622Y14047D01*
G01X13496Y13300D01*
G01X13567Y13305D01*
G36*
G01X11932Y14702D02*
G01X12205Y15021D01*
G01X11866Y15310D01*
G01X12158Y15652D01*
G01X12493Y15367D01*
G01X12763Y15675D01*
G01X12758Y15746D01*
G01X11883Y16492D01*
G01X11813Y16487D01*
G01X10981Y15514D01*
G01X10987Y15443D01*
G01X11861Y14696D01*
G01X11932Y14702D01*
G37*
G01X11932Y14702D02*
G01X12205Y15021D01*
G01X11866Y15310D01*
G01X12158Y15652D01*
G01X12493Y15367D01*
G01X12763Y15675D01*
G01X12758Y15746D01*
G01X11883Y16492D01*
G01X11813Y16487D01*
G01X10981Y15514D01*
G01X10987Y15443D01*
G01X11861Y14696D01*
G01X11932Y14702D01*
G36*
G01X9202Y-1700D02*
G01X10482Y-1700D01*
G01X10532Y-1650D01*
G01Y-500D01*
G01X10482Y-450D01*
G01X10072Y-445D01*
G01Y-895D01*
G01X9622D01*
G01Y-455D01*
G01X9202Y-450D01*
G01X9152Y-500D01*
G01Y-1650D01*
G01X9202Y-1700D01*
G37*
G01X9202Y-1700D02*
G01X10482Y-1700D01*
G01X10532Y-1650D01*
G01Y-500D01*
G01X10482Y-450D01*
G01X10072Y-445D01*
G01Y-895D01*
G01X9622D01*
G01Y-455D01*
G01X9202Y-450D01*
G01X9152Y-500D01*
G01Y-1650D01*
G01X9202Y-1700D01*
G36*
G01X9202Y450D02*
G01X9622Y450D01*
G01Y895D01*
G01X10072D01*
G01Y455D01*
G01X10482Y450D01*
G01X10532Y500D01*
G01Y1650D01*
G01X10482Y1700D01*
G01X9202D01*
G01X9152Y1650D01*
G01Y500D01*
G01X9202Y450D01*
G37*
G01X9202Y450D02*
G01X9622Y450D01*
G01Y895D01*
G01X10072D01*
G01Y455D01*
G01X10482Y450D01*
G01X10532Y500D01*
G01Y1650D01*
G01X10482Y1700D01*
G01X9202D01*
G01X9152Y1650D01*
G01Y500D01*
G01X9202Y450D01*
G36*
G01X11635Y3815D02*
G01X11635Y2535D01*
G01X11685Y2485D01*
G01X12835D01*
G01X12885Y2535D01*
G01X12890Y2945D01*
G01X12440D01*
G01Y3395D01*
G01X12880D01*
G01X12885Y3815D01*
G01X12835Y3865D01*
G01X11685D01*
G01X11635Y3815D01*
G37*
G01X11635Y3815D02*
G01X11635Y2535D01*
G01X11685Y2485D01*
G01X12835D01*
G01X12885Y2535D01*
G01X12890Y2945D01*
G01X12440D01*
G01Y3395D01*
G01X12880D01*
G01X12885Y3815D01*
G01X12835Y3865D01*
G01X11685D01*
G01X11635Y3815D01*
G36*
G01X13785Y3815D02*
G01X13785Y3395D01*
G01X14230D01*
G01Y2945D01*
G01X13790D01*
G01X13785Y2535D01*
G01X13835Y2485D01*
G01X14985D01*
G01X15035Y2535D01*
G01Y3815D01*
G01X14985Y3865D01*
G01X13835D01*
G01X13785Y3815D01*
G37*
G01X13785Y3815D02*
G01X13785Y3395D01*
G01X14230D01*
G01Y2945D01*
G01X13790D01*
G01X13785Y2535D01*
G01X13835Y2485D01*
G01X14985D01*
G01X15035Y2535D01*
G01Y3815D01*
G01X14985Y3865D01*
G01X13835D01*
G01X13785Y3815D01*
G36*
G01X10190Y-16277D02*
G01X15890Y-16277D01*
G01Y-10177D01*
G01X10190D01*
G01Y-16277D01*
G37*
G01X10190Y-16277D02*
G01X15890Y-16277D01*
G01Y-10177D01*
G01X10190D01*
G01Y-16277D01*
G36*
G01X-15610Y-16277D02*
G01X-9910Y-16277D01*
G01Y-10177D01*
G01X-15610D01*
G01Y-16277D01*
G37*
G01X-15610Y-16277D02*
G01X-9910Y-16277D01*
G01Y-10177D01*
G01X-15610D01*
G01Y-16277D01*
G04 PolygonModel End*

G04 Pad Start*
G54D11*
G01X8000Y6350D03*
G01X4700Y6350D03*
G54D12*
G01X3780Y11818D03*
G01X3780Y10868D03*
G01X3780Y9918D03*
G01X6580Y9918D03*
G01X6580Y10868D03*
G01X6580Y11818D03*
G54D13*
G01X-1585Y5080D03*
G01X1585Y5080D03*
G54D14*
G01X14017Y950D03*
G01X14017Y-950D03*
G01X12018Y0D03*
G54D16*
G01X-8572Y16510D03*
G54D17*
G01X-6032Y16510D03*
G54D16*
G01X-6032Y13970D03*
G01X-6032Y11430D03*
G01X-8572Y11430D03*
G01X-8572Y13970D03*
G54D18*
G01X-21590Y-2400D03*
G01X-21590Y2400D03*
G54D19*
G01X21590Y2400D03*
G01X21590Y-2400D03*
G54D20*
G01X-22477Y-7527D03*
G01X-20825Y-6864D03*
G01X-19604Y-9903D03*
G01X-21256Y-10567D03*
G54D21*
G01X-21235Y10569D03*
G01X-19591Y9887D03*
G01X-20846Y6862D03*
G01X-22490Y7544D03*
G54D22*
G01X-14122Y19057D03*
G01X-12967Y17703D03*
G01X-15459Y15578D03*
G01X-16614Y16932D03*
G54D23*
G01X-3931Y23392D03*
G01X-3517Y21661D03*
G01X-6702Y20898D03*
G01X-7116Y22629D03*
G54D24*
G01X7117Y22627D03*
G01X6700Y20896D03*
G01X3516Y21663D03*
G01X3933Y23393D03*
G54D25*
G01X16614Y16930D03*
G01X15457Y15577D03*
G01X12968Y17705D03*
G01X14124Y19058D03*
G54D26*
G01X22489Y7542D03*
G01X20844Y6862D03*
G01X19592Y9888D03*
G01X21237Y10569D03*
G54D27*
G01X21235Y-10569D03*
G01X19591Y-9887D03*
G01X20846Y-6862D03*
G01X22490Y-7544D03*
G54D28*
G01X-4762Y693D03*
G01X-6032Y693D03*
G01X-7302Y693D03*
G01X-8572Y693D03*
G01X-4762Y6292D03*
G01X-6032Y6292D03*
G01X-7302Y6292D03*
G01X-8572Y6292D03*
G04 Pad End*

M02*
