G04 Layer: BottomSilkscreenLayer*
G04 EasyEDA Pro v1.9.29.eba1c1, 2023-07-30 16:19:25*
G04 Gerber Generator version 0.3*
G04 Scale: 100 percent, Rotated: No, Reflected: No*
G04 Dimensions in millimeters*
G04 Leading zeros omitted, absolute positions, 3 integers and 3 decimals*
%FSLAX33Y33*%
%MOMM*%
%ADD10C,0.2032*%
%ADD11C,0.127*%
%ADD12C,0.152001*%
%ADD13C,0.1524*%
%ADD14C,0.699999*%
%ADD15C,0.254*%
%ADD16C,0.0343*%
%ADD17C,0.0254*%
%ADD18C,0.399999*%
G75*


G04 Text Start*
G04 //text: ON*
G54D10*
G01X18255Y589D02*
G01X18379Y526D01*
G01X18506Y401D01*
G01X18567Y274D01*
G01X18631Y86D01*
G01Y-226D01*
G01X18567Y-414D01*
G01X18506Y-541D01*
G01X18379Y-665D01*
G01X18255Y-729D01*
G01X18004D01*
G01X17877Y-665D01*
G01X17752Y-541D01*
G01X17689Y-414D01*
G01X17628Y-226D01*
G01Y86D01*
G01X17689Y274D01*
G01X17752Y401D01*
G01X17877Y526D01*
G01X18004Y589D01*
G01X18255D01*
G01X17122Y589D02*
G01X17122Y-729D01*
G01X17122Y589D02*
G01X16243Y-729D01*
G01X16243Y589D02*
G01X16243Y-729D01*
G04 //text: MODE*
G01X-13249Y1767D02*
G01X-13249Y448D01*
G01X-13249Y1767D02*
G01X-13752Y448D01*
G01X-14252Y1767D02*
G01X-13752Y448D01*
G01X-14252Y1767D02*
G01X-14252Y448D01*
G01X-15134Y1767D02*
G01X-15009Y1703D01*
G01X-14882Y1579D01*
G01X-14821Y1452D01*
G01X-14758Y1264D01*
G01Y951D01*
G01X-14821Y763D01*
G01X-14882Y636D01*
G01X-15009Y512D01*
G01X-15134Y448D01*
G01X-15385D01*
G01X-15512Y512D01*
G01X-15637Y636D01*
G01X-15700Y763D01*
G01X-15761Y951D01*
G01Y1264D01*
G01X-15700Y1452D01*
G01X-15637Y1579D01*
G01X-15512Y1703D01*
G01X-15385Y1767D01*
G01X-15134D01*
G01X-16267Y1767D02*
G01X-16267Y448D01*
G01X-16267Y1767D02*
G01X-16706Y1767D01*
G01X-16894Y1703D01*
G01X-17021Y1579D01*
G01X-17082Y1452D01*
G01X-17145Y1264D01*
G01Y951D01*
G01X-17082Y763D01*
G01X-17021Y636D01*
G01X-16894Y512D01*
G01X-16706Y448D01*
G01X-16267D01*
G01X-17651Y1767D02*
G01X-17651Y448D01*
G01X-17651Y1767D02*
G01X-18466Y1767D01*
G01X-17651Y1139D02*
G01X-18151Y1139D01*
G01X-17651Y448D02*
G01X-18466Y448D01*
G04 //text: OFF*
G01X-15167Y-456D02*
G01X-15042Y-519D01*
G01X-14915Y-644D01*
G01X-14854Y-771D01*
G01X-14791Y-959D01*
G01Y-1271D01*
G01X-14854Y-1459D01*
G01X-14915Y-1586D01*
G01X-15042Y-1711D01*
G01X-15167Y-1774D01*
G01X-15418D01*
G01X-15545Y-1711D01*
G01X-15670Y-1586D01*
G01X-15733Y-1459D01*
G01X-15794Y-1271D01*
G01Y-959D01*
G01X-15733Y-771D01*
G01X-15670Y-644D01*
G01X-15545Y-519D01*
G01X-15418Y-456D01*
G01X-15167D01*
G01X-16300Y-456D02*
G01X-16300Y-1774D01*
G01X-16300Y-456D02*
G01X-17115Y-456D01*
G01X-16300Y-1083D02*
G01X-16802Y-1083D01*
G01X-17620Y-456D02*
G01X-17620Y-1774D01*
G01X-17620Y-456D02*
G01X-18436Y-456D01*
G01X-17620Y-1083D02*
G01X-18123Y-1083D01*
G04 //text: CR2032*
G01X3167Y-21763D02*
G01X3226Y-21648D01*
G01X3340Y-21534D01*
G01X3454Y-21476D01*
G01X3683D01*
G01X3797Y-21534D01*
G01X3912Y-21648D01*
G01X3967Y-21763D01*
G01X4026Y-21933D01*
G01Y-22220D01*
G01X3967Y-22390D01*
G01X3912Y-22504D01*
G01X3797Y-22619D01*
G01X3683Y-22677D01*
G01X3454D01*
G01X3340Y-22619D01*
G01X3226Y-22504D01*
G01X3167Y-22390D01*
G01X2690Y-21476D02*
G01X2690Y-22677D01*
G01X2690Y-21476D02*
G01X2177Y-21476D01*
G01X2004Y-21534D01*
G01X1948Y-21590D01*
G01X1890Y-21704D01*
G01Y-21819D01*
G01X1948Y-21933D01*
G01X2004Y-21991D01*
G01X2177Y-22047D01*
G01X2690D01*
G01X2291Y-22047D02*
G01X1890Y-22677D01*
G01X1356Y-21763D02*
G01X1356Y-21704D01*
G01X1298Y-21590D01*
G01X1242Y-21534D01*
G01X1128Y-21476D01*
G01X899D01*
G01X785Y-21534D01*
G01X726Y-21590D01*
G01X671Y-21704D01*
G01Y-21819D01*
G01X726Y-21933D01*
G01X841Y-22106D01*
G01X1412Y-22677D01*
G01X612D01*
G01X-208Y-21476D02*
G01X-36Y-21534D01*
G01X79Y-21704D01*
G01X135Y-21991D01*
G01Y-22161D01*
G01X79Y-22449D01*
G01X-36Y-22619D01*
G01X-208Y-22677D01*
G01X-323D01*
G01X-493Y-22619D01*
G01X-607Y-22449D01*
G01X-665Y-22161D01*
G01Y-21991D01*
G01X-607Y-21704D01*
G01X-493Y-21534D01*
G01X-323Y-21476D01*
G01X-208D01*
G01X-1257Y-21476D02*
G01X-1885Y-21476D01*
G01X-1542Y-21933D01*
G01X-1714D01*
G01X-1829Y-21991D01*
G01X-1885Y-22047D01*
G01X-1943Y-22220D01*
G01Y-22334D01*
G01X-1885Y-22504D01*
G01X-1770Y-22619D01*
G01X-1600Y-22677D01*
G01X-1427D01*
G01X-1257Y-22619D01*
G01X-1199Y-22563D01*
G01X-1143Y-22449D01*
G01X-2476Y-21763D02*
G01X-2476Y-21704D01*
G01X-2535Y-21590D01*
G01X-2591Y-21534D01*
G01X-2705Y-21476D01*
G01X-2934D01*
G01X-3048Y-21534D01*
G01X-3106Y-21590D01*
G01X-3162Y-21704D01*
G01Y-21819D01*
G01X-3106Y-21933D01*
G01X-2992Y-22106D01*
G01X-2421Y-22677D01*
G01X-3221D01*
G04 //text: +5V*
G54D11*
G01X-1265Y18219D02*
G01X-1265Y17722D01*
G01X-1016Y17971D02*
G01X-1516Y17971D01*
G01X-2111Y18303D02*
G01X-1831Y18303D01*
G01X-1803Y18054D01*
G01X-1831Y18082D01*
G01X-1915Y18110D01*
G01X-1999D01*
G01X-2083Y18082D01*
G01X-2139Y18026D01*
G01X-2167Y17943D01*
G01Y17887D01*
G01X-2139Y17803D01*
G01X-2083Y17747D01*
G01X-1999Y17722D01*
G01X-1915D01*
G01X-1831Y17747D01*
G01X-1803Y17775D01*
G01X-1775Y17831D01*
G01X-2426Y18303D02*
G01X-2649Y17722D01*
G01X-2870Y18303D02*
G01X-2649Y17722D01*
G04 //text: MISO*
G01X1524Y18303D02*
G01X1524Y17722D01*
G01X1524Y18303D02*
G01X1300Y17722D01*
G01X1080Y18303D02*
G01X1300Y17722D01*
G01X1080Y18303D02*
G01X1080Y17722D01*
G01X818Y18303D02*
G01X818Y17722D01*
G01X170Y18219D02*
G01X226Y18275D01*
G01X310Y18303D01*
G01X419D01*
G01X503Y18275D01*
G01X559Y18219D01*
G01Y18166D01*
G01X531Y18110D01*
G01X503Y18082D01*
G01X447Y18054D01*
G01X282Y17998D01*
G01X226Y17971D01*
G01X198Y17943D01*
G01X170Y17887D01*
G01Y17803D01*
G01X226Y17747D01*
G01X310Y17722D01*
G01X419D01*
G01X503Y17747D01*
G01X559Y17803D01*
G01X-257Y18303D02*
G01X-201Y18275D01*
G01X-147Y18219D01*
G01X-119Y18166D01*
G01X-91Y18082D01*
G01Y17943D01*
G01X-119Y17859D01*
G01X-147Y17803D01*
G01X-201Y17747D01*
G01X-257Y17722D01*
G01X-368D01*
G01X-424Y17747D01*
G01X-480Y17803D01*
G01X-508Y17859D01*
G01X-536Y17943D01*
G01Y18082D01*
G01X-508Y18166D01*
G01X-480Y18219D01*
G01X-424Y18275D01*
G01X-368Y18303D01*
G01X-257D01*
G04 //text: MOSI*
G01X-698Y17033D02*
G01X-698Y16452D01*
G01X-698Y17033D02*
G01X-922Y16452D01*
G01X-1143Y17033D02*
G01X-922Y16452D01*
G01X-1143Y17033D02*
G01X-1143Y16452D01*
G01X-1570Y17033D02*
G01X-1514Y17005D01*
G01X-1458Y16949D01*
G01X-1430Y16896D01*
G01X-1405Y16812D01*
G01Y16673D01*
G01X-1430Y16589D01*
G01X-1458Y16533D01*
G01X-1514Y16477D01*
G01X-1570Y16452D01*
G01X-1681D01*
G01X-1737Y16477D01*
G01X-1793Y16533D01*
G01X-1821Y16589D01*
G01X-1849Y16673D01*
G01Y16812D01*
G01X-1821Y16896D01*
G01X-1793Y16949D01*
G01X-1737Y17005D01*
G01X-1681Y17033D01*
G01X-1570D01*
G01X-2497Y16949D02*
G01X-2441Y17005D01*
G01X-2357Y17033D01*
G01X-2248D01*
G01X-2164Y17005D01*
G01X-2108Y16949D01*
G01Y16896D01*
G01X-2136Y16840D01*
G01X-2164Y16812D01*
G01X-2220Y16784D01*
G01X-2385Y16728D01*
G01X-2441Y16701D01*
G01X-2469Y16673D01*
G01X-2497Y16617D01*
G01Y16533D01*
G01X-2441Y16477D01*
G01X-2357Y16452D01*
G01X-2248D01*
G01X-2164Y16477D01*
G01X-2108Y16533D01*
G01X-2758Y17033D02*
G01X-2758Y16452D01*
G04 //text: SCK*
G01X1453Y16949D02*
G01X1509Y17005D01*
G01X1593Y17033D01*
G01X1702D01*
G01X1786Y17005D01*
G01X1842Y16949D01*
G01Y16896D01*
G01X1814Y16840D01*
G01X1786Y16812D01*
G01X1730Y16784D01*
G01X1565Y16728D01*
G01X1509Y16701D01*
G01X1481Y16673D01*
G01X1453Y16617D01*
G01Y16533D01*
G01X1509Y16477D01*
G01X1593Y16452D01*
G01X1702D01*
G01X1786Y16477D01*
G01X1842Y16533D01*
G01X775Y16896D02*
G01X803Y16949D01*
G01X859Y17005D01*
G01X914Y17033D01*
G01X1026D01*
G01X1082Y17005D01*
G01X1135Y16949D01*
G01X1163Y16896D01*
G01X1191Y16812D01*
G01Y16673D01*
G01X1163Y16589D01*
G01X1135Y16533D01*
G01X1082Y16477D01*
G01X1026Y16452D01*
G01X914D01*
G01X859Y16477D01*
G01X803Y16533D01*
G01X775Y16589D01*
G01X516Y17033D02*
G01X516Y16452D01*
G01X127Y17033D02*
G01X516Y16645D01*
G01X376Y16784D02*
G01X127Y16452D01*
G04 //text: GND*
G01X-1433Y15626D02*
G01X-1405Y15679D01*
G01X-1349Y15735D01*
G01X-1293Y15763D01*
G01X-1184D01*
G01X-1128Y15735D01*
G01X-1072Y15679D01*
G01X-1044Y15626D01*
G01X-1016Y15542D01*
G01Y15403D01*
G01X-1044Y15319D01*
G01X-1072Y15263D01*
G01X-1128Y15207D01*
G01X-1184Y15182D01*
G01X-1293D01*
G01X-1349Y15207D01*
G01X-1405Y15263D01*
G01X-1433Y15319D01*
G01Y15403D01*
G01X-1293Y15403D02*
G01X-1433Y15403D01*
G01X-1694Y15763D02*
G01X-1694Y15182D01*
G01X-1694Y15763D02*
G01X-2083Y15182D01*
G01X-2083Y15763D02*
G01X-2083Y15182D01*
G01X-2342Y15763D02*
G01X-2342Y15182D01*
G01X-2342Y15763D02*
G01X-2537Y15763D01*
G01X-2621Y15735D01*
G01X-2675Y15679D01*
G01X-2703Y15626D01*
G01X-2730Y15542D01*
G01Y15403D01*
G01X-2703Y15319D01*
G01X-2675Y15263D01*
G01X-2621Y15207D01*
G01X-2537Y15182D01*
G01X-2342D01*
G04 //text: RST*
G01X1842Y15763D02*
G01X1842Y15182D01*
G01X1842Y15763D02*
G01X1593Y15763D01*
G01X1509Y15735D01*
G01X1481Y15707D01*
G01X1453Y15651D01*
G01Y15598D01*
G01X1481Y15542D01*
G01X1509Y15514D01*
G01X1593Y15486D01*
G01X1842D01*
G01X1646Y15486D02*
G01X1453Y15182D01*
G01X803Y15679D02*
G01X859Y15735D01*
G01X942Y15763D01*
G01X1054D01*
G01X1135Y15735D01*
G01X1191Y15679D01*
G01Y15626D01*
G01X1163Y15570D01*
G01X1135Y15542D01*
G01X1082Y15514D01*
G01X914Y15458D01*
G01X859Y15431D01*
G01X831Y15403D01*
G01X803Y15347D01*
G01Y15263D01*
G01X859Y15207D01*
G01X942Y15182D01*
G01X1054D01*
G01X1135Y15207D01*
G01X1191Y15263D01*
G01X348Y15763D02*
G01X348Y15182D01*
G01X544Y15763D02*
G01X155Y15763D01*
G04 //text: Attiny13*
G54D12*
G01X-2555Y732D02*
G01X-3439Y394D01*
G01X-2555Y732D02*
G01X-3439Y1067D01*
G01X-3145Y521D02*
G01X-3145Y942D01*
G01X-2555Y1547D02*
G01X-3272Y1547D01*
G01X-3396Y1590D01*
G01X-3439Y1674D01*
G01Y1758D01*
G01X-2850Y1422D02*
G01X-2850Y1717D01*
G01X-2555Y2240D02*
G01X-3272Y2240D01*
G01X-3396Y2281D01*
G01X-3439Y2365D01*
G01Y2451D01*
G01X-2850Y2113D02*
G01X-2850Y2408D01*
G01X-2555Y2804D02*
G01X-2596Y2847D01*
G01X-2555Y2888D01*
G01X-2512Y2847D01*
G01X-2555Y2804D01*
G01X-2850Y2847D02*
G01X-3439Y2847D01*
G01X-2850Y3244D02*
G01X-3439Y3244D01*
G01X-3018Y3244D02*
G01X-2891Y3368D01*
G01X-2850Y3454D01*
G01Y3579D01*
G01X-2891Y3663D01*
G01X-3018Y3706D01*
G01X-3439D01*
G01X-2850Y4102D02*
G01X-3439Y4356D01*
G01X-2850Y4608D02*
G01X-3439Y4356D01*
G01X-3607Y4270D01*
G01X-3691Y4186D01*
G01X-3734Y4102D01*
G01Y4059D01*
G01X-2723Y4963D02*
G01X-2680Y5047D01*
G01X-2555Y5171D01*
G01X-3439D01*
G01X-2555Y5611D02*
G01X-2555Y6073D01*
G01X-2891Y5822D01*
G01Y5949D01*
G01X-2934Y6033D01*
G01X-2977Y6073D01*
G01X-3101Y6116D01*
G01X-3185D01*
G01X-3312Y6073D01*
G01X-3396Y5989D01*
G01X-3439Y5865D01*
G01Y5738D01*
G01X-3396Y5611D01*
G01X-3355Y5568D01*
G01X-3272Y5527D01*
G04 //text: MBR130*
G01X2781Y2525D02*
G01X2781Y1641D01*
G01X2781Y2525D02*
G01X2443Y1641D01*
G01X2108Y2525D02*
G01X2443Y1641D01*
G01X2108Y2525D02*
G01X2108Y1641D01*
G01X1753Y2525D02*
G01X1753Y1641D01*
G01X1753Y2525D02*
G01X1374Y2525D01*
G01X1247Y2484D01*
G01X1207Y2441D01*
G01X1163Y2357D01*
G01Y2273D01*
G01X1207Y2189D01*
G01X1247Y2146D01*
G01X1374Y2103D01*
G01X1753Y2103D02*
G01X1374Y2103D01*
G01X1247Y2062D01*
G01X1207Y2019D01*
G01X1163Y1935D01*
G01Y1808D01*
G01X1207Y1725D01*
G01X1247Y1684D01*
G01X1374Y1641D01*
G01X1753D01*
G01X810Y2525D02*
G01X810Y1641D01*
G01X810Y2525D02*
G01X429Y2525D01*
G01X305Y2484D01*
G01X262Y2441D01*
G01X218Y2357D01*
G01Y2273D01*
G01X262Y2189D01*
G01X305Y2146D01*
G01X429Y2103D01*
G01X810D01*
G01X516Y2103D02*
G01X218Y1641D01*
G01X-135Y2357D02*
G01X-218Y2400D01*
G01X-345Y2525D01*
G01Y1641D01*
G01X-785Y2525D02*
G01X-1247Y2525D01*
G01X-993Y2189D01*
G01X-1120D01*
G01X-1204Y2146D01*
G01X-1247Y2103D01*
G01X-1290Y1979D01*
G01Y1895D01*
G01X-1247Y1768D01*
G01X-1163Y1684D01*
G01X-1036Y1641D01*
G01X-909D01*
G01X-785Y1684D01*
G01X-742Y1725D01*
G01X-698Y1808D01*
G01X-1897Y2525D02*
G01X-1770Y2484D01*
G01X-1687Y2357D01*
G01X-1643Y2146D01*
G01Y2019D01*
G01X-1687Y1808D01*
G01X-1770Y1684D01*
G01X-1897Y1641D01*
G01X-1981D01*
G01X-2106Y1684D01*
G01X-2192Y1808D01*
G01X-2233Y2019D01*
G01Y2146D01*
G01X-2192Y2357D01*
G01X-2106Y2484D01*
G01X-1981Y2525D01*
G01X-1897D01*
G04 //text: C1*
G54D13*
G01X8857Y13879D02*
G01X8905Y13975D01*
G01X9002Y14069D01*
G01X9096Y14117D01*
G01X9289D01*
G01X9385Y14069D01*
G01X9479Y13975D01*
G01X9528Y13879D01*
G01X9576Y13734D01*
G01Y13495D01*
G01X9528Y13350D01*
G01X9479Y13256D01*
G01X9385Y13160D01*
G01X9289Y13111D01*
G01X9096D01*
G01X9002Y13160D01*
G01X8905Y13256D01*
G01X8857Y13350D01*
G01X8476Y13927D02*
G01X8379Y13975D01*
G01X8235Y14117D01*
G01Y13111D01*
G04 //text: 10u*
G01X12306Y10772D02*
G01X12210Y10820D01*
G01X12062Y10968D01*
G01Y9944D01*
G01X11382Y10968D02*
G01X11529Y10919D01*
G01X11626Y10772D01*
G01X11676Y10528D01*
G01Y10381D01*
G01X11626Y10137D01*
G01X11529Y9992D01*
G01X11382Y9944D01*
G01X11285D01*
G01X11138Y9992D01*
G01X11041Y10137D01*
G01X10993Y10381D01*
G01Y10528D01*
G01X11041Y10772D01*
G01X11138Y10919D01*
G01X11285Y10968D01*
G01X11382D01*
G01X10605Y10627D02*
G01X10605Y10137D01*
G01X10556Y9992D01*
G01X10460Y9944D01*
G01X10312D01*
G01X10216Y9992D01*
G01X10069Y10137D01*
G01X10069Y10627D02*
G01X10069Y9944D01*
G04 //text: C2*
G01X-1049Y13879D02*
G01X-1001Y13975D01*
G01X-904Y14069D01*
G01X-810Y14117D01*
G01X-617D01*
G01X-521Y14069D01*
G01X-427Y13975D01*
G01X-378Y13879D01*
G01X-330Y13734D01*
G01Y13495D01*
G01X-378Y13350D01*
G01X-427Y13256D01*
G01X-521Y13160D01*
G01X-617Y13111D01*
G01X-810D01*
G01X-904Y13160D01*
G01X-1001Y13256D01*
G01X-1049Y13350D01*
G01X-1478Y13879D02*
G01X-1478Y13927D01*
G01X-1527Y14021D01*
G01X-1575Y14069D01*
G01X-1671Y14117D01*
G01X-1862D01*
G01X-1958Y14069D01*
G01X-2007Y14021D01*
G01X-2055Y13927D01*
G01Y13830D01*
G01X-2007Y13734D01*
G01X-1910Y13592D01*
G01X-1430Y13111D01*
G01X-2103D01*
G04 //text: 10u*
G01X-3470Y11989D02*
G01X-3518Y11892D01*
G01X-3665Y11745D01*
G01X-2642D01*
G01X-3665Y11064D02*
G01X-3617Y11212D01*
G01X-3470Y11308D01*
G01X-3226Y11359D01*
G01X-3078D01*
G01X-2835Y11308D01*
G01X-2690Y11212D01*
G01X-2642Y11064D01*
G01Y10968D01*
G01X-2690Y10820D01*
G01X-2835Y10724D01*
G01X-3078Y10676D01*
G01X-3226D01*
G01X-3470Y10724D01*
G01X-3617Y10820D01*
G01X-3665Y10968D01*
G01Y11064D01*
G01X-3325Y10287D02*
G01X-2835Y10287D01*
G01X-2690Y10239D01*
G01X-2642Y10142D01*
G01Y9995D01*
G01X-2690Y9898D01*
G01X-2835Y9751D01*
G01X-3325Y9751D02*
G01X-2642Y9751D01*
G04 //text: L1*
G01X10846Y6878D02*
G01X10846Y5872D01*
G01X10846Y5872D02*
G01X10272Y5872D01*
G01X9888Y6688D02*
G01X9792Y6736D01*
G01X9649Y6878D01*
G01Y5872D01*
G04 //text: R1*
G01X-2108Y8148D02*
G01X-2108Y7142D01*
G01X-2108Y8148D02*
G01X-2540Y8148D01*
G01X-2682Y8100D01*
G01X-2730Y8052D01*
G01X-2779Y7958D01*
G01Y7861D01*
G01X-2730Y7765D01*
G01X-2682Y7717D01*
G01X-2540Y7671D01*
G01X-2108D01*
G01X-2443Y7671D02*
G01X-2779Y7142D01*
G01X-3162Y7958D02*
G01X-3256Y8006D01*
G01X-3401Y8148D01*
G01Y7142D01*
G04 //text: 14.7k*
G01X-3886Y8550D02*
G01X-3983Y8598D01*
G01X-4130Y8745D01*
G01Y7722D01*
G01X-5006Y8745D02*
G01X-4516Y8062D01*
G01X-5250D01*
G01X-5006Y8745D02*
G01X-5006Y7722D01*
G01X-5685Y7965D02*
G01X-5636Y7915D01*
G01X-5685Y7866D01*
G01X-5733Y7915D01*
G01X-5685Y7965D01*
G01X-6805Y8745D02*
G01X-6314Y7722D01*
G01X-6121Y8745D02*
G01X-6805Y8745D01*
G01X-7191Y8745D02*
G01X-7191Y7722D01*
G01X-7678Y8405D02*
G01X-7191Y7915D01*
G01X-7386Y8110D02*
G01X-7727Y7722D01*
G04 //text: R2*
G01X2210Y14117D02*
G01X2210Y13111D01*
G01X2210Y14117D02*
G01X1778Y14117D01*
G01X1636Y14069D01*
G01X1588Y14021D01*
G01X1539Y13927D01*
G01Y13830D01*
G01X1588Y13734D01*
G01X1636Y13686D01*
G01X1778Y13640D01*
G01X2210D01*
G01X1875Y13640D02*
G01X1539Y13111D01*
G01X1110Y13879D02*
G01X1110Y13927D01*
G01X1062Y14021D01*
G01X1013Y14069D01*
G01X917Y14117D01*
G01X726D01*
G01X630Y14069D01*
G01X582Y14021D01*
G01X533Y13927D01*
G01Y13830D01*
G01X582Y13734D01*
G01X678Y13592D01*
G01X1156Y13111D01*
G01X485D01*
G04 //text: 2k*
G01X4956Y15804D02*
G01X4956Y15852D01*
G01X4907Y15951D01*
G01X4856Y15999D01*
G01X4760Y16048D01*
G01X4564D01*
G01X4468Y15999D01*
G01X4417Y15951D01*
G01X4369Y15852D01*
G01Y15756D01*
G01X4417Y15657D01*
G01X4516Y15512D01*
G01X5004Y15024D01*
G01X4321D01*
G01X3934Y16048D02*
G01X3934Y15024D01*
G01X3444Y15707D02*
G01X3934Y15217D01*
G01X3739Y15413D02*
G01X3396Y15024D01*
G04 //text: U2*
G01X6020Y14117D02*
G01X6020Y13399D01*
G01X5972Y13256D01*
G01X5875Y13160D01*
G01X5733Y13111D01*
G01X5636D01*
G01X5494Y13160D01*
G01X5398Y13256D01*
G01X5349Y13399D01*
G01Y14117D01*
G01X4920Y13879D02*
G01X4920Y13927D01*
G01X4872Y14021D01*
G01X4823Y14069D01*
G01X4727Y14117D01*
G01X4536D01*
G01X4440Y14069D01*
G01X4392Y14021D01*
G01X4343Y13927D01*
G01Y13830D01*
G01X4392Y13734D01*
G01X4488Y13592D01*
G01X4966Y13111D01*
G01X4295D01*
G04 //text: D3*
G01X940Y3703D02*
G01X940Y2697D01*
G01X940Y3703D02*
G01X605Y3703D01*
G01X460Y3655D01*
G01X366Y3561D01*
G01X318Y3465D01*
G01X269Y3320D01*
G01Y3081D01*
G01X318Y2936D01*
G01X366Y2842D01*
G01X460Y2746D01*
G01X605Y2697D01*
G01X940D01*
G01X-208Y3703D02*
G01X-737Y3703D01*
G01X-450Y3320D01*
G01X-592D01*
G01X-688Y3272D01*
G01X-737Y3226D01*
G01X-785Y3081D01*
G01Y2985D01*
G01X-737Y2842D01*
G01X-640Y2746D01*
G01X-495Y2697D01*
G01X-353D01*
G01X-208Y2746D01*
G01X-160Y2794D01*
G01X-114Y2888D01*
G04 //text: C4*
G01X-12860Y5624D02*
G01X-12812Y5720D01*
G01X-12715Y5814D01*
G01X-12621Y5862D01*
G01X-12428D01*
G01X-12332Y5814D01*
G01X-12238Y5720D01*
G01X-12189Y5624D01*
G01X-12141Y5479D01*
G01Y5240D01*
G01X-12189Y5095D01*
G01X-12238Y5001D01*
G01X-12332Y4905D01*
G01X-12428Y4856D01*
G01X-12621D01*
G01X-12715Y4905D01*
G01X-12812Y5001D01*
G01X-12860Y5095D01*
G01X-13721Y5862D02*
G01X-13241Y5192D01*
G01X-13960D01*
G01X-13721Y5862D02*
G01X-13721Y4856D01*
G04 //text: 0.1u*
G01X-12433Y4300D02*
G01X-12289Y4252D01*
G01X-12189Y4105D01*
G01X-12141Y3861D01*
G01Y3713D01*
G01X-12189Y3470D01*
G01X-12289Y3325D01*
G01X-12433Y3277D01*
G01X-12532D01*
G01X-12677Y3325D01*
G01X-12776Y3470D01*
G01X-12824Y3713D01*
G01Y3861D01*
G01X-12776Y4105D01*
G01X-12677Y4252D01*
G01X-12532Y4300D01*
G01X-12433D01*
G01X-13261Y3520D02*
G01X-13211Y3470D01*
G01X-13261Y3421D01*
G01X-13310Y3470D01*
G01X-13261Y3520D01*
G01X-13696Y4105D02*
G01X-13792Y4153D01*
G01X-13940Y4300D01*
G01Y3277D01*
G01X-14326Y3960D02*
G01X-14326Y3470D01*
G01X-14376Y3325D01*
G01X-14473Y3277D01*
G01X-14620D01*
G01X-14717Y3325D01*
G01X-14864Y3470D01*
G01X-14864Y3960D02*
G01X-14864Y3277D01*
G04 //text: C5*
G01X-16660Y-6583D02*
G01X-16767Y-6575D01*
G01X-16891Y-6522D01*
G01X-16972Y-6454D01*
G01X-17045Y-6275D01*
G01X-17038Y-6168D01*
G01X-16987Y-6045D01*
G01X-16916Y-5964D01*
G01X-16801Y-5864D01*
G01X-16580Y-5772D01*
G01X-16428Y-5761D01*
G01X-16323Y-5770D01*
G01X-16198Y-5820D01*
G01X-16116Y-5891D01*
G01X-16042Y-6069D01*
G01X-16051Y-6174D01*
G01X-16103Y-6300D01*
G01X-16172Y-6381D01*
G01X-16514Y-7559D02*
G01X-16697Y-7116D01*
G01X-16317Y-6906D01*
G01X-16343Y-6969D01*
G01X-16332Y-7121D01*
G01X-16278Y-7252D01*
G01X-16178Y-7368D01*
G01X-16054Y-7421D01*
G01X-15902Y-7410D01*
G01X-15813Y-7373D01*
G01X-15700Y-7274D01*
G01X-15648Y-7148D01*
G01X-15658Y-6996D01*
G01X-15713Y-6864D01*
G01X-15813Y-6749D01*
G01X-15876Y-6723D01*
G01X-15981Y-6714D01*
G04 //text: 0.1u*
G01X-15797Y-5020D02*
G01X-15808Y-4868D01*
G01X-15710Y-4720D01*
G01X-15503Y-4582D01*
G01X-15367Y-4525D01*
G01X-15123Y-4477D01*
G01X-14951Y-4513D01*
G01X-14851Y-4628D01*
G01X-14813Y-4720D01*
G01X-14803Y-4872D01*
G01X-14898Y-5019D01*
G01X-15105Y-5157D01*
G01X-15241Y-5213D01*
G01X-15485Y-5262D01*
G01X-15659Y-5227D01*
G01X-15759Y-5111D01*
G01X-15797Y-5020D01*
G01X-14760Y-5486D02*
G01X-14732Y-5420D01*
G01X-14668Y-5449D01*
G01X-14694Y-5512D01*
G01X-14760Y-5486D01*
G01X-15133Y-6111D02*
G01X-15141Y-6219D01*
G01X-15221Y-6411D01*
G01X-14275Y-6020D01*
G01X-14758Y-6638D02*
G01X-14305Y-6450D01*
G01X-14152Y-6442D01*
G01X-14071Y-6513D01*
G01X-14014Y-6649D01*
G01X-14022Y-6756D01*
G01X-14099Y-6948D01*
G01X-14552Y-7135D02*
G01X-13921Y-6874D01*
G04 //text: C6*
G01X16633Y-6702D02*
G01X16704Y-6783D01*
G01X16754Y-6908D01*
G01X16762Y-7013D01*
G01X16688Y-7192D01*
G01X16607Y-7263D01*
G01X16484Y-7313D01*
G01X16376Y-7321D01*
G01X16224Y-7310D01*
G01X16004Y-7219D01*
G01X15888Y-7119D01*
G01X15820Y-7038D01*
G01X15767Y-6915D01*
G01X15759Y-6807D01*
G01X15833Y-6629D01*
G01X15914Y-6560D01*
G01X16040Y-6508D01*
G01X16145Y-6499D01*
G01X17089Y-5854D02*
G01X17157Y-5934D01*
G01X17146Y-6087D01*
G01X17110Y-6173D01*
G01X17010Y-6289D01*
G01X16842Y-6323D01*
G01X16601Y-6276D01*
G01X16380Y-6184D01*
G01X16222Y-6067D01*
G01X16170Y-5941D01*
G01X16181Y-5788D01*
G01X16199Y-5746D01*
G01X16298Y-5631D01*
G01X16425Y-5579D01*
G01X16574Y-5589D01*
G01X16619Y-5607D01*
G01X16734Y-5707D01*
G01X16784Y-5832D01*
G01X16773Y-5984D01*
G01X16756Y-6027D01*
G01X16656Y-6142D01*
G01X16532Y-6195D01*
G01X16380Y-6184D01*
G04 //text: 0.1u*
G01X15126Y-7197D02*
G01X15026Y-7312D01*
G01X14852Y-7347D01*
G01X14609Y-7299D01*
G01X14472Y-7242D01*
G01X14266Y-7104D01*
G01X14170Y-6957D01*
G01X14181Y-6805D01*
G01X14219Y-6714D01*
G01X14319Y-6598D01*
G01X14490Y-6562D01*
G01X14734Y-6611D01*
G01X14870Y-6667D01*
G01X15077Y-6805D01*
G01X15175Y-6953D01*
G01X15164Y-7105D01*
G01X15126Y-7197D01*
G01X14723Y-6133D02*
G01X14656Y-6161D01*
G01X14631Y-6096D01*
G01X14694Y-6069D01*
G01X14723Y-6133D01*
G01X15429Y-5956D02*
G01X15510Y-5885D01*
G01X15703Y-5805D01*
G01X14757Y-5414D01*
G01X15536Y-5318D02*
G01X15083Y-5131D01*
G01X14969Y-5028D01*
G01X14961Y-4921D01*
G01X15018Y-4785D01*
G01X15099Y-4714D01*
G01X15289Y-4633D01*
G01X15742Y-4821D02*
G01X15111Y-4559D01*
G04 //text: C3*
G01X-11511Y13684D02*
G01X-11537Y13788D01*
G01X-11525Y13923D01*
G01X-11485Y14020D01*
G01X-11338Y14146D01*
G01X-11233Y14172D01*
G01X-11101Y14161D01*
G01X-11001Y14119D01*
G01X-10871Y14040D01*
G01X-10716Y13859D01*
G01X-10658Y13717D01*
G01X-10634Y13615D01*
G01X-10643Y13480D01*
G01X-10685Y13381D01*
G01X-10832Y13255D01*
G01X-10934Y13231D01*
G01X-11070Y13242D01*
G01X-11168Y13282D01*
G01X-12029Y13555D02*
G01X-12431Y13212D01*
G01X-11962Y13108D01*
G01X-12072Y13014D01*
G01X-12114Y12915D01*
G01X-12121Y12849D01*
G01X-12064Y12707D01*
G01X-12001Y12634D01*
G01X-11872Y12557D01*
G01X-11736Y12546D01*
G01X-11595Y12604D01*
G01X-11486Y12696D01*
G01X-11408Y12827D01*
G01X-11402Y12895D01*
G01X-11427Y12998D01*
G04 //text: 0.1u*
G01X-13282Y12605D02*
G01X-13141Y12663D01*
G01X-12970Y12615D01*
G01X-12775Y12461D01*
G01X-12679Y12349D01*
G01X-12557Y12132D01*
G01X-12538Y11958D01*
G01X-12617Y11827D01*
G01X-12693Y11763D01*
G01X-12834Y11705D01*
G01X-13003Y11751D01*
G01X-13198Y11905D01*
G01X-13294Y12017D01*
G01X-13416Y12234D01*
G01X-13436Y12410D01*
G01X-13357Y12541D01*
G01X-13282Y12605D01*
G01X-13405Y11475D02*
G01X-13334Y11469D01*
G01X-13341Y11399D01*
G01X-13409Y11405D01*
G01X-13405Y11475D01*
G01X-14115Y11637D02*
G01X-14220Y11611D01*
G01X-14427Y11627D01*
G01X-13763Y10849D01*
G01X-14500Y11118D02*
G01X-14182Y10745D01*
G01X-14126Y10602D01*
G01X-14168Y10502D01*
G01X-14280Y10407D01*
G01X-14385Y10381D01*
G01X-14591Y10395D01*
G01X-14909Y10768D02*
G01X-14466Y10248D01*
G04 //text: C7*
G01X10373Y17295D02*
G01X10472Y17338D01*
G01X10607Y17346D01*
G01X10709Y17322D01*
G01X10856Y17197D01*
G01X10898Y17097D01*
G01X10909Y16965D01*
G01X10883Y16860D01*
G01X10825Y16719D01*
G01X10670Y16537D01*
G01X10540Y16458D01*
G01X10442Y16418D01*
G01X10308Y16406D01*
G01X10203Y16432D01*
G01X10056Y16557D01*
G01X10016Y16655D01*
G01X10005Y16791D01*
G01X10030Y16894D01*
G01X9726Y18162D02*
G01X9438Y17085D01*
G01X10238Y17724D02*
G01X9726Y18162D01*
G04 //text: 0.1u*
G01X9864Y15941D02*
G01X9943Y15811D01*
G01X9923Y15634D01*
G01X9801Y15417D01*
G01X9705Y15305D01*
G01X9510Y15151D01*
G01X9341Y15106D01*
G01X9200Y15163D01*
G01X9124Y15227D01*
G01X9046Y15358D01*
G01X9064Y15532D01*
G01X9186Y15749D01*
G01X9282Y15861D01*
G01X9477Y16015D01*
G01X9648Y16063D01*
G01X9789Y16006D01*
G01X9864Y15941D01*
G01X8728Y15886D02*
G01X8734Y15814D01*
G01X8664Y15811D01*
G01X8659Y15879D01*
G01X8728Y15886D01*
G01X8777Y16612D02*
G01X8735Y16712D01*
G01X8719Y16919D01*
G01X8054Y16141D01*
G01X8204Y16911D02*
G01X7886Y16539D01*
G01X7753Y16462D01*
G01X7649Y16488D01*
G01X7537Y16583D01*
G01X7495Y16683D01*
G01X7477Y16888D01*
G01X7795Y17261D02*
G01X7351Y16742D01*
G04 //text: SI2323*
G01X18385Y-2047D02*
G01X18468Y-1961D01*
G01X18595Y-1920D01*
G01X18763D01*
G01X18890Y-1961D01*
G01X18974Y-2047D01*
G01Y-2131D01*
G01X18931Y-2215D01*
G01X18890Y-2256D01*
G01X18806Y-2299D01*
G01X18552Y-2383D01*
G01X18468Y-2426D01*
G01X18425Y-2466D01*
G01X18385Y-2550D01*
G01Y-2677D01*
G01X18468Y-2761D01*
G01X18595Y-2804D01*
G01X18763D01*
G01X18890Y-2761D01*
G01X18974Y-2677D01*
G01X18029Y-1920D02*
G01X18029Y-2804D01*
G01X17633Y-2131D02*
G01X17633Y-2088D01*
G01X17592Y-2004D01*
G01X17549Y-1961D01*
G01X17465Y-1920D01*
G01X17297D01*
G01X17211Y-1961D01*
G01X17170Y-2004D01*
G01X17127Y-2088D01*
G01Y-2172D01*
G01X17170Y-2256D01*
G01X17254Y-2383D01*
G01X17676Y-2804D01*
G01X17087D01*
G01X16647Y-1920D02*
G01X16182Y-1920D01*
G01X16436Y-2256D01*
G01X16309D01*
G01X16226Y-2299D01*
G01X16182Y-2342D01*
G01X16142Y-2466D01*
G01Y-2550D01*
G01X16182Y-2677D01*
G01X16269Y-2761D01*
G01X16393Y-2804D01*
G01X16520D01*
G01X16647Y-2761D01*
G01X16688Y-2720D01*
G01X16731Y-2637D01*
G01X15745Y-2131D02*
G01X15745Y-2088D01*
G01X15702Y-2004D01*
G01X15662Y-1961D01*
G01X15575Y-1920D01*
G01X15408D01*
G01X15324Y-1961D01*
G01X15281Y-2004D01*
G01X15240Y-2088D01*
G01Y-2172D01*
G01X15281Y-2256D01*
G01X15367Y-2383D01*
G01X15786Y-2804D01*
G01X15197D01*
G01X14757Y-1920D02*
G01X14295Y-1920D01*
G01X14549Y-2256D01*
G01X14422D01*
G01X14338Y-2299D01*
G01X14295Y-2342D01*
G01X14254Y-2466D01*
G01Y-2550D01*
G01X14295Y-2677D01*
G01X14379Y-2761D01*
G01X14506Y-2804D01*
G01X14633D01*
G01X14757Y-2761D01*
G01X14801Y-2720D01*
G01X14844Y-2637D01*
G04 //text: Q1*
G01X13480Y-2012D02*
G01X13576Y-2060D01*
G01X13670Y-2154D01*
G01X13719Y-2250D01*
G01X13767Y-2395D01*
G01Y-2634D01*
G01X13719Y-2779D01*
G01X13670Y-2873D01*
G01X13576Y-2969D01*
G01X13480Y-3018D01*
G01X13287D01*
G01X13193Y-2969D01*
G01X13096Y-2873D01*
G01X13048Y-2779D01*
G01X13000Y-2634D01*
G01Y-2395D01*
G01X13048Y-2250D01*
G01X13096Y-2154D01*
G01X13193Y-2060D01*
G01X13287Y-2012D01*
G01X13480D01*
G01X13335Y-2827D02*
G01X13048Y-3114D01*
G01X12619Y-2202D02*
G01X12522Y-2154D01*
G01X12377Y-2012D01*
G01Y-3018D01*
G04 //text: R3*
G01X10690Y-2388D02*
G01X10690Y-3393D01*
G01X10690Y-2388D02*
G01X10258Y-2388D01*
G01X10116Y-2436D01*
G01X10067Y-2484D01*
G01X10019Y-2578D01*
G01Y-2675D01*
G01X10067Y-2771D01*
G01X10116Y-2819D01*
G01X10258Y-2865D01*
G01X10690D01*
G01X10354Y-2865D02*
G01X10019Y-3393D01*
G01X9541Y-2388D02*
G01X9013Y-2388D01*
G01X9300Y-2771D01*
G01X9158D01*
G01X9061Y-2819D01*
G01X9013Y-2865D01*
G01X8965Y-3010D01*
G01Y-3106D01*
G01X9013Y-3249D01*
G01X9110Y-3345D01*
G01X9254Y-3393D01*
G01X9397D01*
G01X9541Y-3345D01*
G01X9590Y-3297D01*
G01X9635Y-3203D01*
G04 //text: 100k*
G01X11354Y-4150D02*
G01X11257Y-4102D01*
G01X11110Y-3955D01*
G01Y-4978D01*
G01X10429Y-3955D02*
G01X10577Y-4003D01*
G01X10673Y-4150D01*
G01X10724Y-4394D01*
G01Y-4542D01*
G01X10673Y-4785D01*
G01X10577Y-4930D01*
G01X10429Y-4978D01*
G01X10333D01*
G01X10185Y-4930D01*
G01X10089Y-4785D01*
G01X10041Y-4542D01*
G01Y-4394D01*
G01X10089Y-4150D01*
G01X10185Y-4003D01*
G01X10333Y-3955D01*
G01X10429D01*
G01X9360Y-3955D02*
G01X9507Y-4003D01*
G01X9604Y-4150D01*
G01X9652Y-4394D01*
G01Y-4542D01*
G01X9604Y-4785D01*
G01X9507Y-4930D01*
G01X9360Y-4978D01*
G01X9263D01*
G01X9116Y-4930D01*
G01X9017Y-4785D01*
G01X8969Y-4542D01*
G01Y-4394D01*
G01X9017Y-4150D01*
G01X9116Y-4003D01*
G01X9263Y-3955D01*
G01X9360D01*
G01X8583Y-3955D02*
G01X8583Y-4978D01*
G01X8095Y-4295D02*
G01X8583Y-4785D01*
G01X8387Y-4590D02*
G01X8047Y-4978D01*
G04 //text: R4*
G01X11086Y3854D02*
G01X11086Y2848D01*
G01X11086Y3854D02*
G01X10654Y3854D01*
G01X10512Y3806D01*
G01X10464Y3758D01*
G01X10415Y3664D01*
G01Y3567D01*
G01X10464Y3471D01*
G01X10512Y3423D01*
G01X10654Y3377D01*
G01X11086D01*
G01X10751Y3377D02*
G01X10415Y2848D01*
G01X9554Y3854D02*
G01X10032Y3184D01*
G01X9313D01*
G01X9554Y3854D02*
G01X9554Y2848D01*
G04 //text: 1k*
G01X13894Y5375D02*
G01X13797Y5423D01*
G01X13650Y5570D01*
G01Y4547D01*
G01X13264Y5570D02*
G01X13264Y4547D01*
G01X12774Y5230D02*
G01X13264Y4740D01*
G01X13068Y4935D02*
G01X12725Y4547D01*
G04 //text: ICSP*
G01X-9601Y9629D02*
G01X-9601Y8418D01*
G01X-10897Y9342D02*
G01X-10838Y9456D01*
G01X-10724Y9573D01*
G01X-10607Y9629D01*
G01X-10376D01*
G01X-10262Y9573D01*
G01X-10147Y9456D01*
G01X-10089Y9342D01*
G01X-10030Y9169D01*
G01Y8880D01*
G01X-10089Y8707D01*
G01X-10147Y8590D01*
G01X-10262Y8476D01*
G01X-10376Y8418D01*
G01X-10607D01*
G01X-10724Y8476D01*
G01X-10838Y8590D01*
G01X-10897Y8707D01*
G01X-12134Y9456D02*
G01X-12019Y9573D01*
G01X-11847Y9629D01*
G01X-11615D01*
G01X-11443Y9573D01*
G01X-11326Y9456D01*
G01Y9342D01*
G01X-11384Y9225D01*
G01X-11443Y9169D01*
G01X-11557Y9111D01*
G01X-11905Y8994D01*
G01X-12019Y8938D01*
G01X-12078Y8880D01*
G01X-12134Y8766D01*
G01Y8590D01*
G01X-12019Y8476D01*
G01X-11847Y8418D01*
G01X-11615D01*
G01X-11443Y8476D01*
G01X-11326Y8590D01*
G01X-12565Y9629D02*
G01X-12565Y8418D01*
G01X-12565Y9629D02*
G01X-13084Y9629D01*
G01X-13256Y9573D01*
G01X-13315Y9515D01*
G01X-13373Y9401D01*
G01Y9225D01*
G01X-13315Y9111D01*
G01X-13256Y9053D01*
G01X-13084Y8994D01*
G01X-12565D01*
G04 //text: BAT1*
G01X5956Y-178D02*
G01X5956Y-1179D01*
G01X5956Y-178D02*
G01X5527Y-178D01*
G01X5385Y-226D01*
G01X5337Y-274D01*
G01X5288Y-368D01*
G01Y-465D01*
G01X5337Y-559D01*
G01X5385Y-607D01*
G01X5527Y-655D01*
G01X5956Y-655D02*
G01X5527Y-655D01*
G01X5385Y-701D01*
G01X5337Y-749D01*
G01X5288Y-846D01*
G01Y-988D01*
G01X5337Y-1082D01*
G01X5385Y-1130D01*
G01X5527Y-1179D01*
G01X5956D01*
G01X4526Y-178D02*
G01X4907Y-1179D01*
G01X4526Y-178D02*
G01X4145Y-1179D01*
G01X4765Y-846D02*
G01X4290Y-846D01*
G01X3432Y-178D02*
G01X3432Y-1179D01*
G01X3764Y-178D02*
G01X3099Y-178D01*
G01X2718Y-368D02*
G01X2621Y-320D01*
G01X2479Y-178D01*
G01Y-1179D01*
G04 //text: SW3*
G01X-16619Y4760D02*
G01X-16523Y4854D01*
G01X-16380Y4902D01*
G01X-16190D01*
G01X-16048Y4854D01*
G01X-15951Y4760D01*
G01Y4663D01*
G01X-15999Y4569D01*
G01X-16048Y4521D01*
G01X-16142Y4473D01*
G01X-16429Y4379D01*
G01X-16523Y4331D01*
G01X-16571Y4282D01*
G01X-16619Y4188D01*
G01Y4044D01*
G01X-16523Y3950D01*
G01X-16380Y3901D01*
G01X-16190D01*
G01X-16048Y3950D01*
G01X-15951Y4044D01*
G01X-17000Y4902D02*
G01X-17236Y3901D01*
G01X-17475Y4902D02*
G01X-17236Y3901D01*
G01X-17475Y4902D02*
G01X-17714Y3901D01*
G01X-17953Y4902D02*
G01X-17714Y3901D01*
G01X-18428Y4902D02*
G01X-18951Y4902D01*
G01X-18666Y4521D01*
G01X-18809D01*
G01X-18905Y4473D01*
G01X-18951Y4425D01*
G01X-18999Y4282D01*
G01Y4188D01*
G01X-18951Y4044D01*
G01X-18857Y3950D01*
G01X-18715Y3901D01*
G01X-18570D01*
G01X-18428Y3950D01*
G01X-18379Y3998D01*
G01X-18334Y4092D01*
G04 //text: SW1*
G01X19258Y4760D02*
G01X19355Y4854D01*
G01X19497Y4902D01*
G01X19688D01*
G01X19830Y4854D01*
G01X19926Y4760D01*
G01Y4663D01*
G01X19878Y4569D01*
G01X19830Y4521D01*
G01X19736Y4473D01*
G01X19449Y4379D01*
G01X19355Y4331D01*
G01X19307Y4282D01*
G01X19258Y4188D01*
G01Y4044D01*
G01X19355Y3950D01*
G01X19497Y3901D01*
G01X19688D01*
G01X19830Y3950D01*
G01X19926Y4044D01*
G01X18877Y4902D02*
G01X18641Y3901D01*
G01X18402Y4902D02*
G01X18641Y3901D01*
G01X18402Y4902D02*
G01X18164Y3901D01*
G01X17925Y4902D02*
G01X18164Y3901D01*
G01X17544Y4712D02*
G01X17450Y4760D01*
G01X17308Y4902D01*
G01Y3901D01*
G04 //text: LED1*
G01X-20012Y-12026D02*
G01X-19084Y-11653D01*
G01X-19084Y-11653D02*
G01X-18871Y-12183D01*
G01X-19657Y-12910D02*
G01X-18729Y-12537D01*
G01X-19657Y-12910D02*
G01X-19426Y-13485D01*
G01X-19214Y-12732D02*
G01X-19072Y-13086D01*
G01X-18729Y-12537D02*
G01X-18498Y-13112D01*
G01X-19284Y-13839D02*
G01X-18356Y-13466D01*
G01X-19284Y-13839D02*
G01X-19160Y-14147D01*
G01X-19063Y-14261D01*
G01X-18939Y-14316D01*
G01X-18832Y-14325D01*
G01X-18683Y-14314D01*
G01X-18461Y-14225D01*
G01X-18346Y-14130D01*
G01X-18275Y-14049D01*
G01X-18223Y-13924D01*
G01X-18232Y-13774D01*
G01X-18356Y-13466D01*
G01X-18718Y-14739D02*
G01X-18726Y-14846D01*
G01X-18805Y-15031D01*
G01X-17877Y-14658D01*
G04 //text: LED2*
G01X-18159Y9677D02*
G01X-17234Y9294D01*
G01X-17234Y9294D02*
G01X-17453Y8766D01*
G01X-18524Y8798D02*
G01X-17599Y8414D01*
G01X-18524Y8798D02*
G01X-18761Y8225D01*
G01X-18083Y8615D02*
G01X-18229Y8263D01*
G01X-17599Y8414D02*
G01X-17837Y7842D01*
G01X-18907Y7873D02*
G01X-17983Y7490D01*
G01X-18907Y7873D02*
G01X-19035Y7566D01*
G01X-19045Y7416D01*
G01X-18995Y7291D01*
G01X-18924Y7209D01*
G01X-18810Y7113D01*
G01X-18590Y7021D01*
G01X-18441Y7009D01*
G01X-18333Y7016D01*
G01X-18210Y7069D01*
G01X-18110Y7182D01*
G01X-17983Y7490D01*
G01X-19106Y6771D02*
G01X-19151Y6789D01*
G01X-19256Y6780D01*
G01X-19319Y6754D01*
G01X-19400Y6686D01*
G01X-19473Y6510D01*
G01X-19465Y6402D01*
G01X-19438Y6342D01*
G01X-19370Y6261D01*
G01X-19281Y6224D01*
G01X-19175Y6233D01*
G01X-19008Y6265D01*
G01X-18384Y6523D01*
G01X-18640Y5906D01*
G04 //text: LED3*
G01X-14943Y13723D02*
G01X-14293Y12962D01*
G01X-14293Y12962D02*
G01X-14728Y12591D01*
G01X-15668Y13105D02*
G01X-15018Y12343D01*
G01X-15668Y13105D02*
G01X-16139Y12703D01*
G01X-15358Y12742D02*
G01X-15647Y12494D01*
G01X-15018Y12343D02*
G01X-15490Y11941D01*
G01X-16429Y12455D02*
G01X-15779Y11694D01*
G01X-16429Y12455D02*
G01X-16682Y12239D01*
G01X-16759Y12110D01*
G01X-16771Y11976D01*
G01X-16745Y11871D01*
G01X-16688Y11734D01*
G01X-16533Y11552D01*
G01X-16406Y11473D01*
G01X-16306Y11431D01*
G01X-16172Y11422D01*
G01X-16032Y11478D01*
G01X-15779Y11694D01*
G01X-17298Y11713D02*
G01X-17696Y11374D01*
G01X-17233Y11269D01*
G01X-17341Y11176D01*
G01X-17381Y11079D01*
G01X-17387Y11011D01*
G01X-17331Y10871D01*
G01X-17270Y10800D01*
G01X-17139Y10721D01*
G01X-17007Y10710D01*
G01X-16865Y10767D01*
G01X-16757Y10860D01*
G01X-16680Y10989D01*
G01X-16675Y11057D01*
G01X-16699Y11160D01*
G04 //text: LED4*
G01X550Y21038D02*
G01X783Y20065D01*
G01X783Y20065D02*
G01X227Y19932D01*
G01X-376Y20816D02*
G01X-143Y19843D01*
G01X-376Y20816D02*
G01X-979Y20672D01*
G01X-265Y20352D02*
G01X-636Y20263D01*
G01X-143Y19843D02*
G01X-746Y19699D01*
G01X-1349Y20583D02*
G01X-1116Y19610D01*
G01X-1349Y20583D02*
G01X-1673Y20506D01*
G01X-1800Y20426D01*
G01X-1872Y20312D01*
G01X-1897Y20207D01*
G01X-1908Y20058D01*
G01X-1852Y19826D01*
G01X-1775Y19698D01*
G01X-1705Y19615D01*
G01X-1590Y19546D01*
G01X-1440Y19533D01*
G01X-1116Y19610D01*
G01X-2832Y20228D02*
G01X-2212Y19690D01*
G01X-2908Y19523D01*
G01X-2832Y20228D02*
G01X-2598Y19255D01*
G04 //text: LED5*
G01X6288Y19168D02*
G01X6054Y18195D01*
G01X6054Y18195D02*
G01X5498Y18329D01*
G01X5362Y19391D02*
G01X5128Y18418D01*
G01X5362Y19391D02*
G01X4760Y19536D01*
G01X5250Y18927D02*
G01X4880Y19016D01*
G01X5128Y18418D02*
G01X4526Y18563D01*
G01X4389Y19625D02*
G01X4155Y18652D01*
G01X4389Y19625D02*
G01X4066Y19703D01*
G01X3916Y19690D01*
G01X3800Y19621D01*
G01X3731Y19538D01*
G01X3653Y19411D01*
G01X3597Y19179D01*
G01X3608Y19030D01*
G01X3633Y18925D01*
G01X3705Y18811D01*
G01X3832Y18730D01*
G01X4155Y18652D01*
G01X2816Y20004D02*
G01X3278Y19893D01*
G01X3224Y19464D01*
G01X3189Y19523D01*
G01X3062Y19603D01*
G01X2924Y19636D01*
G01X2771Y19623D01*
G01X2658Y19551D01*
G01X2577Y19424D01*
G01X2555Y19333D01*
G01X2568Y19181D01*
G01X2638Y19067D01*
G01X2767Y18987D01*
G01X2906Y18953D01*
G01X3055Y18967D01*
G01X3113Y19002D01*
G01X3182Y19083D01*
G04 //text: LED6*
G01X13241Y12551D02*
G01X12590Y11790D01*
G01X12590Y11790D02*
G01X12156Y12162D01*
G01X12517Y13170D02*
G01X11866Y12409D01*
G01X12517Y13170D02*
G01X12046Y13573D01*
G01X12206Y12807D02*
G01X11917Y13055D01*
G01X11866Y12409D02*
G01X11395Y12812D01*
G01X11756Y13820D02*
G01X11106Y13060D01*
G01X11756Y13820D02*
G01X11503Y14037D01*
G01X11364Y14092D01*
G01X11229Y14084D01*
G01X11130Y14042D01*
G01X11003Y13963D01*
G01X10848Y13782D01*
G01X10790Y13644D01*
G01X10764Y13539D01*
G01X10776Y13405D01*
G01X10853Y13276D01*
G01X11106Y13060D01*
G01X10434Y14764D02*
G01X10530Y14805D01*
G01X10671Y14748D01*
G01X10743Y14687D01*
G01X10819Y14558D01*
G01X10800Y14387D01*
G01X10682Y14174D01*
G01X10527Y13993D01*
G01X10366Y13879D01*
G01X10232Y13871D01*
G01X10092Y13926D01*
G01X10056Y13958D01*
G01X9979Y14087D01*
G01X9969Y14219D01*
G01X10026Y14361D01*
G01X10056Y14395D01*
G01X10186Y14474D01*
G01X10319Y14485D01*
G01X10458Y14429D01*
G01X10495Y14397D01*
G01X10572Y14268D01*
G01X10584Y14134D01*
G01X10527Y13993D01*
G04 //text: LED7*
G01X19371Y6324D02*
G01X18446Y5942D01*
G01X18446Y5942D02*
G01X18228Y6470D01*
G01X19007Y7204D02*
G01X18082Y6822D01*
G01X19007Y7204D02*
G01X18770Y7777D01*
G01X18566Y7022D02*
G01X18420Y7374D01*
G01X18082Y6822D02*
G01X17845Y7395D01*
G01X18625Y8129D02*
G01X17700Y7747D01*
G01X18625Y8129D02*
G01X18497Y8437D01*
G01X18399Y8550D01*
G01X18275Y8603D01*
G01X18167Y8611D01*
G01X18018Y8599D01*
G01X17798Y8507D01*
G01X17684Y8411D01*
G01X17613Y8329D01*
G01X17563Y8204D01*
G01X17573Y8054D01*
G01X17700Y7747D01*
G01X17969Y9714D02*
G01X17227Y8890D01*
G01X18225Y9096D02*
G01X17969Y9714D01*
G04 //text: LED8*
G01X18476Y-15075D02*
G01X17552Y-14691D01*
G01X17552Y-14691D02*
G01X17771Y-14163D01*
G01X18841Y-14195D02*
G01X17917Y-13812D01*
G01X18841Y-14195D02*
G01X19079Y-13623D01*
G01X18400Y-14012D02*
G01X18546Y-13660D01*
G01X17917Y-13812D02*
G01X18154Y-13239D01*
G01X19225Y-13271D02*
G01X18300Y-12887D01*
G01X19225Y-13271D02*
G01X19352Y-12963D01*
G01X19362Y-12813D01*
G01X19312Y-12688D01*
G01X19242Y-12607D01*
G01X19128Y-12510D01*
G01X18907Y-12419D01*
G01X18758Y-12406D01*
G01X18651Y-12414D01*
G01X18527Y-12467D01*
G01X18428Y-12580D01*
G01X18300Y-12887D01*
G01X19717Y-12084D02*
G01X19618Y-12196D01*
G01X19513Y-12205D01*
G01X19424Y-12168D01*
G01X19355Y-12087D01*
G01X19347Y-11982D01*
G01X19375Y-11788D01*
G01X19386Y-11635D01*
G01X19335Y-11513D01*
G01X19265Y-11431D01*
G01X19133Y-11377D01*
G01X19028Y-11385D01*
G01X18965Y-11411D01*
G01X18866Y-11524D01*
G01X18793Y-11700D01*
G01X18783Y-11850D01*
G01X18809Y-11913D01*
G01X18877Y-11994D01*
G01X19009Y-12048D01*
G01X19116Y-12041D01*
G01X19240Y-11987D01*
G01X19339Y-11874D01*
G01X19457Y-11717D01*
G01X19537Y-11649D01*
G01X19643Y-11640D01*
G01X19732Y-11677D01*
G01X19800Y-11758D01*
G01X19790Y-11908D01*
G01X19717Y-12084D01*
G04 //text: U4*
G01X-7379Y-963D02*
G01X-7379Y-1427D01*
G01X-7409Y-1519D01*
G01X-7473Y-1582D01*
G01X-7564Y-1613D01*
G01X-7628D01*
G01X-7719Y-1582D01*
G01X-7780Y-1519D01*
G01X-7813Y-1427D01*
G01Y-963D01*
G01X-8423Y-963D02*
G01X-8113Y-1394D01*
G01X-8578D01*
G01X-8423Y-963D02*
G01X-8423Y-1613D01*
G04 Text End*

G04 PolygonModel Start*
G54D14*
G01X-13652Y-1270D02*
G01X-10954Y-1270D01*
G54D12*
G01X5080Y14605D02*
G01X3493Y14605D01*
G01X2223Y12383D01*
G01X2187Y12556D01*
G54D13*
G01X7986Y8984D02*
G01X7986Y10394D01*
G01X9794Y10394D02*
G01X9794Y8984D01*
G01X9641Y8831D02*
G01X8139Y8831D01*
G01X7986Y12606D02*
G01X7986Y11196D01*
G01X9794Y11196D02*
G01X9794Y12606D01*
G01X9641Y12759D02*
G01X8139Y12759D01*
G01X9794Y8984D02*
G02X9641Y8831I-152J0D01*
G01X8139Y8831D02*
G02X7986Y8984I0J152D01*
G01X9794Y12606D02*
G03X9641Y12759I-152J0D01*
G01X8139Y12759D02*
G03X7986Y12606I0J-152D01*
G01X-2174Y8984D02*
G01X-2174Y10394D01*
G01X-366Y10394D02*
G01X-366Y8984D01*
G01X-519Y8831D02*
G01X-2021Y8831D01*
G01X-2174Y12606D02*
G01X-2174Y11196D01*
G01X-366Y11196D02*
G01X-366Y12606D01*
G01X-519Y12759D02*
G01X-2021Y12759D01*
G01X-366Y8984D02*
G02X-519Y8831I-152J0D01*
G01X-2021Y8831D02*
G02X-2174Y8984I0J152D01*
G01X-366Y12606D02*
G03X-519Y12759I-152J0D01*
G01X-2021Y12759D02*
G03X-2174Y12606I0J-152D01*
G54D15*
G01X6604Y4350D02*
G01X6096Y4350D01*
G01X6604Y8350D02*
G01X6096Y8350D01*
G54D13*
G01X-476Y6703D02*
G01X-1761Y6703D01*
G01X-1761Y6703D02*
G01X-1761Y8537D01*
G01X-1761Y8537D02*
G01X-476Y8537D01*
G01X476Y6703D02*
G01X1761Y6703D01*
G01X1761Y6703D02*
G01X1761Y8537D01*
G01X1761Y8537D02*
G01X476Y8537D01*
G01X2187Y10319D02*
G01X2187Y9034D01*
G01X2187Y9034D02*
G01X353Y9034D01*
G01X353Y9034D02*
G01X353Y10319D01*
G01X2187Y11271D02*
G01X2187Y12556D01*
G01X2187Y12556D02*
G01X353Y12556D01*
G01X353Y12556D02*
G01X353Y11271D01*
G54D15*
G01X6080Y12418D02*
G01X4280Y12418D01*
G01X6080Y9318D02*
G01X4280Y9318D01*
G54D13*
G01X-1376Y4204D02*
G01X1376Y4204D01*
G01X1376Y4204D02*
G01X1376Y4397D01*
G01X-1376Y5956D02*
G01X1376Y5956D01*
G01X1376Y5956D02*
G01X1376Y5763D01*
G01X-917Y4204D02*
G01X-917Y5956D01*
G36*
G01X-1300Y6032D02*
G01X-1300Y5712D01*
G01X-1605D01*
G01Y6032D01*
G01X-1300D01*
G37*
G54D17*
G01X-1300Y6032D02*
G01X-1300Y5712D01*
G01X-1605D01*
G01Y6032D01*
G01X-1300D01*
G36*
G01X-1300Y4128D02*
G01X-1300Y4448D01*
G01X-1605D01*
G01Y4128D01*
G01X-1300D01*
G37*
G01X-1300Y4128D02*
G01X-1300Y4448D01*
G01X-1605D01*
G01Y4128D01*
G01X-1300D01*
G54D13*
G01X-11699Y2634D02*
G01X-11699Y4044D01*
G01X-9891Y4044D02*
G01X-9891Y2634D01*
G01X-10044Y2481D02*
G01X-11546Y2481D01*
G01X-11699Y6256D02*
G01X-11699Y4846D01*
G01X-9891Y4846D02*
G01X-9891Y6256D01*
G01X-10044Y6409D02*
G01X-11546Y6409D01*
G01X-9891Y2634D02*
G02X-10044Y2481I-152J0D01*
G01X-11546Y2481D02*
G02X-11699Y2634I0J152D01*
G01X-9891Y6256D02*
G03X-10044Y6409I-152J0D01*
G01X-11546Y6409D02*
G03X-11699Y6256I0J-152D01*
G01X-18202Y-9500D02*
G01X-18742Y-8197D01*
G01X-17072Y-7506D02*
G01X-16532Y-8808D01*
G01X-16615Y-9007D02*
G01X-18003Y-9582D01*
G01X-19588Y-6153D02*
G01X-19049Y-7456D01*
G01X-17379Y-6764D02*
G01X-17919Y-5462D01*
G01X-18118Y-5379D02*
G01X-19506Y-5954D01*
G01X-16532Y-8808D02*
G02X-16615Y-9007I-141J-58D01*
G01X-18003Y-9582D02*
G02X-18202Y-9500I-58J141D01*
G01X-17919Y-5462D02*
G03X-18118Y-5379I-141J-58D01*
G01X-19506Y-5954D02*
G03X-19588Y-6153I58J-141D01*
G01X19588Y-6153D02*
G01X19049Y-7456D01*
G01X17379Y-6764D02*
G01X17919Y-5462D01*
G01X18118Y-5379D02*
G01X19506Y-5954D01*
G01X18202Y-9500D02*
G01X18742Y-8197D01*
G01X17072Y-7506D02*
G01X16532Y-8808D01*
G01X16615Y-9007D02*
G01X18003Y-9582D01*
G01X17919Y-5462D02*
G02X18118Y-5379I141J-58D01*
G01X19506Y-5954D02*
G02X19588Y-6153I-58J-141D01*
G01X16532Y-8808D02*
G03X16615Y-9007I141J-58D01*
G01X18003Y-9582D02*
G03X18202Y-9500I58J141D01*
G01X-14660Y14376D02*
G01X-13588Y15291D01*
G01X-12414Y13917D02*
G01X-13486Y13001D01*
G01X-13701Y13018D02*
G01X-14677Y14161D01*
G01X-11905Y16728D02*
G01X-12977Y15812D01*
G01X-11804Y14438D02*
G01X-10732Y15354D01*
G01X-10715Y15569D02*
G01X-11690Y16711D01*
G01X-13486Y13001D02*
G02X-13701Y13018I-99J116D01*
G01X-14677Y14161D02*
G02X-14660Y14376I116J99D01*
G01X-10732Y15354D02*
G03X-10715Y15569I-99J116D01*
G01X-11690Y16711D02*
G03X-11905Y16728I-116J-99D01*
G01X11905Y16728D02*
G01X12977Y15812D01*
G01X11804Y14438D02*
G01X10732Y15354D01*
G01X10715Y15569D02*
G01X11690Y16711D01*
G01X14660Y14376D02*
G01X13588Y15291D01*
G01X12414Y13917D02*
G01X13486Y13001D01*
G01X13701Y13018D02*
G01X14677Y14161D01*
G01X10732Y15354D02*
G02X10715Y15569I99J116D01*
G01X11690Y16711D02*
G02X11905Y16728I116J-99D01*
G01X13486Y13001D02*
G03X13701Y13018I99J116D01*
G01X14677Y14161D02*
G03X14660Y14376I-116J99D01*
G01X13744Y-1526D02*
G01X12291Y-1526D01*
G01X12291Y-1526D02*
G01X12291Y-495D01*
G01X13744Y1526D02*
G01X12291Y1526D01*
G01X12291Y1526D02*
G01X12291Y495D01*
G01X13744Y-455D02*
G01X13744Y455D01*
G01X8925Y476D02*
G01X8925Y1761D01*
G01X8925Y1761D02*
G01X10760Y1761D01*
G01X10760Y1761D02*
G01X10760Y476D01*
G01X8925Y-476D02*
G01X8925Y-1761D01*
G01X8925Y-1761D02*
G01X10760Y-1761D01*
G01X10760Y-1761D02*
G01X10760Y-476D01*
G01X13811Y4092D02*
G01X15096Y4092D01*
G01X15096Y4092D02*
G01X15096Y2258D01*
G01X15096Y2258D02*
G01X13811Y2258D01*
G01X12859Y4092D02*
G01X11574Y4092D01*
G01X11574Y4092D02*
G01X11574Y2258D01*
G01X11574Y2258D02*
G01X12859Y2258D01*
G54D15*
G01X-3610Y-2227D02*
G01X3890Y-2227D01*
G01X10802Y-20349D02*
G01X10802Y-16508D01*
G01X-10423Y-20662D02*
G01X-10423Y-16508D01*
G01X10300Y-9946D02*
G01X10300Y-8637D01*
G01X10300Y-8637D02*
G01X3890Y-2227D01*
G01X-10020Y-9946D02*
G01X-10020Y-8637D01*
G01X-10020Y-8637D02*
G01X-3610Y-2227D01*
G01X-4305Y-20339D02*
G02X4749Y-20397I4433J-14511D01*
G01X10802Y-20349D02*
G02X4750Y-20398I-3033J828D01*
G01X-4305Y-20339D02*
G02X-10423Y-20662I-3117J938D01*
G01X-23340Y3000D02*
G01X-23340Y-3000D01*
G01X-19840Y-3000D02*
G01X-19840Y3000D01*
G01X-19840Y-3000D02*
G01X-20259Y-3000D01*
G01X-22921Y-3000D02*
G01X-23340Y-3000D01*
G01X-23340Y3000D02*
G01X-22921Y3000D01*
G01X-20259Y3000D02*
G01X-19840Y3000D01*
G01X23340Y-3000D02*
G01X23340Y3000D01*
G01X19840Y3000D02*
G01X19840Y-3000D01*
G01X19840Y3000D02*
G01X20259Y3000D01*
G01X22921Y3000D02*
G01X23340Y3000D01*
G01X23340Y-3000D02*
G01X22921Y-3000D01*
G01X20259Y-3000D02*
G01X19840Y-3000D01*
G54D13*
G01X-20289Y-6349D02*
G01X-20069Y-6260D01*
G01X-20069Y-6260D02*
G01X-18641Y-9817D01*
G01X-18641Y-9817D02*
G01X-18861Y-9905D01*
G01X-18776Y-10117D02*
G01X-18344Y-9944D01*
G01X-18344Y-9944D02*
G01X-18481Y-9602D01*
G54D15*
G01X-19269Y-10741D02*
G01X-19127Y-11095D01*
G01X-23249Y-6454D02*
G01X-22659Y-6218D01*
G01X-23049Y-6100D02*
G01X-22859Y-6572D01*
G54D13*
G01X-23220Y-7525D02*
G01X-23440Y-7614D01*
G01X-23440Y-7614D02*
G01X-22012Y-11170D01*
G01X-22012Y-11170D02*
G01X-21792Y-11082D01*
G01X-18848Y9880D02*
G01X-18629Y9789D01*
G01X-18629Y9789D02*
G01X-20097Y6249D01*
G01X-20097Y6249D02*
G01X-20317Y6340D01*
G01X-20404Y6129D02*
G01X-19974Y5951D01*
G01X-19974Y5951D02*
G01X-19833Y6291D01*
G54D15*
G01X-21193Y6029D02*
G01X-21339Y5677D01*
G01X-21036Y11876D02*
G01X-20449Y11632D01*
G01X-20645Y11989D02*
G01X-20840Y11519D01*
G54D13*
G01X-21765Y11090D02*
G01X-21984Y11181D01*
G01X-21984Y11181D02*
G01X-23452Y7641D01*
G01X-23452Y7641D02*
G01X-23233Y7550D01*
G01X-12308Y17360D02*
G01X-12154Y17180D01*
G01X-12154Y17180D02*
G01X-15070Y14692D01*
G01X-15070Y14692D02*
G01X-15224Y14873D01*
G01X-15398Y14724D02*
G01X-15095Y14370D01*
G01X-15095Y14370D02*
G01X-14815Y14609D01*
G54D15*
G01X-16146Y14993D02*
G01X-16436Y14745D01*
G01X-13351Y20131D02*
G01X-12939Y19648D01*
G01X-12952Y20055D02*
G01X-13339Y19725D01*
G54D13*
G01X-14358Y19762D02*
G01X-14512Y19943D01*
G01X-14512Y19943D02*
G01X-17427Y17456D01*
G01X-17427Y17456D02*
G01X-17273Y17275D01*
G01X-3085Y21056D02*
G01X-3030Y20825D01*
G01X-3030Y20825D02*
G01X-6757Y19932D01*
G01X-6757Y19932D02*
G01X-6812Y20163D01*
G01X-7035Y20110D02*
G01X-6926Y19657D01*
G01X-6926Y19657D02*
G01X-6568Y19743D01*
G54D15*
G01X-7580Y20689D02*
G01X-7950Y20600D01*
G01X-2757Y23998D02*
G01X-2609Y23381D01*
G01X-2436Y23749D02*
G01X-2930Y23631D01*
G54D13*
G01X-3821Y24127D02*
G01X-3876Y24357D01*
G01X-3876Y24357D02*
G01X-7603Y23465D01*
G01X-7603Y23465D02*
G01X-7548Y23234D01*
G01X6810Y20161D02*
G01X6755Y19931D01*
G01X6755Y19931D02*
G01X3029Y20828D01*
G01X3029Y20828D02*
G01X3084Y21058D01*
G01X2862Y21112D02*
G01X2753Y20659D01*
G01X2753Y20659D02*
G01X3111Y20573D01*
G54D15*
G01X2639Y21875D02*
G01X2269Y21964D01*
G01X8439Y22634D02*
G01X8290Y22017D01*
G01X8611Y22266D02*
G01X8118Y22385D01*
G54D13*
G01X7549Y23232D02*
G01X7605Y23462D01*
G01X7605Y23462D02*
G01X3879Y24359D01*
G01X3879Y24359D02*
G01X3823Y24128D01*
G01X15221Y14872D02*
G01X15067Y14692D01*
G01X15067Y14692D02*
G01X12154Y17183D01*
G01X12154Y17183D02*
G01X12308Y17363D01*
G01X12134Y17511D02*
G01X11832Y17157D01*
G01X11832Y17157D02*
G01X12111Y16918D01*
G54D15*
G01X12282Y18293D02*
G01X11993Y18540D01*
G01X17795Y16336D02*
G01X17382Y15854D01*
G01X17781Y15930D02*
G01X17395Y16260D01*
G54D13*
G01X17273Y17272D02*
G01X17427Y17453D01*
G01X17427Y17453D02*
G01X14515Y19943D01*
G01X14515Y19943D02*
G01X14360Y19763D01*
G01X20314Y6341D02*
G01X20095Y6250D01*
G01X20095Y6250D02*
G01X18630Y9792D01*
G01X18630Y9792D02*
G01X18849Y9883D01*
G01X18762Y10094D02*
G01X18331Y9916D01*
G01X18331Y9916D02*
G01X18472Y9576D01*
G54D15*
G01X19248Y10723D02*
G01X19103Y11075D01*
G01X23272Y6477D02*
G01X22685Y6234D01*
G01X23075Y6121D02*
G01X22881Y6590D01*
G54D13*
G01X23232Y7548D02*
G01X23451Y7639D01*
G01X23451Y7639D02*
G01X21987Y11180D01*
G01X21987Y11180D02*
G01X21767Y11089D01*
G01X18848Y-9880D02*
G01X18629Y-9789D01*
G01X18629Y-9789D02*
G01X20097Y-6249D01*
G01X20097Y-6249D02*
G01X20317Y-6340D01*
G01X20404Y-6129D02*
G01X19974Y-5951D01*
G01X19974Y-5951D02*
G01X19833Y-6291D01*
G54D15*
G01X21193Y-6029D02*
G01X21339Y-5677D01*
G01X21036Y-11876D02*
G01X20449Y-11632D01*
G01X20645Y-11989D02*
G01X20840Y-11519D01*
G54D13*
G01X21765Y-11090D02*
G01X21984Y-11181D01*
G01X21984Y-11181D02*
G01X23452Y-7641D01*
G01X23452Y-7641D02*
G01X23233Y-7550D01*
G54D15*
G01X-4255Y1892D02*
G01X-9081Y1892D01*
G01X-9081Y1892D02*
G01X-9081Y5042D01*
G01X-9081Y5042D02*
G01X-4255Y5042D01*
G01X-4255Y5042D02*
G01X-4255Y4102D01*
G01X-4255Y2832D02*
G01X-4255Y1892D01*
G01X-4255Y4102D02*
G03X-4255Y2832I0J-635D01*
G04 PolygonModel End*

G04 Rect Start*
G01X-3175Y18733D02*
G01X-3175Y14605D01*
G01X2540D01*
G01Y18733D01*
G01X-3175D01*
G01X-4762Y10160D02*
G01X-4762Y17780D01*
G01X-9842D01*
G01Y10160D01*
G01X-4762D01*
G04 Rect End*

G04 Circle Start*
G54D18*
G01X-11312Y953D02*
G03X-10913Y953I200J0D01*
G03X-11312I-200J0D01*
G54D10*
G01X1778Y18098D02*
G03X2032Y18098I127J0D01*
G03X1778I-127J0D01*
G54D15*
G01X3656Y9217D02*
G03X3910Y9217I127J0D01*
G03X3656I-127J0D01*
G01X-4254Y16510D02*
G03X-4000Y16510I127J0D01*
G03X-4254I-127J0D01*
G01X-4127Y1308D02*
G03X-3924Y1308I102J0D01*
G03X-4127I-102J0D01*
G04 Circle End*

M02*
