G04 Layer: DrillDrawingLayer*
G04 EasyEDA Pro v1.9.29.eba1c1, 2023-07-30 16:19:25*
G04 Gerber Generator version 0.3*
G04 Scale: 100 percent, Rotated: No, Reflected: No*
G04 Dimensions in millimeters*
G04 Leading zeros omitted, absolute positions, 3 integers and 3 decimals*
%FSLAX33Y33*%
%MOMM*%
%ADD10C,0.254*%
G75*


G04 Image Start*
G36*
G01X-199Y200D02*
G01X-199Y163D01*
G01X-163D01*
G01X163D01*
G01Y-163D01*
G01X-163D01*
G01Y163D01*
G01X-199D01*
G01Y-199D01*
G01X199D01*
G01Y200D01*
G37*
G36*
G01X-1270Y21790D02*
G01X-1290Y21788D01*
G01X-1310Y21786D01*
G01X-1329Y21781D01*
G01X-1348Y21774D01*
G01X-1365Y21765D01*
G01X-1381Y21755D01*
G01X-1397Y21744D01*
G01X-1411Y21731D01*
G01X-1424Y21717D01*
G01X-1435Y21701D01*
G01X-1445Y21685D01*
G01X-1454Y21668D01*
G01X-1460Y21649D01*
G01X-1466Y21630D01*
G01X-1468Y21610D01*
G01X-1469Y21590D01*
G01X-1436D01*
G01X-1435Y21607D01*
G01X-1433Y21624D01*
G01X-1428Y21639D01*
G01X-1423Y21655D01*
G01X-1416Y21669D01*
G01X-1408Y21683D01*
G01X-1398Y21696D01*
G01X-1387Y21707D01*
G01X-1376Y21718D01*
G01X-1363Y21728D01*
G01X-1349Y21736D01*
G01X-1335Y21743D01*
G01X-1319Y21748D01*
G01X-1304Y21753D01*
G01X-1287Y21755D01*
G01X-1270Y21756D01*
G01X-1253Y21755D01*
G01X-1236Y21753D01*
G01X-1221Y21748D01*
G01X-1205Y21743D01*
G01X-1191Y21736D01*
G01X-1177Y21728D01*
G01X-1164Y21718D01*
G01X-1153Y21707D01*
G01X-1142Y21696D01*
G01X-1132Y21683D01*
G01X-1124Y21669D01*
G01X-1117Y21655D01*
G01X-1112Y21639D01*
G01X-1107Y21624D01*
G01X-1105Y21607D01*
G01X-1104Y21590D01*
G01X-1105Y21573D01*
G01X-1107Y21556D01*
G01X-1112Y21541D01*
G01X-1117Y21525D01*
G01X-1124Y21511D01*
G01X-1132Y21497D01*
G01X-1142Y21484D01*
G01X-1153Y21473D01*
G01X-1164Y21462D01*
G01X-1177Y21452D01*
G01X-1191Y21444D01*
G01X-1205Y21437D01*
G01X-1221Y21432D01*
G01X-1236Y21427D01*
G01X-1253Y21425D01*
G01X-1270Y21424D01*
G01X-1287Y21425D01*
G01X-1304Y21427D01*
G01X-1319Y21432D01*
G01X-1335Y21437D01*
G01X-1349Y21444D01*
G01X-1363Y21452D01*
G01X-1376Y21462D01*
G01X-1387Y21473D01*
G01X-1398Y21484D01*
G01X-1408Y21497D01*
G01X-1416Y21511D01*
G01X-1423Y21525D01*
G01X-1428Y21541D01*
G01X-1433Y21556D01*
G01X-1435Y21573D01*
G01X-1436Y21590D01*
G01X-1469D01*
G01X-1468Y21570D01*
G01X-1466Y21550D01*
G01X-1460Y21531D01*
G01X-1454Y21512D01*
G01X-1445Y21495D01*
G01X-1435Y21479D01*
G01X-1424Y21463D01*
G01X-1411Y21449D01*
G01X-1397Y21436D01*
G01X-1381Y21425D01*
G01X-1365Y21415D01*
G01X-1348Y21406D01*
G01X-1329Y21400D01*
G01X-1310Y21394D01*
G01X-1290Y21392D01*
G01X-1270Y21391D01*
G01X-1250Y21392D01*
G01X-1230Y21394D01*
G01X-1211Y21400D01*
G01X-1192Y21406D01*
G01X-1175Y21415D01*
G01X-1159Y21425D01*
G01X-1143Y21436D01*
G01X-1129Y21449D01*
G01X-1116Y21463D01*
G01X-1105Y21479D01*
G01X-1095Y21495D01*
G01X-1086Y21512D01*
G01X-1079Y21531D01*
G01X-1074Y21550D01*
G01X-1072Y21570D01*
G01X-1070Y21590D01*
G01X-1072Y21610D01*
G01X-1074Y21630D01*
G01X-1079Y21649D01*
G01X-1086Y21668D01*
G01X-1095Y21685D01*
G01X-1105Y21701D01*
G01X-1116Y21717D01*
G01X-1129Y21731D01*
G01X-1143Y21744D01*
G01X-1159Y21755D01*
G01X-1175Y21765D01*
G01X-1192Y21774D01*
G01X-1211Y21781D01*
G01X-1230Y21786D01*
G01X-1250Y21788D01*
G37*
G36*
G01X0Y20520D02*
G01X-20Y20518D01*
G01X-40Y20516D01*
G01X-59Y20511D01*
G01X-78Y20504D01*
G01X-95Y20495D01*
G01X-111Y20485D01*
G01X-127Y20474D01*
G01X-141Y20461D01*
G01X-154Y20447D01*
G01X-165Y20431D01*
G01X-175Y20415D01*
G01X-184Y20398D01*
G01X-190Y20379D01*
G01X-196Y20360D01*
G01X-198Y20340D01*
G01X-199Y20320D01*
G01X-166D01*
G01X-165Y20337D01*
G01X-163Y20354D01*
G01X-158Y20369D01*
G01X-153Y20385D01*
G01X-146Y20399D01*
G01X-138Y20413D01*
G01X-128Y20426D01*
G01X-117Y20437D01*
G01X-106Y20448D01*
G01X-93Y20458D01*
G01X-79Y20466D01*
G01X-65Y20473D01*
G01X-49Y20478D01*
G01X-34Y20483D01*
G01X-17Y20485D01*
G01X0Y20486D01*
G01X17Y20485D01*
G01X34Y20483D01*
G01X49Y20478D01*
G01X65Y20473D01*
G01X79Y20466D01*
G01X93Y20458D01*
G01X106Y20448D01*
G01X117Y20437D01*
G01X128Y20426D01*
G01X138Y20413D01*
G01X146Y20399D01*
G01X153Y20385D01*
G01X158Y20369D01*
G01X163Y20354D01*
G01X165Y20337D01*
G01X166Y20320D01*
G01X165Y20303D01*
G01X163Y20286D01*
G01X158Y20271D01*
G01X153Y20255D01*
G01X146Y20241D01*
G01X138Y20227D01*
G01X128Y20214D01*
G01X117Y20203D01*
G01X106Y20192D01*
G01X93Y20182D01*
G01X79Y20174D01*
G01X65Y20167D01*
G01X49Y20162D01*
G01X34Y20157D01*
G01X17Y20155D01*
G01X0Y20154D01*
G01X-17Y20155D01*
G01X-34Y20157D01*
G01X-49Y20162D01*
G01X-65Y20167D01*
G01X-79Y20174D01*
G01X-93Y20182D01*
G01X-106Y20192D01*
G01X-117Y20203D01*
G01X-128Y20214D01*
G01X-138Y20227D01*
G01X-146Y20241D01*
G01X-153Y20255D01*
G01X-158Y20271D01*
G01X-163Y20286D01*
G01X-165Y20303D01*
G01X-166Y20320D01*
G01X-199D01*
G01X-198Y20300D01*
G01X-196Y20280D01*
G01X-190Y20261D01*
G01X-184Y20242D01*
G01X-175Y20225D01*
G01X-165Y20209D01*
G01X-154Y20193D01*
G01X-141Y20179D01*
G01X-127Y20166D01*
G01X-111Y20155D01*
G01X-95Y20145D01*
G01X-78Y20136D01*
G01X-59Y20130D01*
G01X-40Y20124D01*
G01X-20Y20122D01*
G01X0Y20121D01*
G01X20Y20122D01*
G01X40Y20124D01*
G01X59Y20130D01*
G01X78Y20136D01*
G01X95Y20145D01*
G01X111Y20155D01*
G01X127Y20166D01*
G01X141Y20179D01*
G01X154Y20193D01*
G01X165Y20209D01*
G01X175Y20225D01*
G01X184Y20242D01*
G01X191Y20261D01*
G01X196Y20280D01*
G01X198Y20300D01*
G01X199Y20320D01*
G01X198Y20340D01*
G01X196Y20360D01*
G01X191Y20379D01*
G01X184Y20398D01*
G01X175Y20415D01*
G01X165Y20431D01*
G01X154Y20447D01*
G01X141Y20461D01*
G01X127Y20474D01*
G01X111Y20485D01*
G01X95Y20495D01*
G01X78Y20504D01*
G01X59Y20511D01*
G01X40Y20516D01*
G01X20Y20518D01*
G37*
G36*
G01X-15240Y13535D02*
G01X-15260Y13533D01*
G01X-15280Y13531D01*
G01X-15299Y13526D01*
G01X-15318Y13519D01*
G01X-15335Y13510D01*
G01X-15351Y13500D01*
G01X-15367Y13489D01*
G01X-15381Y13476D01*
G01X-15394Y13462D01*
G01X-15405Y13446D01*
G01X-15415Y13430D01*
G01X-15424Y13413D01*
G01X-15430Y13394D01*
G01X-15436Y13375D01*
G01X-15438Y13355D01*
G01X-15440Y13335D01*
G01X-15406D01*
G01X-15405Y13352D01*
G01X-15403Y13369D01*
G01X-15398Y13384D01*
G01X-15393Y13400D01*
G01X-15386Y13414D01*
G01X-15378Y13428D01*
G01X-15368Y13441D01*
G01X-15357Y13452D01*
G01X-15346Y13463D01*
G01X-15333Y13473D01*
G01X-15319Y13481D01*
G01X-15305Y13488D01*
G01X-15289Y13493D01*
G01X-15274Y13498D01*
G01X-15257Y13500D01*
G01X-15240Y13501D01*
G01X-15223Y13500D01*
G01X-15206Y13498D01*
G01X-15191Y13493D01*
G01X-15175Y13488D01*
G01X-15161Y13481D01*
G01X-15147Y13473D01*
G01X-15134Y13463D01*
G01X-15123Y13452D01*
G01X-15112Y13441D01*
G01X-15102Y13428D01*
G01X-15094Y13414D01*
G01X-15087Y13400D01*
G01X-15082Y13384D01*
G01X-15077Y13369D01*
G01X-15075Y13352D01*
G01X-15074Y13335D01*
G01X-15075Y13318D01*
G01X-15077Y13301D01*
G01X-15082Y13286D01*
G01X-15087Y13270D01*
G01X-15094Y13256D01*
G01X-15102Y13242D01*
G01X-15112Y13229D01*
G01X-15123Y13218D01*
G01X-15134Y13207D01*
G01X-15147Y13197D01*
G01X-15161Y13189D01*
G01X-15175Y13182D01*
G01X-15191Y13177D01*
G01X-15206Y13172D01*
G01X-15223Y13170D01*
G01X-15240Y13169D01*
G01X-15257Y13170D01*
G01X-15274Y13172D01*
G01X-15289Y13177D01*
G01X-15305Y13182D01*
G01X-15319Y13189D01*
G01X-15333Y13197D01*
G01X-15346Y13207D01*
G01X-15357Y13218D01*
G01X-15368Y13229D01*
G01X-15378Y13242D01*
G01X-15386Y13256D01*
G01X-15393Y13270D01*
G01X-15398Y13286D01*
G01X-15403Y13301D01*
G01X-15405Y13318D01*
G01X-15406Y13335D01*
G01X-15440D01*
G01X-15438Y13315D01*
G01X-15436Y13295D01*
G01X-15430Y13276D01*
G01X-15424Y13257D01*
G01X-15415Y13240D01*
G01X-15405Y13224D01*
G01X-15394Y13208D01*
G01X-15381Y13194D01*
G01X-15367Y13181D01*
G01X-15351Y13170D01*
G01X-15335Y13160D01*
G01X-15318Y13151D01*
G01X-15299Y13145D01*
G01X-15280Y13139D01*
G01X-15260Y13137D01*
G01X-15240Y13136D01*
G01X-15220Y13137D01*
G01X-15200Y13139D01*
G01X-15181Y13145D01*
G01X-15162Y13151D01*
G01X-15145Y13160D01*
G01X-15129Y13170D01*
G01X-15113Y13181D01*
G01X-15099Y13194D01*
G01X-15086Y13208D01*
G01X-15075Y13224D01*
G01X-15065Y13240D01*
G01X-15056Y13257D01*
G01X-15049Y13276D01*
G01X-15044Y13295D01*
G01X-15042Y13315D01*
G01X-15040Y13335D01*
G01X-15042Y13355D01*
G01X-15044Y13375D01*
G01X-15049Y13394D01*
G01X-15056Y13413D01*
G01X-15065Y13430D01*
G01X-15075Y13446D01*
G01X-15086Y13462D01*
G01X-15099Y13476D01*
G01X-15113Y13489D01*
G01X-15129Y13500D01*
G01X-15145Y13510D01*
G01X-15162Y13519D01*
G01X-15181Y13526D01*
G01X-15200Y13531D01*
G01X-15220Y13533D01*
G37*
G36*
G01X16510Y14170D02*
G01X16490Y14168D01*
G01X16470Y14166D01*
G01X16451Y14161D01*
G01X16432Y14154D01*
G01X16415Y14145D01*
G01X16399Y14135D01*
G01X16383Y14124D01*
G01X16369Y14111D01*
G01X16356Y14097D01*
G01X16345Y14081D01*
G01X16335Y14065D01*
G01X16326Y14048D01*
G01X16320Y14029D01*
G01X16314Y14010D01*
G01X16312Y13990D01*
G01X16311Y13970D01*
G01X16344D01*
G01X16345Y13987D01*
G01X16347Y14004D01*
G01X16352Y14019D01*
G01X16357Y14035D01*
G01X16364Y14049D01*
G01X16372Y14063D01*
G01X16382Y14076D01*
G01X16393Y14087D01*
G01X16404Y14098D01*
G01X16417Y14108D01*
G01X16431Y14116D01*
G01X16445Y14123D01*
G01X16461Y14128D01*
G01X16476Y14133D01*
G01X16493Y14135D01*
G01X16510Y14136D01*
G01X16527Y14135D01*
G01X16544Y14133D01*
G01X16559Y14128D01*
G01X16575Y14123D01*
G01X16589Y14116D01*
G01X16603Y14108D01*
G01X16616Y14098D01*
G01X16627Y14087D01*
G01X16638Y14076D01*
G01X16648Y14063D01*
G01X16656Y14049D01*
G01X16663Y14035D01*
G01X16668Y14019D01*
G01X16673Y14004D01*
G01X16675Y13987D01*
G01X16676Y13970D01*
G01X16675Y13953D01*
G01X16673Y13936D01*
G01X16668Y13921D01*
G01X16663Y13905D01*
G01X16656Y13891D01*
G01X16648Y13877D01*
G01X16638Y13864D01*
G01X16627Y13853D01*
G01X16616Y13842D01*
G01X16603Y13832D01*
G01X16589Y13824D01*
G01X16575Y13817D01*
G01X16559Y13812D01*
G01X16544Y13807D01*
G01X16527Y13805D01*
G01X16510Y13804D01*
G01X16493Y13805D01*
G01X16476Y13807D01*
G01X16461Y13812D01*
G01X16445Y13817D01*
G01X16431Y13824D01*
G01X16417Y13832D01*
G01X16404Y13842D01*
G01X16393Y13853D01*
G01X16382Y13864D01*
G01X16372Y13877D01*
G01X16364Y13891D01*
G01X16357Y13905D01*
G01X16352Y13921D01*
G01X16347Y13936D01*
G01X16345Y13953D01*
G01X16344Y13970D01*
G01X16311D01*
G01X16312Y13950D01*
G01X16314Y13930D01*
G01X16320Y13911D01*
G01X16326Y13892D01*
G01X16335Y13875D01*
G01X16345Y13859D01*
G01X16356Y13843D01*
G01X16369Y13829D01*
G01X16383Y13816D01*
G01X16399Y13805D01*
G01X16415Y13795D01*
G01X16432Y13786D01*
G01X16451Y13780D01*
G01X16470Y13774D01*
G01X16490Y13772D01*
G01X16510Y13771D01*
G01X16530Y13772D01*
G01X16550Y13774D01*
G01X16569Y13780D01*
G01X16588Y13786D01*
G01X16605Y13795D01*
G01X16621Y13805D01*
G01X16637Y13816D01*
G01X16651Y13829D01*
G01X16664Y13843D01*
G01X16675Y13859D01*
G01X16685Y13875D01*
G01X16694Y13892D01*
G01X16701Y13911D01*
G01X16706Y13930D01*
G01X16708Y13950D01*
G01X16710Y13970D01*
G01X16708Y13990D01*
G01X16706Y14010D01*
G01X16701Y14029D01*
G01X16694Y14048D01*
G01X16685Y14065D01*
G01X16675Y14081D01*
G01X16664Y14097D01*
G01X16651Y14111D01*
G01X16637Y14124D01*
G01X16621Y14135D01*
G01X16605Y14145D01*
G01X16588Y14154D01*
G01X16569Y14161D01*
G01X16550Y14166D01*
G01X16530Y14168D01*
G37*
G36*
G01X18098Y9407D02*
G01X18077Y9406D01*
G01X18057Y9403D01*
G01X18038Y9398D01*
G01X18020Y9391D01*
G01X18003Y9383D01*
G01X17986Y9373D01*
G01X17971Y9361D01*
G01X17956Y9349D01*
G01X17944Y9335D01*
G01X17932Y9319D01*
G01X17922Y9302D01*
G01X17914Y9285D01*
G01X17907Y9267D01*
G01X17902Y9248D01*
G01X17899Y9228D01*
G01X17898Y9208D01*
G01X17931D01*
G01X17932Y9224D01*
G01X17935Y9241D01*
G01X17939Y9257D01*
G01X17945Y9272D01*
G01X17951Y9287D01*
G01X17960Y9300D01*
G01X17969Y9313D01*
G01X17980Y9325D01*
G01X17992Y9336D01*
G01X18005Y9345D01*
G01X18018Y9354D01*
G01X18033Y9360D01*
G01X18048Y9366D01*
G01X18064Y9370D01*
G01X18081Y9373D01*
G01X18098Y9374D01*
G01X18114Y9373D01*
G01X18131Y9370D01*
G01X18147Y9366D01*
G01X18162Y9360D01*
G01X18177Y9354D01*
G01X18190Y9345D01*
G01X18203Y9336D01*
G01X18215Y9325D01*
G01X18226Y9313D01*
G01X18235Y9300D01*
G01X18244Y9287D01*
G01X18250Y9272D01*
G01X18256Y9257D01*
G01X18260Y9241D01*
G01X18263Y9224D01*
G01X18264Y9208D01*
G01X18263Y9191D01*
G01X18260Y9174D01*
G01X18256Y9158D01*
G01X18250Y9143D01*
G01X18244Y9128D01*
G01X18235Y9115D01*
G01X18226Y9102D01*
G01X18215Y9090D01*
G01X18203Y9079D01*
G01X18190Y9070D01*
G01X18177Y9061D01*
G01X18162Y9055D01*
G01X18147Y9049D01*
G01X18131Y9045D01*
G01X18114Y9042D01*
G01X18098Y9041D01*
G01X18081Y9042D01*
G01X18064Y9045D01*
G01X18048Y9049D01*
G01X18033Y9055D01*
G01X18018Y9061D01*
G01X18005Y9070D01*
G01X17992Y9079D01*
G01X17980Y9090D01*
G01X17969Y9102D01*
G01X17960Y9115D01*
G01X17951Y9128D01*
G01X17945Y9143D01*
G01X17939Y9158D01*
G01X17935Y9174D01*
G01X17932Y9191D01*
G01X17931Y9208D01*
G01X17898D01*
G01X17899Y9187D01*
G01X17902Y9167D01*
G01X17907Y9148D01*
G01X17914Y9130D01*
G01X17922Y9113D01*
G01X17932Y9096D01*
G01X17944Y9081D01*
G01X17956Y9066D01*
G01X17971Y9054D01*
G01X17986Y9042D01*
G01X18003Y9032D01*
G01X18020Y9024D01*
G01X18038Y9017D01*
G01X18057Y9012D01*
G01X18077Y9009D01*
G01X18098Y9008D01*
G01X18118Y9009D01*
G01X18138Y9012D01*
G01X18157Y9017D01*
G01X18175Y9024D01*
G01X18192Y9032D01*
G01X18209Y9042D01*
G01X18225Y9054D01*
G01X18239Y9066D01*
G01X18251Y9081D01*
G01X18263Y9096D01*
G01X18273Y9113D01*
G01X18281Y9130D01*
G01X18288Y9148D01*
G01X18293Y9167D01*
G01X18296Y9187D01*
G01X18297Y9208D01*
G01X18296Y9228D01*
G01X18293Y9248D01*
G01X18288Y9267D01*
G01X18281Y9285D01*
G01X18273Y9302D01*
G01X18263Y9319D01*
G01X18251Y9335D01*
G01X18239Y9349D01*
G01X18225Y9361D01*
G01X18209Y9373D01*
G01X18192Y9383D01*
G01X18175Y9391D01*
G01X18157Y9398D01*
G01X18138Y9403D01*
G01X18118Y9406D01*
G37*
G36*
G01X20003Y8455D02*
G01X19982Y8453D01*
G01X19962Y8451D01*
G01X19943Y8446D01*
G01X19925Y8439D01*
G01X19908Y8430D01*
G01X19891Y8420D01*
G01X19876Y8409D01*
G01X19861Y8396D01*
G01X19849Y8382D01*
G01X19837Y8366D01*
G01X19827Y8350D01*
G01X19819Y8333D01*
G01X19812Y8314D01*
G01X19807Y8295D01*
G01X19804Y8275D01*
G01X19803Y8255D01*
G01X19836D01*
G01X19837Y8272D01*
G01X19840Y8289D01*
G01X19844Y8304D01*
G01X19850Y8320D01*
G01X19856Y8334D01*
G01X19865Y8348D01*
G01X19874Y8361D01*
G01X19885Y8372D01*
G01X19897Y8383D01*
G01X19910Y8393D01*
G01X19923Y8401D01*
G01X19938Y8408D01*
G01X19953Y8413D01*
G01X19969Y8418D01*
G01X19986Y8420D01*
G01X20003Y8421D01*
G01X20019Y8420D01*
G01X20036Y8418D01*
G01X20052Y8413D01*
G01X20067Y8408D01*
G01X20082Y8401D01*
G01X20095Y8393D01*
G01X20108Y8383D01*
G01X20120Y8372D01*
G01X20131Y8361D01*
G01X20140Y8348D01*
G01X20149Y8334D01*
G01X20155Y8320D01*
G01X20161Y8304D01*
G01X20165Y8289D01*
G01X20168Y8272D01*
G01X20169Y8255D01*
G01X20168Y8238D01*
G01X20165Y8221D01*
G01X20161Y8206D01*
G01X20155Y8190D01*
G01X20149Y8176D01*
G01X20140Y8162D01*
G01X20131Y8149D01*
G01X20120Y8138D01*
G01X20108Y8127D01*
G01X20095Y8117D01*
G01X20082Y8109D01*
G01X20067Y8102D01*
G01X20052Y8097D01*
G01X20036Y8092D01*
G01X20019Y8090D01*
G01X20003Y8089D01*
G01X19986Y8090D01*
G01X19969Y8092D01*
G01X19953Y8097D01*
G01X19938Y8102D01*
G01X19923Y8109D01*
G01X19910Y8117D01*
G01X19897Y8127D01*
G01X19885Y8138D01*
G01X19874Y8149D01*
G01X19865Y8162D01*
G01X19856Y8176D01*
G01X19850Y8190D01*
G01X19844Y8206D01*
G01X19840Y8221D01*
G01X19837Y8238D01*
G01X19836Y8255D01*
G01X19803D01*
G01X19804Y8235D01*
G01X19807Y8215D01*
G01X19812Y8196D01*
G01X19819Y8177D01*
G01X19827Y8160D01*
G01X19837Y8144D01*
G01X19849Y8128D01*
G01X19861Y8114D01*
G01X19876Y8101D01*
G01X19891Y8090D01*
G01X19908Y8080D01*
G01X19925Y8071D01*
G01X19943Y8065D01*
G01X19962Y8059D01*
G01X19982Y8057D01*
G01X20003Y8056D01*
G01X20023Y8057D01*
G01X20043Y8059D01*
G01X20062Y8065D01*
G01X20080Y8071D01*
G01X20097Y8080D01*
G01X20114Y8090D01*
G01X20130Y8101D01*
G01X20144Y8114D01*
G01X20156Y8128D01*
G01X20168Y8144D01*
G01X20178Y8160D01*
G01X20186Y8177D01*
G01X20193Y8196D01*
G01X20198Y8215D01*
G01X20201Y8235D01*
G01X20202Y8255D01*
G01X20201Y8275D01*
G01X20198Y8295D01*
G01X20193Y8314D01*
G01X20186Y8333D01*
G01X20178Y8350D01*
G01X20168Y8366D01*
G01X20156Y8382D01*
G01X20144Y8396D01*
G01X20130Y8409D01*
G01X20114Y8420D01*
G01X20097Y8430D01*
G01X20080Y8439D01*
G01X20062Y8446D01*
G01X20043Y8451D01*
G01X20023Y8453D01*
G37*
G36*
G01X19685Y-4880D02*
G01X19665Y-4882D01*
G01X19645Y-4884D01*
G01X19626Y-4889D01*
G01X19607Y-4896D01*
G01X19590Y-4905D01*
G01X19574Y-4915D01*
G01X19558Y-4926D01*
G01X19544Y-4939D01*
G01X19531Y-4953D01*
G01X19520Y-4969D01*
G01X19510Y-4985D01*
G01X19501Y-5002D01*
G01X19495Y-5021D01*
G01X19489Y-5040D01*
G01X19487Y-5060D01*
G01X19486Y-5080D01*
G01X19519D01*
G01X19520Y-5063D01*
G01X19522Y-5046D01*
G01X19527Y-5031D01*
G01X19532Y-5015D01*
G01X19539Y-5001D01*
G01X19547Y-4987D01*
G01X19557Y-4974D01*
G01X19568Y-4963D01*
G01X19579Y-4952D01*
G01X19592Y-4942D01*
G01X19606Y-4934D01*
G01X19620Y-4927D01*
G01X19636Y-4922D01*
G01X19651Y-4917D01*
G01X19668Y-4915D01*
G01X19685Y-4914D01*
G01X19702Y-4915D01*
G01X19719Y-4917D01*
G01X19734Y-4922D01*
G01X19750Y-4927D01*
G01X19764Y-4934D01*
G01X19778Y-4942D01*
G01X19791Y-4952D01*
G01X19802Y-4963D01*
G01X19813Y-4974D01*
G01X19823Y-4987D01*
G01X19831Y-5001D01*
G01X19838Y-5015D01*
G01X19843Y-5031D01*
G01X19848Y-5046D01*
G01X19850Y-5063D01*
G01X19851Y-5080D01*
G01X19850Y-5097D01*
G01X19848Y-5114D01*
G01X19843Y-5129D01*
G01X19838Y-5145D01*
G01X19831Y-5159D01*
G01X19823Y-5173D01*
G01X19813Y-5186D01*
G01X19802Y-5197D01*
G01X19791Y-5208D01*
G01X19778Y-5218D01*
G01X19764Y-5226D01*
G01X19750Y-5233D01*
G01X19734Y-5238D01*
G01X19719Y-5243D01*
G01X19702Y-5245D01*
G01X19685Y-5246D01*
G01X19668Y-5245D01*
G01X19651Y-5243D01*
G01X19636Y-5238D01*
G01X19620Y-5233D01*
G01X19606Y-5226D01*
G01X19592Y-5218D01*
G01X19579Y-5208D01*
G01X19568Y-5197D01*
G01X19557Y-5186D01*
G01X19547Y-5173D01*
G01X19539Y-5159D01*
G01X19532Y-5145D01*
G01X19527Y-5129D01*
G01X19522Y-5114D01*
G01X19520Y-5097D01*
G01X19519Y-5080D01*
G01X19486D01*
G01X19487Y-5100D01*
G01X19489Y-5120D01*
G01X19495Y-5139D01*
G01X19501Y-5158D01*
G01X19510Y-5175D01*
G01X19520Y-5191D01*
G01X19531Y-5207D01*
G01X19544Y-5221D01*
G01X19558Y-5234D01*
G01X19574Y-5245D01*
G01X19590Y-5255D01*
G01X19607Y-5264D01*
G01X19626Y-5270D01*
G01X19645Y-5276D01*
G01X19665Y-5278D01*
G01X19685Y-5279D01*
G01X19705Y-5278D01*
G01X19725Y-5276D01*
G01X19744Y-5270D01*
G01X19763Y-5264D01*
G01X19780Y-5255D01*
G01X19796Y-5245D01*
G01X19812Y-5234D01*
G01X19826Y-5221D01*
G01X19839Y-5207D01*
G01X19850Y-5191D01*
G01X19860Y-5175D01*
G01X19869Y-5158D01*
G01X19876Y-5139D01*
G01X19881Y-5120D01*
G01X19883Y-5100D01*
G01X19885Y-5080D01*
G01X19883Y-5060D01*
G01X19881Y-5040D01*
G01X19876Y-5021D01*
G01X19869Y-5002D01*
G01X19860Y-4985D01*
G01X19850Y-4969D01*
G01X19839Y-4953D01*
G01X19826Y-4939D01*
G01X19812Y-4926D01*
G01X19796Y-4915D01*
G01X19780Y-4905D01*
G01X19763Y-4896D01*
G01X19744Y-4889D01*
G01X19725Y-4884D01*
G01X19705Y-4882D01*
G37*
G36*
G01X-20955Y-4880D02*
G01X-20975Y-4882D01*
G01X-20995Y-4884D01*
G01X-21014Y-4889D01*
G01X-21033Y-4896D01*
G01X-21050Y-4905D01*
G01X-21066Y-4915D01*
G01X-21082Y-4926D01*
G01X-21096Y-4939D01*
G01X-21109Y-4953D01*
G01X-21120Y-4969D01*
G01X-21130Y-4985D01*
G01X-21139Y-5002D01*
G01X-21145Y-5021D01*
G01X-21151Y-5040D01*
G01X-21153Y-5060D01*
G01X-21154Y-5080D01*
G01X-21121D01*
G01X-21120Y-5063D01*
G01X-21118Y-5046D01*
G01X-21113Y-5031D01*
G01X-21108Y-5015D01*
G01X-21101Y-5001D01*
G01X-21093Y-4987D01*
G01X-21083Y-4974D01*
G01X-21072Y-4963D01*
G01X-21061Y-4952D01*
G01X-21048Y-4942D01*
G01X-21034Y-4934D01*
G01X-21020Y-4927D01*
G01X-21004Y-4922D01*
G01X-20989Y-4917D01*
G01X-20972Y-4915D01*
G01X-20955Y-4914D01*
G01X-20938Y-4915D01*
G01X-20921Y-4917D01*
G01X-20906Y-4922D01*
G01X-20890Y-4927D01*
G01X-20876Y-4934D01*
G01X-20862Y-4942D01*
G01X-20849Y-4952D01*
G01X-20838Y-4963D01*
G01X-20827Y-4974D01*
G01X-20817Y-4987D01*
G01X-20809Y-5001D01*
G01X-20802Y-5015D01*
G01X-20797Y-5031D01*
G01X-20792Y-5046D01*
G01X-20790Y-5063D01*
G01X-20789Y-5080D01*
G01X-20790Y-5097D01*
G01X-20792Y-5114D01*
G01X-20797Y-5129D01*
G01X-20802Y-5145D01*
G01X-20809Y-5159D01*
G01X-20817Y-5173D01*
G01X-20827Y-5186D01*
G01X-20838Y-5197D01*
G01X-20849Y-5208D01*
G01X-20862Y-5218D01*
G01X-20876Y-5226D01*
G01X-20890Y-5233D01*
G01X-20906Y-5238D01*
G01X-20921Y-5243D01*
G01X-20938Y-5245D01*
G01X-20955Y-5246D01*
G01X-20972Y-5245D01*
G01X-20989Y-5243D01*
G01X-21004Y-5238D01*
G01X-21020Y-5233D01*
G01X-21034Y-5226D01*
G01X-21048Y-5218D01*
G01X-21061Y-5208D01*
G01X-21072Y-5197D01*
G01X-21083Y-5186D01*
G01X-21093Y-5173D01*
G01X-21101Y-5159D01*
G01X-21108Y-5145D01*
G01X-21113Y-5129D01*
G01X-21118Y-5114D01*
G01X-21120Y-5097D01*
G01X-21121Y-5080D01*
G01X-21154D01*
G01X-21153Y-5100D01*
G01X-21151Y-5120D01*
G01X-21145Y-5139D01*
G01X-21139Y-5158D01*
G01X-21130Y-5175D01*
G01X-21120Y-5191D01*
G01X-21109Y-5207D01*
G01X-21096Y-5221D01*
G01X-21082Y-5234D01*
G01X-21066Y-5245D01*
G01X-21050Y-5255D01*
G01X-21033Y-5264D01*
G01X-21014Y-5270D01*
G01X-20995Y-5276D01*
G01X-20975Y-5278D01*
G01X-20955Y-5279D01*
G01X-20935Y-5278D01*
G01X-20915Y-5276D01*
G01X-20896Y-5270D01*
G01X-20877Y-5264D01*
G01X-20860Y-5255D01*
G01X-20844Y-5245D01*
G01X-20828Y-5234D01*
G01X-20814Y-5221D01*
G01X-20801Y-5207D01*
G01X-20790Y-5191D01*
G01X-20780Y-5175D01*
G01X-20771Y-5158D01*
G01X-20764Y-5139D01*
G01X-20759Y-5120D01*
G01X-20757Y-5100D01*
G01X-20755Y-5080D01*
G01X-20757Y-5060D01*
G01X-20759Y-5040D01*
G01X-20764Y-5021D01*
G01X-20771Y-5002D01*
G01X-20780Y-4985D01*
G01X-20790Y-4969D01*
G01X-20801Y-4953D01*
G01X-20814Y-4939D01*
G01X-20828Y-4926D01*
G01X-20844Y-4915D01*
G01X-20860Y-4905D01*
G01X-20877Y-4896D01*
G01X-20896Y-4889D01*
G01X-20915Y-4884D01*
G01X-20935Y-4882D01*
G37*
G36*
G01X-20002Y-3293D02*
G01X-20023Y-3294D01*
G01X-20043Y-3297D01*
G01X-20062Y-3302D01*
G01X-20080Y-3309D01*
G01X-20097Y-3317D01*
G01X-20114Y-3327D01*
G01X-20129Y-3339D01*
G01X-20144Y-3351D01*
G01X-20156Y-3365D01*
G01X-20168Y-3381D01*
G01X-20178Y-3398D01*
G01X-20186Y-3415D01*
G01X-20193Y-3433D01*
G01X-20198Y-3452D01*
G01X-20201Y-3472D01*
G01X-20202Y-3492D01*
G01X-20169D01*
G01X-20168Y-3476D01*
G01X-20165Y-3459D01*
G01X-20161Y-3443D01*
G01X-20155Y-3428D01*
G01X-20149Y-3413D01*
G01X-20140Y-3400D01*
G01X-20131Y-3387D01*
G01X-20120Y-3375D01*
G01X-20108Y-3364D01*
G01X-20095Y-3355D01*
G01X-20082Y-3346D01*
G01X-20067Y-3340D01*
G01X-20052Y-3334D01*
G01X-20036Y-3330D01*
G01X-20019Y-3327D01*
G01X-20002Y-3326D01*
G01X-19986Y-3327D01*
G01X-19969Y-3330D01*
G01X-19953Y-3334D01*
G01X-19938Y-3340D01*
G01X-19923Y-3346D01*
G01X-19910Y-3355D01*
G01X-19897Y-3364D01*
G01X-19885Y-3375D01*
G01X-19874Y-3387D01*
G01X-19865Y-3400D01*
G01X-19856Y-3413D01*
G01X-19850Y-3428D01*
G01X-19844Y-3443D01*
G01X-19840Y-3459D01*
G01X-19837Y-3476D01*
G01X-19836Y-3492D01*
G01X-19837Y-3509D01*
G01X-19840Y-3526D01*
G01X-19844Y-3542D01*
G01X-19850Y-3557D01*
G01X-19856Y-3572D01*
G01X-19865Y-3585D01*
G01X-19874Y-3598D01*
G01X-19885Y-3610D01*
G01X-19897Y-3621D01*
G01X-19910Y-3630D01*
G01X-19923Y-3639D01*
G01X-19938Y-3645D01*
G01X-19953Y-3651D01*
G01X-19969Y-3655D01*
G01X-19986Y-3658D01*
G01X-20002Y-3659D01*
G01X-20019Y-3658D01*
G01X-20036Y-3655D01*
G01X-20052Y-3651D01*
G01X-20067Y-3645D01*
G01X-20082Y-3639D01*
G01X-20095Y-3630D01*
G01X-20108Y-3621D01*
G01X-20120Y-3610D01*
G01X-20131Y-3598D01*
G01X-20140Y-3585D01*
G01X-20149Y-3572D01*
G01X-20155Y-3557D01*
G01X-20161Y-3542D01*
G01X-20165Y-3526D01*
G01X-20168Y-3509D01*
G01X-20169Y-3492D01*
G01X-20202D01*
G01X-20201Y-3513D01*
G01X-20198Y-3533D01*
G01X-20193Y-3552D01*
G01X-20186Y-3570D01*
G01X-20178Y-3587D01*
G01X-20168Y-3604D01*
G01X-20156Y-3619D01*
G01X-20144Y-3634D01*
G01X-20129Y-3646D01*
G01X-20114Y-3658D01*
G01X-20097Y-3668D01*
G01X-20080Y-3676D01*
G01X-20062Y-3683D01*
G01X-20043Y-3688D01*
G01X-20023Y-3691D01*
G01X-20002Y-3692D01*
G01X-19982Y-3691D01*
G01X-19962Y-3688D01*
G01X-19943Y-3683D01*
G01X-19925Y-3676D01*
G01X-19908Y-3668D01*
G01X-19891Y-3658D01*
G01X-19875Y-3646D01*
G01X-19861Y-3634D01*
G01X-19849Y-3619D01*
G01X-19837Y-3604D01*
G01X-19827Y-3587D01*
G01X-19819Y-3570D01*
G01X-19812Y-3552D01*
G01X-19807Y-3533D01*
G01X-19804Y-3513D01*
G01X-19803Y-3492D01*
G01X-19804Y-3472D01*
G01X-19807Y-3452D01*
G01X-19812Y-3433D01*
G01X-19819Y-3415D01*
G01X-19827Y-3398D01*
G01X-19837Y-3381D01*
G01X-19849Y-3365D01*
G01X-19861Y-3351D01*
G01X-19875Y-3339D01*
G01X-19891Y-3327D01*
G01X-19908Y-3317D01*
G01X-19925Y-3309D01*
G01X-19943Y-3302D01*
G01X-19962Y-3297D01*
G01X-19982Y-3294D01*
G37*
G36*
G01X-19367Y6232D02*
G01X-19388Y6231D01*
G01X-19408Y6228D01*
G01X-19427Y6223D01*
G01X-19445Y6216D01*
G01X-19462Y6208D01*
G01X-19479Y6198D01*
G01X-19494Y6186D01*
G01X-19509Y6174D01*
G01X-19521Y6160D01*
G01X-19533Y6144D01*
G01X-19543Y6127D01*
G01X-19551Y6110D01*
G01X-19558Y6092D01*
G01X-19563Y6073D01*
G01X-19566Y6053D01*
G01X-19567Y6033D01*
G01X-19534D01*
G01X-19533Y6049D01*
G01X-19530Y6066D01*
G01X-19526Y6082D01*
G01X-19520Y6097D01*
G01X-19514Y6112D01*
G01X-19505Y6125D01*
G01X-19496Y6138D01*
G01X-19485Y6150D01*
G01X-19473Y6161D01*
G01X-19460Y6170D01*
G01X-19447Y6179D01*
G01X-19432Y6185D01*
G01X-19417Y6191D01*
G01X-19401Y6195D01*
G01X-19384Y6198D01*
G01X-19367Y6199D01*
G01X-19351Y6198D01*
G01X-19334Y6195D01*
G01X-19318Y6191D01*
G01X-19303Y6185D01*
G01X-19288Y6179D01*
G01X-19275Y6170D01*
G01X-19262Y6161D01*
G01X-19250Y6150D01*
G01X-19239Y6138D01*
G01X-19230Y6125D01*
G01X-19221Y6112D01*
G01X-19215Y6097D01*
G01X-19209Y6082D01*
G01X-19205Y6066D01*
G01X-19202Y6049D01*
G01X-19201Y6033D01*
G01X-19202Y6016D01*
G01X-19205Y5999D01*
G01X-19209Y5983D01*
G01X-19215Y5968D01*
G01X-19221Y5953D01*
G01X-19230Y5940D01*
G01X-19239Y5927D01*
G01X-19250Y5915D01*
G01X-19262Y5904D01*
G01X-19275Y5895D01*
G01X-19288Y5886D01*
G01X-19303Y5880D01*
G01X-19318Y5874D01*
G01X-19334Y5870D01*
G01X-19351Y5867D01*
G01X-19367Y5866D01*
G01X-19384Y5867D01*
G01X-19401Y5870D01*
G01X-19417Y5874D01*
G01X-19432Y5880D01*
G01X-19447Y5886D01*
G01X-19460Y5895D01*
G01X-19473Y5904D01*
G01X-19485Y5915D01*
G01X-19496Y5927D01*
G01X-19505Y5940D01*
G01X-19514Y5953D01*
G01X-19520Y5968D01*
G01X-19526Y5983D01*
G01X-19530Y5999D01*
G01X-19533Y6016D01*
G01X-19534Y6033D01*
G01X-19567D01*
G01X-19566Y6012D01*
G01X-19563Y5992D01*
G01X-19558Y5973D01*
G01X-19551Y5955D01*
G01X-19543Y5938D01*
G01X-19533Y5921D01*
G01X-19521Y5906D01*
G01X-19509Y5891D01*
G01X-19494Y5879D01*
G01X-19479Y5867D01*
G01X-19462Y5857D01*
G01X-19445Y5849D01*
G01X-19427Y5842D01*
G01X-19408Y5837D01*
G01X-19388Y5834D01*
G01X-19367Y5833D01*
G01X-19347Y5834D01*
G01X-19327Y5837D01*
G01X-19308Y5842D01*
G01X-19290Y5849D01*
G01X-19273Y5857D01*
G01X-19256Y5867D01*
G01X-19240Y5879D01*
G01X-19226Y5891D01*
G01X-19214Y5906D01*
G01X-19202Y5921D01*
G01X-19192Y5938D01*
G01X-19184Y5955D01*
G01X-19177Y5973D01*
G01X-19172Y5992D01*
G01X-19169Y6012D01*
G01X-19168Y6033D01*
G01X-19169Y6053D01*
G01X-19172Y6073D01*
G01X-19177Y6092D01*
G01X-19184Y6110D01*
G01X-19192Y6127D01*
G01X-19202Y6144D01*
G01X-19214Y6160D01*
G01X-19226Y6174D01*
G01X-19240Y6186D01*
G01X-19256Y6198D01*
G01X-19273Y6208D01*
G01X-19290Y6216D01*
G01X-19308Y6223D01*
G01X-19327Y6228D01*
G01X-19347Y6231D01*
G37*
G36*
G01X-20002Y8455D02*
G01X-20023Y8453D01*
G01X-20043Y8451D01*
G01X-20062Y8446D01*
G01X-20080Y8439D01*
G01X-20097Y8430D01*
G01X-20114Y8420D01*
G01X-20129Y8409D01*
G01X-20144Y8396D01*
G01X-20156Y8382D01*
G01X-20168Y8366D01*
G01X-20178Y8350D01*
G01X-20186Y8333D01*
G01X-20193Y8314D01*
G01X-20198Y8295D01*
G01X-20201Y8275D01*
G01X-20202Y8255D01*
G01X-20169D01*
G01X-20168Y8272D01*
G01X-20165Y8289D01*
G01X-20161Y8304D01*
G01X-20155Y8320D01*
G01X-20149Y8334D01*
G01X-20140Y8348D01*
G01X-20131Y8361D01*
G01X-20120Y8372D01*
G01X-20108Y8383D01*
G01X-20095Y8393D01*
G01X-20082Y8401D01*
G01X-20067Y8408D01*
G01X-20052Y8413D01*
G01X-20036Y8418D01*
G01X-20019Y8420D01*
G01X-20002Y8421D01*
G01X-19986Y8420D01*
G01X-19969Y8418D01*
G01X-19953Y8413D01*
G01X-19938Y8408D01*
G01X-19923Y8401D01*
G01X-19910Y8393D01*
G01X-19897Y8383D01*
G01X-19885Y8372D01*
G01X-19874Y8361D01*
G01X-19865Y8348D01*
G01X-19856Y8334D01*
G01X-19850Y8320D01*
G01X-19844Y8304D01*
G01X-19840Y8289D01*
G01X-19837Y8272D01*
G01X-19836Y8255D01*
G01X-19837Y8238D01*
G01X-19840Y8221D01*
G01X-19844Y8206D01*
G01X-19850Y8190D01*
G01X-19856Y8176D01*
G01X-19865Y8162D01*
G01X-19874Y8149D01*
G01X-19885Y8138D01*
G01X-19897Y8127D01*
G01X-19910Y8117D01*
G01X-19923Y8109D01*
G01X-19938Y8102D01*
G01X-19953Y8097D01*
G01X-19969Y8092D01*
G01X-19986Y8090D01*
G01X-20002Y8089D01*
G01X-20019Y8090D01*
G01X-20036Y8092D01*
G01X-20052Y8097D01*
G01X-20067Y8102D01*
G01X-20082Y8109D01*
G01X-20095Y8117D01*
G01X-20108Y8127D01*
G01X-20120Y8138D01*
G01X-20131Y8149D01*
G01X-20140Y8162D01*
G01X-20149Y8176D01*
G01X-20155Y8190D01*
G01X-20161Y8206D01*
G01X-20165Y8221D01*
G01X-20168Y8238D01*
G01X-20169Y8255D01*
G01X-20202D01*
G01X-20201Y8235D01*
G01X-20198Y8215D01*
G01X-20193Y8196D01*
G01X-20186Y8177D01*
G01X-20178Y8160D01*
G01X-20168Y8144D01*
G01X-20156Y8128D01*
G01X-20144Y8114D01*
G01X-20129Y8101D01*
G01X-20114Y8090D01*
G01X-20097Y8080D01*
G01X-20080Y8071D01*
G01X-20062Y8065D01*
G01X-20043Y8059D01*
G01X-20023Y8057D01*
G01X-20002Y8056D01*
G01X-19982Y8057D01*
G01X-19962Y8059D01*
G01X-19943Y8065D01*
G01X-19925Y8071D01*
G01X-19908Y8080D01*
G01X-19891Y8090D01*
G01X-19875Y8101D01*
G01X-19861Y8114D01*
G01X-19849Y8128D01*
G01X-19837Y8144D01*
G01X-19827Y8160D01*
G01X-19819Y8177D01*
G01X-19812Y8196D01*
G01X-19807Y8215D01*
G01X-19804Y8235D01*
G01X-19803Y8255D01*
G01X-19804Y8275D01*
G01X-19807Y8295D01*
G01X-19812Y8314D01*
G01X-19819Y8333D01*
G01X-19827Y8350D01*
G01X-19837Y8366D01*
G01X-19849Y8382D01*
G01X-19861Y8396D01*
G01X-19875Y8409D01*
G01X-19891Y8420D01*
G01X-19908Y8430D01*
G01X-19925Y8439D01*
G01X-19943Y8446D01*
G01X-19962Y8451D01*
G01X-19982Y8453D01*
G37*
G36*
G01X-6350Y19567D02*
G01X-6370Y19566D01*
G01X-6390Y19563D01*
G01X-6409Y19558D01*
G01X-6428Y19551D01*
G01X-6445Y19543D01*
G01X-6461Y19533D01*
G01X-6477Y19521D01*
G01X-6491Y19509D01*
G01X-6504Y19495D01*
G01X-6515Y19479D01*
G01X-6525Y19462D01*
G01X-6534Y19445D01*
G01X-6540Y19427D01*
G01X-6546Y19408D01*
G01X-6548Y19388D01*
G01X-6549Y19368D01*
G01X-6516D01*
G01X-6515Y19384D01*
G01X-6513Y19401D01*
G01X-6508Y19417D01*
G01X-6503Y19432D01*
G01X-6496Y19447D01*
G01X-6488Y19460D01*
G01X-6478Y19473D01*
G01X-6467Y19485D01*
G01X-6456Y19496D01*
G01X-6443Y19505D01*
G01X-6429Y19514D01*
G01X-6415Y19520D01*
G01X-6399Y19526D01*
G01X-6384Y19530D01*
G01X-6367Y19533D01*
G01X-6350Y19534D01*
G01X-6333Y19533D01*
G01X-6316Y19530D01*
G01X-6301Y19526D01*
G01X-6285Y19520D01*
G01X-6271Y19514D01*
G01X-6257Y19505D01*
G01X-6244Y19496D01*
G01X-6233Y19485D01*
G01X-6222Y19473D01*
G01X-6212Y19460D01*
G01X-6204Y19447D01*
G01X-6197Y19432D01*
G01X-6192Y19417D01*
G01X-6187Y19401D01*
G01X-6185Y19384D01*
G01X-6184Y19368D01*
G01X-6185Y19351D01*
G01X-6187Y19334D01*
G01X-6192Y19318D01*
G01X-6197Y19303D01*
G01X-6204Y19288D01*
G01X-6212Y19275D01*
G01X-6222Y19262D01*
G01X-6233Y19250D01*
G01X-6244Y19239D01*
G01X-6257Y19230D01*
G01X-6271Y19221D01*
G01X-6285Y19215D01*
G01X-6301Y19209D01*
G01X-6316Y19205D01*
G01X-6333Y19202D01*
G01X-6350Y19201D01*
G01X-6367Y19202D01*
G01X-6384Y19205D01*
G01X-6399Y19209D01*
G01X-6415Y19215D01*
G01X-6429Y19221D01*
G01X-6443Y19230D01*
G01X-6456Y19239D01*
G01X-6467Y19250D01*
G01X-6478Y19262D01*
G01X-6488Y19275D01*
G01X-6496Y19288D01*
G01X-6503Y19303D01*
G01X-6508Y19318D01*
G01X-6513Y19334D01*
G01X-6515Y19351D01*
G01X-6516Y19368D01*
G01X-6549D01*
G01X-6548Y19347D01*
G01X-6546Y19327D01*
G01X-6540Y19308D01*
G01X-6534Y19290D01*
G01X-6525Y19273D01*
G01X-6515Y19256D01*
G01X-6504Y19241D01*
G01X-6491Y19226D01*
G01X-6477Y19214D01*
G01X-6461Y19202D01*
G01X-6445Y19192D01*
G01X-6428Y19184D01*
G01X-6409Y19177D01*
G01X-6390Y19172D01*
G01X-6370Y19169D01*
G01X-6350Y19168D01*
G01X-6330Y19169D01*
G01X-6310Y19172D01*
G01X-6291Y19177D01*
G01X-6272Y19184D01*
G01X-6255Y19192D01*
G01X-6239Y19202D01*
G01X-6223Y19214D01*
G01X-6209Y19226D01*
G01X-6196Y19241D01*
G01X-6185Y19256D01*
G01X-6175Y19273D01*
G01X-6166Y19290D01*
G01X-6159Y19308D01*
G01X-6154Y19327D01*
G01X-6152Y19347D01*
G01X-6150Y19368D01*
G01X-6152Y19388D01*
G01X-6154Y19408D01*
G01X-6159Y19427D01*
G01X-6166Y19445D01*
G01X-6175Y19462D01*
G01X-6185Y19479D01*
G01X-6196Y19495D01*
G01X-6209Y19509D01*
G01X-6223Y19521D01*
G01X-6239Y19533D01*
G01X-6255Y19543D01*
G01X-6272Y19551D01*
G01X-6291Y19558D01*
G01X-6310Y19563D01*
G01X-6330Y19566D01*
G37*
G36*
G01X5080Y21155D02*
G01X5060Y21153D01*
G01X5040Y21151D01*
G01X5021Y21146D01*
G01X5002Y21139D01*
G01X4985Y21130D01*
G01X4969Y21120D01*
G01X4953Y21109D01*
G01X4939Y21096D01*
G01X4926Y21082D01*
G01X4915Y21066D01*
G01X4905Y21050D01*
G01X4896Y21033D01*
G01X4890Y21014D01*
G01X4884Y20995D01*
G01X4882Y20975D01*
G01X4881Y20955D01*
G01X4914D01*
G01X4915Y20972D01*
G01X4917Y20989D01*
G01X4922Y21004D01*
G01X4927Y21020D01*
G01X4934Y21034D01*
G01X4942Y21048D01*
G01X4952Y21061D01*
G01X4963Y21072D01*
G01X4974Y21083D01*
G01X4987Y21093D01*
G01X5001Y21101D01*
G01X5015Y21108D01*
G01X5031Y21113D01*
G01X5046Y21118D01*
G01X5063Y21120D01*
G01X5080Y21121D01*
G01X5097Y21120D01*
G01X5114Y21118D01*
G01X5129Y21113D01*
G01X5145Y21108D01*
G01X5159Y21101D01*
G01X5173Y21093D01*
G01X5186Y21083D01*
G01X5197Y21072D01*
G01X5208Y21061D01*
G01X5218Y21048D01*
G01X5226Y21034D01*
G01X5233Y21020D01*
G01X5238Y21004D01*
G01X5243Y20989D01*
G01X5245Y20972D01*
G01X5246Y20955D01*
G01X5245Y20938D01*
G01X5243Y20921D01*
G01X5238Y20906D01*
G01X5233Y20890D01*
G01X5226Y20876D01*
G01X5218Y20862D01*
G01X5208Y20849D01*
G01X5197Y20838D01*
G01X5186Y20827D01*
G01X5173Y20817D01*
G01X5159Y20809D01*
G01X5145Y20802D01*
G01X5129Y20797D01*
G01X5114Y20792D01*
G01X5097Y20790D01*
G01X5080Y20789D01*
G01X5063Y20790D01*
G01X5046Y20792D01*
G01X5031Y20797D01*
G01X5015Y20802D01*
G01X5001Y20809D01*
G01X4987Y20817D01*
G01X4974Y20827D01*
G01X4963Y20838D01*
G01X4952Y20849D01*
G01X4942Y20862D01*
G01X4934Y20876D01*
G01X4927Y20890D01*
G01X4922Y20906D01*
G01X4917Y20921D01*
G01X4915Y20938D01*
G01X4914Y20955D01*
G01X4881D01*
G01X4882Y20935D01*
G01X4884Y20915D01*
G01X4890Y20896D01*
G01X4896Y20877D01*
G01X4905Y20860D01*
G01X4915Y20844D01*
G01X4926Y20828D01*
G01X4939Y20814D01*
G01X4953Y20801D01*
G01X4969Y20790D01*
G01X4985Y20780D01*
G01X5002Y20771D01*
G01X5021Y20765D01*
G01X5040Y20759D01*
G01X5060Y20757D01*
G01X5080Y20756D01*
G01X5100Y20757D01*
G01X5120Y20759D01*
G01X5139Y20765D01*
G01X5158Y20771D01*
G01X5175Y20780D01*
G01X5191Y20790D01*
G01X5207Y20801D01*
G01X5221Y20814D01*
G01X5234Y20828D01*
G01X5245Y20844D01*
G01X5255Y20860D01*
G01X5264Y20877D01*
G01X5271Y20896D01*
G01X5276Y20915D01*
G01X5278Y20935D01*
G01X5280Y20955D01*
G01X5278Y20975D01*
G01X5276Y20995D01*
G01X5271Y21014D01*
G01X5264Y21033D01*
G01X5255Y21050D01*
G01X5245Y21066D01*
G01X5234Y21082D01*
G01X5221Y21096D01*
G01X5207Y21109D01*
G01X5191Y21120D01*
G01X5175Y21130D01*
G01X5158Y21139D01*
G01X5139Y21146D01*
G01X5120Y21151D01*
G01X5100Y21153D01*
G37*
G36*
G01X18415Y-11230D02*
G01X18395Y-11232D01*
G01X18375Y-11234D01*
G01X18356Y-11239D01*
G01X18337Y-11246D01*
G01X18320Y-11255D01*
G01X18304Y-11265D01*
G01X18288Y-11276D01*
G01X18274Y-11289D01*
G01X18261Y-11303D01*
G01X18250Y-11319D01*
G01X18240Y-11335D01*
G01X18231Y-11352D01*
G01X18225Y-11371D01*
G01X18219Y-11390D01*
G01X18217Y-11410D01*
G01X18216Y-11430D01*
G01X18249D01*
G01X18250Y-11413D01*
G01X18252Y-11396D01*
G01X18257Y-11381D01*
G01X18262Y-11365D01*
G01X18269Y-11351D01*
G01X18277Y-11337D01*
G01X18287Y-11324D01*
G01X18298Y-11313D01*
G01X18309Y-11302D01*
G01X18322Y-11292D01*
G01X18336Y-11284D01*
G01X18350Y-11277D01*
G01X18366Y-11272D01*
G01X18381Y-11267D01*
G01X18398Y-11265D01*
G01X18415Y-11264D01*
G01X18432Y-11265D01*
G01X18449Y-11267D01*
G01X18464Y-11272D01*
G01X18480Y-11277D01*
G01X18494Y-11284D01*
G01X18508Y-11292D01*
G01X18521Y-11302D01*
G01X18532Y-11313D01*
G01X18543Y-11324D01*
G01X18553Y-11337D01*
G01X18561Y-11351D01*
G01X18568Y-11365D01*
G01X18573Y-11381D01*
G01X18578Y-11396D01*
G01X18580Y-11413D01*
G01X18581Y-11430D01*
G01X18580Y-11447D01*
G01X18578Y-11464D01*
G01X18573Y-11479D01*
G01X18568Y-11495D01*
G01X18561Y-11509D01*
G01X18553Y-11523D01*
G01X18543Y-11536D01*
G01X18532Y-11547D01*
G01X18521Y-11558D01*
G01X18508Y-11568D01*
G01X18494Y-11576D01*
G01X18480Y-11583D01*
G01X18464Y-11588D01*
G01X18449Y-11593D01*
G01X18432Y-11595D01*
G01X18415Y-11596D01*
G01X18398Y-11595D01*
G01X18381Y-11593D01*
G01X18366Y-11588D01*
G01X18350Y-11583D01*
G01X18336Y-11576D01*
G01X18322Y-11568D01*
G01X18309Y-11558D01*
G01X18298Y-11547D01*
G01X18287Y-11536D01*
G01X18277Y-11523D01*
G01X18269Y-11509D01*
G01X18262Y-11495D01*
G01X18257Y-11479D01*
G01X18252Y-11464D01*
G01X18250Y-11447D01*
G01X18249Y-11430D01*
G01X18216D01*
G01X18217Y-11450D01*
G01X18219Y-11470D01*
G01X18225Y-11489D01*
G01X18231Y-11508D01*
G01X18240Y-11525D01*
G01X18250Y-11541D01*
G01X18261Y-11557D01*
G01X18274Y-11571D01*
G01X18288Y-11584D01*
G01X18304Y-11595D01*
G01X18320Y-11605D01*
G01X18337Y-11614D01*
G01X18356Y-11620D01*
G01X18375Y-11626D01*
G01X18395Y-11628D01*
G01X18415Y-11629D01*
G01X18435Y-11628D01*
G01X18455Y-11626D01*
G01X18474Y-11620D01*
G01X18493Y-11614D01*
G01X18510Y-11605D01*
G01X18526Y-11595D01*
G01X18542Y-11584D01*
G01X18556Y-11571D01*
G01X18569Y-11557D01*
G01X18580Y-11541D01*
G01X18590Y-11525D01*
G01X18599Y-11508D01*
G01X18606Y-11489D01*
G01X18611Y-11470D01*
G01X18613Y-11450D01*
G01X18615Y-11430D01*
G01X18613Y-11410D01*
G01X18611Y-11390D01*
G01X18606Y-11371D01*
G01X18599Y-11352D01*
G01X18590Y-11335D01*
G01X18580Y-11319D01*
G01X18569Y-11303D01*
G01X18556Y-11289D01*
G01X18542Y-11276D01*
G01X18526Y-11265D01*
G01X18510Y-11255D01*
G01X18493Y-11246D01*
G01X18474Y-11239D01*
G01X18455Y-11234D01*
G01X18435Y-11232D01*
G37*
G36*
G01X-4762Y-753D02*
G01X-4783Y-754D01*
G01X-4803Y-757D01*
G01X-4822Y-762D01*
G01X-4840Y-769D01*
G01X-4857Y-777D01*
G01X-4874Y-787D01*
G01X-4889Y-799D01*
G01X-4904Y-811D01*
G01X-4916Y-825D01*
G01X-4928Y-841D01*
G01X-4938Y-858D01*
G01X-4946Y-875D01*
G01X-4953Y-893D01*
G01X-4958Y-912D01*
G01X-4961Y-932D01*
G01X-4962Y-952D01*
G01X-4929D01*
G01X-4928Y-936D01*
G01X-4925Y-919D01*
G01X-4921Y-903D01*
G01X-4915Y-888D01*
G01X-4909Y-873D01*
G01X-4900Y-860D01*
G01X-4891Y-847D01*
G01X-4880Y-835D01*
G01X-4868Y-824D01*
G01X-4855Y-815D01*
G01X-4842Y-806D01*
G01X-4827Y-800D01*
G01X-4812Y-794D01*
G01X-4796Y-790D01*
G01X-4779Y-787D01*
G01X-4762Y-786D01*
G01X-4746Y-787D01*
G01X-4729Y-790D01*
G01X-4713Y-794D01*
G01X-4698Y-800D01*
G01X-4683Y-806D01*
G01X-4670Y-815D01*
G01X-4657Y-824D01*
G01X-4645Y-835D01*
G01X-4634Y-847D01*
G01X-4625Y-860D01*
G01X-4616Y-873D01*
G01X-4610Y-888D01*
G01X-4604Y-903D01*
G01X-4600Y-919D01*
G01X-4597Y-936D01*
G01X-4596Y-952D01*
G01X-4597Y-969D01*
G01X-4600Y-986D01*
G01X-4604Y-1002D01*
G01X-4610Y-1017D01*
G01X-4616Y-1032D01*
G01X-4625Y-1045D01*
G01X-4634Y-1058D01*
G01X-4645Y-1070D01*
G01X-4657Y-1081D01*
G01X-4670Y-1090D01*
G01X-4683Y-1099D01*
G01X-4698Y-1105D01*
G01X-4713Y-1111D01*
G01X-4729Y-1115D01*
G01X-4746Y-1118D01*
G01X-4762Y-1119D01*
G01X-4779Y-1118D01*
G01X-4796Y-1115D01*
G01X-4812Y-1111D01*
G01X-4827Y-1105D01*
G01X-4842Y-1099D01*
G01X-4855Y-1090D01*
G01X-4868Y-1081D01*
G01X-4880Y-1070D01*
G01X-4891Y-1058D01*
G01X-4900Y-1045D01*
G01X-4909Y-1032D01*
G01X-4915Y-1017D01*
G01X-4921Y-1002D01*
G01X-4925Y-986D01*
G01X-4928Y-969D01*
G01X-4929Y-952D01*
G01X-4962D01*
G01X-4961Y-973D01*
G01X-4958Y-993D01*
G01X-4953Y-1012D01*
G01X-4946Y-1030D01*
G01X-4938Y-1047D01*
G01X-4928Y-1064D01*
G01X-4916Y-1079D01*
G01X-4904Y-1094D01*
G01X-4889Y-1106D01*
G01X-4874Y-1118D01*
G01X-4857Y-1128D01*
G01X-4840Y-1136D01*
G01X-4822Y-1143D01*
G01X-4803Y-1148D01*
G01X-4783Y-1151D01*
G01X-4762Y-1152D01*
G01X-4742Y-1151D01*
G01X-4722Y-1148D01*
G01X-4703Y-1143D01*
G01X-4685Y-1136D01*
G01X-4668Y-1128D01*
G01X-4651Y-1118D01*
G01X-4635Y-1106D01*
G01X-4621Y-1094D01*
G01X-4609Y-1079D01*
G01X-4597Y-1064D01*
G01X-4587Y-1047D01*
G01X-4579Y-1030D01*
G01X-4572Y-1012D01*
G01X-4567Y-993D01*
G01X-4564Y-973D01*
G01X-4563Y-952D01*
G01X-4564Y-932D01*
G01X-4567Y-912D01*
G01X-4572Y-893D01*
G01X-4579Y-875D01*
G01X-4587Y-858D01*
G01X-4597Y-841D01*
G01X-4609Y-825D01*
G01X-4621Y-811D01*
G01X-4635Y-799D01*
G01X-4651Y-787D01*
G01X-4668Y-777D01*
G01X-4685Y-769D01*
G01X-4703Y-762D01*
G01X-4722Y-757D01*
G01X-4742Y-754D01*
G37*
G36*
G01X-6032Y10360D02*
G01X-6053Y10358D01*
G01X-6073Y10356D01*
G01X-6092Y10351D01*
G01X-6110Y10344D01*
G01X-6127Y10335D01*
G01X-6144Y10325D01*
G01X-6159Y10314D01*
G01X-6174Y10301D01*
G01X-6186Y10287D01*
G01X-6198Y10271D01*
G01X-6208Y10255D01*
G01X-6216Y10238D01*
G01X-6223Y10219D01*
G01X-6228Y10200D01*
G01X-6231Y10180D01*
G01X-6232Y10160D01*
G01X-6199D01*
G01X-6198Y10177D01*
G01X-6195Y10194D01*
G01X-6191Y10209D01*
G01X-6185Y10225D01*
G01X-6179Y10239D01*
G01X-6170Y10253D01*
G01X-6161Y10266D01*
G01X-6150Y10277D01*
G01X-6138Y10288D01*
G01X-6125Y10298D01*
G01X-6112Y10306D01*
G01X-6097Y10313D01*
G01X-6082Y10318D01*
G01X-6066Y10323D01*
G01X-6049Y10325D01*
G01X-6032Y10326D01*
G01X-6016Y10325D01*
G01X-5999Y10323D01*
G01X-5983Y10318D01*
G01X-5968Y10313D01*
G01X-5953Y10306D01*
G01X-5940Y10298D01*
G01X-5927Y10288D01*
G01X-5915Y10277D01*
G01X-5904Y10266D01*
G01X-5895Y10253D01*
G01X-5886Y10239D01*
G01X-5880Y10225D01*
G01X-5874Y10209D01*
G01X-5870Y10194D01*
G01X-5867Y10177D01*
G01X-5866Y10160D01*
G01X-5867Y10143D01*
G01X-5870Y10126D01*
G01X-5874Y10111D01*
G01X-5880Y10095D01*
G01X-5886Y10081D01*
G01X-5895Y10067D01*
G01X-5904Y10054D01*
G01X-5915Y10043D01*
G01X-5927Y10032D01*
G01X-5940Y10022D01*
G01X-5953Y10014D01*
G01X-5968Y10007D01*
G01X-5983Y10002D01*
G01X-5999Y9997D01*
G01X-6016Y9995D01*
G01X-6032Y9994D01*
G01X-6049Y9995D01*
G01X-6066Y9997D01*
G01X-6082Y10002D01*
G01X-6097Y10007D01*
G01X-6112Y10014D01*
G01X-6125Y10022D01*
G01X-6138Y10032D01*
G01X-6150Y10043D01*
G01X-6161Y10054D01*
G01X-6170Y10067D01*
G01X-6179Y10081D01*
G01X-6185Y10095D01*
G01X-6191Y10111D01*
G01X-6195Y10126D01*
G01X-6198Y10143D01*
G01X-6199Y10160D01*
G01X-6232D01*
G01X-6231Y10140D01*
G01X-6228Y10120D01*
G01X-6223Y10101D01*
G01X-6216Y10082D01*
G01X-6208Y10065D01*
G01X-6198Y10049D01*
G01X-6186Y10033D01*
G01X-6174Y10019D01*
G01X-6159Y10006D01*
G01X-6144Y9995D01*
G01X-6127Y9985D01*
G01X-6110Y9976D01*
G01X-6092Y9970D01*
G01X-6073Y9964D01*
G01X-6053Y9962D01*
G01X-6032Y9961D01*
G01X-6012Y9962D01*
G01X-5992Y9964D01*
G01X-5973Y9970D01*
G01X-5955Y9976D01*
G01X-5938Y9985D01*
G01X-5921Y9995D01*
G01X-5905Y10006D01*
G01X-5891Y10019D01*
G01X-5879Y10033D01*
G01X-5867Y10049D01*
G01X-5857Y10065D01*
G01X-5849Y10082D01*
G01X-5842Y10101D01*
G01X-5837Y10120D01*
G01X-5834Y10140D01*
G01X-5833Y10160D01*
G01X-5834Y10180D01*
G01X-5837Y10200D01*
G01X-5842Y10219D01*
G01X-5849Y10238D01*
G01X-5857Y10255D01*
G01X-5867Y10271D01*
G01X-5879Y10287D01*
G01X-5891Y10301D01*
G01X-5905Y10314D01*
G01X-5921Y10325D01*
G01X-5938Y10335D01*
G01X-5955Y10344D01*
G01X-5973Y10351D01*
G01X-5992Y10356D01*
G01X-6012Y10358D01*
G37*
G36*
G01X-20320Y199D02*
G01X-20340Y198D01*
G01X-20360Y196D01*
G01X-20379Y191D01*
G01X-20398Y184D01*
G01X-20415Y175D01*
G01X-20431Y165D01*
G01X-20447Y154D01*
G01X-20461Y141D01*
G01X-20474Y127D01*
G01X-20485Y111D01*
G01X-20495Y95D01*
G01X-20504Y78D01*
G01X-20510Y59D01*
G01X-20516Y40D01*
G01X-20518Y20D01*
G01X-20519Y0D01*
G01X-20486D01*
G01X-20485Y17D01*
G01X-20483Y34D01*
G01X-20478Y49D01*
G01X-20473Y65D01*
G01X-20466Y79D01*
G01X-20458Y93D01*
G01X-20448Y106D01*
G01X-20437Y117D01*
G01X-20426Y128D01*
G01X-20413Y138D01*
G01X-20399Y146D01*
G01X-20385Y153D01*
G01X-20369Y158D01*
G01X-20354Y163D01*
G01X-20337Y165D01*
G01X-20320Y166D01*
G01X-20303Y165D01*
G01X-20286Y163D01*
G01X-20271Y158D01*
G01X-20255Y153D01*
G01X-20241Y146D01*
G01X-20227Y138D01*
G01X-20214Y128D01*
G01X-20203Y117D01*
G01X-20192Y106D01*
G01X-20182Y93D01*
G01X-20174Y79D01*
G01X-20167Y65D01*
G01X-20162Y49D01*
G01X-20157Y34D01*
G01X-20155Y17D01*
G01X-20154Y0D01*
G01X-20155Y-17D01*
G01X-20157Y-34D01*
G01X-20162Y-49D01*
G01X-20167Y-65D01*
G01X-20174Y-79D01*
G01X-20182Y-93D01*
G01X-20192Y-106D01*
G01X-20203Y-117D01*
G01X-20214Y-128D01*
G01X-20227Y-138D01*
G01X-20241Y-146D01*
G01X-20255Y-153D01*
G01X-20271Y-158D01*
G01X-20286Y-163D01*
G01X-20303Y-165D01*
G01X-20320Y-166D01*
G01X-20337Y-165D01*
G01X-20354Y-163D01*
G01X-20369Y-158D01*
G01X-20385Y-153D01*
G01X-20399Y-146D01*
G01X-20413Y-138D01*
G01X-20426Y-128D01*
G01X-20437Y-117D01*
G01X-20448Y-106D01*
G01X-20458Y-93D01*
G01X-20466Y-79D01*
G01X-20473Y-65D01*
G01X-20478Y-49D01*
G01X-20483Y-34D01*
G01X-20485Y-17D01*
G01X-20486Y0D01*
G01X-20519D01*
G01X-20518Y-20D01*
G01X-20516Y-40D01*
G01X-20510Y-59D01*
G01X-20504Y-78D01*
G01X-20495Y-95D01*
G01X-20485Y-111D01*
G01X-20474Y-127D01*
G01X-20461Y-141D01*
G01X-20447Y-154D01*
G01X-20431Y-165D01*
G01X-20415Y-175D01*
G01X-20398Y-184D01*
G01X-20379Y-190D01*
G01X-20360Y-196D01*
G01X-20340Y-198D01*
G01X-20320Y-199D01*
G01X-20300Y-198D01*
G01X-20280Y-196D01*
G01X-20261Y-190D01*
G01X-20242Y-184D01*
G01X-20225Y-175D01*
G01X-20209Y-165D01*
G01X-20193Y-154D01*
G01X-20179Y-141D01*
G01X-20166Y-127D01*
G01X-20155Y-111D01*
G01X-20145Y-95D01*
G01X-20136Y-78D01*
G01X-20129Y-59D01*
G01X-20124Y-40D01*
G01X-20122Y-20D01*
G01X-20120Y0D01*
G01X-20122Y20D01*
G01X-20124Y40D01*
G01X-20129Y59D01*
G01X-20136Y78D01*
G01X-20145Y95D01*
G01X-20155Y111D01*
G01X-20166Y127D01*
G01X-20179Y141D01*
G01X-20193Y154D01*
G01X-20209Y165D01*
G01X-20225Y175D01*
G01X-20242Y184D01*
G01X-20261Y191D01*
G01X-20280Y196D01*
G01X-20300Y198D01*
G37*
G36*
G01X18733Y2422D02*
G01X18712Y2421D01*
G01X18692Y2418D01*
G01X18673Y2413D01*
G01X18655Y2406D01*
G01X18638Y2398D01*
G01X18621Y2388D01*
G01X18606Y2376D01*
G01X18591Y2364D01*
G01X18579Y2350D01*
G01X18567Y2334D01*
G01X18557Y2317D01*
G01X18549Y2300D01*
G01X18542Y2282D01*
G01X18537Y2263D01*
G01X18534Y2243D01*
G01X18533Y2223D01*
G01X18566D01*
G01X18567Y2239D01*
G01X18570Y2256D01*
G01X18574Y2272D01*
G01X18580Y2287D01*
G01X18586Y2302D01*
G01X18595Y2315D01*
G01X18604Y2328D01*
G01X18615Y2340D01*
G01X18627Y2351D01*
G01X18640Y2360D01*
G01X18653Y2369D01*
G01X18668Y2375D01*
G01X18683Y2381D01*
G01X18699Y2385D01*
G01X18716Y2388D01*
G01X18733Y2389D01*
G01X18749Y2388D01*
G01X18766Y2385D01*
G01X18782Y2381D01*
G01X18797Y2375D01*
G01X18812Y2369D01*
G01X18825Y2360D01*
G01X18838Y2351D01*
G01X18850Y2340D01*
G01X18861Y2328D01*
G01X18870Y2315D01*
G01X18879Y2302D01*
G01X18885Y2287D01*
G01X18891Y2272D01*
G01X18895Y2256D01*
G01X18898Y2239D01*
G01X18899Y2223D01*
G01X18898Y2206D01*
G01X18895Y2189D01*
G01X18891Y2173D01*
G01X18885Y2158D01*
G01X18879Y2143D01*
G01X18870Y2130D01*
G01X18861Y2117D01*
G01X18850Y2105D01*
G01X18838Y2094D01*
G01X18825Y2085D01*
G01X18812Y2076D01*
G01X18797Y2070D01*
G01X18782Y2064D01*
G01X18766Y2060D01*
G01X18749Y2057D01*
G01X18733Y2056D01*
G01X18716Y2057D01*
G01X18699Y2060D01*
G01X18683Y2064D01*
G01X18668Y2070D01*
G01X18653Y2076D01*
G01X18640Y2085D01*
G01X18627Y2094D01*
G01X18615Y2105D01*
G01X18604Y2117D01*
G01X18595Y2130D01*
G01X18586Y2143D01*
G01X18580Y2158D01*
G01X18574Y2173D01*
G01X18570Y2189D01*
G01X18567Y2206D01*
G01X18566Y2223D01*
G01X18533D01*
G01X18534Y2202D01*
G01X18537Y2182D01*
G01X18542Y2163D01*
G01X18549Y2145D01*
G01X18557Y2128D01*
G01X18567Y2111D01*
G01X18579Y2096D01*
G01X18591Y2081D01*
G01X18606Y2069D01*
G01X18621Y2057D01*
G01X18638Y2047D01*
G01X18655Y2039D01*
G01X18673Y2032D01*
G01X18692Y2027D01*
G01X18712Y2024D01*
G01X18733Y2023D01*
G01X18753Y2024D01*
G01X18773Y2027D01*
G01X18792Y2032D01*
G01X18810Y2039D01*
G01X18827Y2047D01*
G01X18844Y2057D01*
G01X18860Y2069D01*
G01X18874Y2081D01*
G01X18886Y2096D01*
G01X18898Y2111D01*
G01X18908Y2128D01*
G01X18916Y2145D01*
G01X18923Y2163D01*
G01X18928Y2182D01*
G01X18931Y2202D01*
G01X18932Y2223D01*
G01X18931Y2243D01*
G01X18928Y2263D01*
G01X18923Y2282D01*
G01X18916Y2300D01*
G01X18908Y2317D01*
G01X18898Y2334D01*
G01X18886Y2350D01*
G01X18874Y2364D01*
G01X18860Y2376D01*
G01X18844Y2388D01*
G01X18827Y2398D01*
G01X18810Y2406D01*
G01X18792Y2413D01*
G01X18773Y2418D01*
G01X18753Y2421D01*
G37*
G36*
G01X-14605Y-8690D02*
G01X-14625Y-8692D01*
G01X-14645Y-8694D01*
G01X-14664Y-8699D01*
G01X-14683Y-8706D01*
G01X-14700Y-8715D01*
G01X-14716Y-8725D01*
G01X-14732Y-8736D01*
G01X-14746Y-8749D01*
G01X-14759Y-8763D01*
G01X-14770Y-8779D01*
G01X-14780Y-8795D01*
G01X-14789Y-8812D01*
G01X-14795Y-8831D01*
G01X-14801Y-8850D01*
G01X-14803Y-8870D01*
G01X-14805Y-8890D01*
G01X-14771D01*
G01X-14770Y-8873D01*
G01X-14768Y-8856D01*
G01X-14763Y-8841D01*
G01X-14758Y-8825D01*
G01X-14751Y-8811D01*
G01X-14743Y-8797D01*
G01X-14733Y-8784D01*
G01X-14722Y-8773D01*
G01X-14711Y-8762D01*
G01X-14698Y-8752D01*
G01X-14684Y-8744D01*
G01X-14670Y-8737D01*
G01X-14654Y-8732D01*
G01X-14639Y-8727D01*
G01X-14622Y-8725D01*
G01X-14605Y-8724D01*
G01X-14588Y-8725D01*
G01X-14571Y-8727D01*
G01X-14556Y-8732D01*
G01X-14540Y-8737D01*
G01X-14526Y-8744D01*
G01X-14512Y-8752D01*
G01X-14499Y-8762D01*
G01X-14488Y-8773D01*
G01X-14477Y-8784D01*
G01X-14467Y-8797D01*
G01X-14459Y-8811D01*
G01X-14452Y-8825D01*
G01X-14447Y-8841D01*
G01X-14442Y-8856D01*
G01X-14440Y-8873D01*
G01X-14439Y-8890D01*
G01X-14440Y-8907D01*
G01X-14442Y-8924D01*
G01X-14447Y-8939D01*
G01X-14452Y-8955D01*
G01X-14459Y-8969D01*
G01X-14467Y-8983D01*
G01X-14477Y-8996D01*
G01X-14488Y-9007D01*
G01X-14499Y-9018D01*
G01X-14512Y-9028D01*
G01X-14526Y-9036D01*
G01X-14540Y-9043D01*
G01X-14556Y-9048D01*
G01X-14571Y-9053D01*
G01X-14588Y-9055D01*
G01X-14605Y-9056D01*
G01X-14622Y-9055D01*
G01X-14639Y-9053D01*
G01X-14654Y-9048D01*
G01X-14670Y-9043D01*
G01X-14684Y-9036D01*
G01X-14698Y-9028D01*
G01X-14711Y-9018D01*
G01X-14722Y-9007D01*
G01X-14733Y-8996D01*
G01X-14743Y-8983D01*
G01X-14751Y-8969D01*
G01X-14758Y-8955D01*
G01X-14763Y-8939D01*
G01X-14768Y-8924D01*
G01X-14770Y-8907D01*
G01X-14771Y-8890D01*
G01X-14805D01*
G01X-14803Y-8910D01*
G01X-14801Y-8930D01*
G01X-14795Y-8949D01*
G01X-14789Y-8968D01*
G01X-14780Y-8985D01*
G01X-14770Y-9001D01*
G01X-14759Y-9017D01*
G01X-14746Y-9031D01*
G01X-14732Y-9044D01*
G01X-14716Y-9055D01*
G01X-14700Y-9065D01*
G01X-14683Y-9074D01*
G01X-14664Y-9080D01*
G01X-14645Y-9086D01*
G01X-14625Y-9088D01*
G01X-14605Y-9089D01*
G01X-14585Y-9088D01*
G01X-14565Y-9086D01*
G01X-14546Y-9080D01*
G01X-14527Y-9074D01*
G01X-14510Y-9065D01*
G01X-14494Y-9055D01*
G01X-14478Y-9044D01*
G01X-14464Y-9031D01*
G01X-14451Y-9017D01*
G01X-14440Y-9001D01*
G01X-14430Y-8985D01*
G01X-14421Y-8968D01*
G01X-14414Y-8949D01*
G01X-14409Y-8930D01*
G01X-14407Y-8910D01*
G01X-14405Y-8890D01*
G01X-14407Y-8870D01*
G01X-14409Y-8850D01*
G01X-14414Y-8831D01*
G01X-14421Y-8812D01*
G01X-14430Y-8795D01*
G01X-14440Y-8779D01*
G01X-14451Y-8763D01*
G01X-14464Y-8749D01*
G01X-14478Y-8736D01*
G01X-14494Y-8725D01*
G01X-14510Y-8715D01*
G01X-14527Y-8706D01*
G01X-14546Y-8699D01*
G01X-14565Y-8694D01*
G01X-14585Y-8692D01*
G37*
G04 Image End*
G54D10*

M02*
