G04 Layer: TopLayer*
G04 EasyEDA Pro v1.9.29.eba1c1, 2023-07-30 16:19:25*
G04 Gerber Generator version 0.3*
G04 Scale: 100 percent, Rotated: No, Reflected: No*
G04 Dimensions in millimeters*
G04 Leading zeros omitted, absolute positions, 3 integers and 3 decimals*
%FSLAX33Y33*%
%MOMM*%
%ADD999C,0.2032*%
%ADD10C,0.499999*%
%ADD11C,0.299999*%
%ADD12C,2.499995*%
%ADD13C,0.999998*%
%ADD14C,0.799998*%
G75*


G04 Copper Start*
G36*
G01X24396Y0D02*
G02X0Y-24396I-24396J0D01*
G02X-24396Y0I0J24396D01*
G02X0Y24396I24396J0D01*
G02X24396Y0I0J-24396D01*
G37*
%LPC*%
G36*
G01X18415Y-12334D02*
G03X19319Y-11430I0J904D01*
G03X19297Y-11232I-904J0D01*
G03X22328Y-0I-19297J11232D01*
G03X20859Y7965I-22328J0D01*
G03X20907Y8255I-856J290D01*
G03X20405Y9064I-904J0D01*
G03X17414Y13975I-20405J-9064D01*
G03X16664Y14861I-904J-5D01*
G03X5734Y21579I-16664J-14861D01*
G03X5080Y21859I-654J-624D01*
G03X4784Y21809I0J-904D01*
G03X-0Y22328I-4784J-21809D01*
G03X-731Y22316I0J-22328D01*
G03X-1270Y22494I-539J-726D01*
G03X-1890Y22248I0J-904D01*
G03X-20405Y9064I1890J-22248D01*
G03X-20907Y8255I403J-809D01*
G03X-20859Y7965I904J0D01*
G03X-22328Y-0I20859J-7965D01*
G03X-21809Y-4784I22328J0D01*
G03X-21859Y-5080I854J-296D01*
G03X-20955Y-5984I904J0D01*
G03X-20051Y-5080I0J904D01*
G03X-20585Y-4255I-904J0D01*
G02X-21020Y-0I20585J4255D01*
G02X-19668Y7415I21020J0D01*
G03X-19098Y8255I-334J840D01*
G03X-19173Y8615I-904J0D01*
G02X-1893Y20934I19173J-8615D01*
G03X-1270Y20686I623J656D01*
G03X-575Y21012I0J904D01*
G02X-0Y21020I575J-21012D01*
G02X4255Y20585I0J-21020D01*
G03X5080Y20051I825J370D01*
G03X5644Y20248I0J904D01*
G02X15612Y14075I-5644J-20248D01*
G03X15606Y13970I898J-105D01*
G03X16465Y13067I904J0D01*
G02X19173Y8615I-16465J-13067D01*
G03X19098Y8255I829J-360D01*
G03X19668Y7415I904J0D01*
G02X21020Y-0I-19668J-7415D01*
G02X18176Y-10558I-21020J0D01*
G03X17511Y-11430I239J-872D01*
G03X18415Y-12334I904J0D01*
G37*
G36*
G01X-15188Y-9444D02*
G03X-14605Y-9694I583J554D01*
G03X-13801Y-8890I0J804D01*
G03X-14605Y-8086I-804J0D01*
G03X-15188Y-8336I0J-804D01*
G01X-16280D01*
G01X-16731Y-7886D01*
G02X-18496Y-0I16731J7886D01*
G02X0Y18496I18496J0D01*
G02X18178Y3412I0J-18496D01*
G01Y2805D01*
G03X17928Y2223I554J-583D01*
G03X18733Y1418I804J0D01*
G03X19537Y2223I0J804D01*
G03X19287Y2805I-804J0D01*
G01Y3493D01*
G03X19258Y3669I-554J0D01*
G03X0Y19604I-19258J-3669D01*
G03X-19604Y-0I0J-19604D01*
G03X-17663Y-8505I19604J0D01*
G03X-17437Y-8746I499J240D01*
G01X-16902Y-9282D01*
G03X-16510Y-9444I392J392D01*
G01X-15188D01*
G37*
G36*
G01X-4762Y-1757D02*
G03X-3958Y-952I0J804D01*
G03X-4208Y-370I-804J0D01*
G01Y8890D01*
G03X-4371Y9282I-554J0D01*
G01X-5229Y10140D01*
G01X-5228Y10160D01*
G03X-6032Y10964I-804J0D01*
G03X-6837Y10160I0J-804D01*
G03X-6032Y9356I804J0D01*
G01X-6012D01*
G01X-5317Y8660D01*
G01Y-370D01*
G03X-5567Y-952I554J-583D01*
G03X-4762Y-1757I804J0D01*
G37*
G36*
G01X0Y-1654D02*
G03X1654Y0I0J1654D01*
G03X0Y1654I-1654J0D01*
G03X-1654Y0I0J-1654D01*
G03X0Y-1654I1654J0D01*
G37*
%LPD*%
G54D999*
G01X24396Y0D02*
G02X0Y-24396I-24396J0D01*
G02X-24396Y0I0J24396D01*
G02X0Y24396I24396J0D01*
G02X24396Y0I0J-24396D01*
G01X18415Y-12334D02*
G03X19319Y-11430I0J904D01*
G03X19297Y-11232I-904J0D01*
G03X22328Y-0I-19297J11232D01*
G03X20859Y7965I-22328J0D01*
G03X20907Y8255I-856J290D01*
G03X20405Y9064I-904J0D01*
G03X17414Y13975I-20405J-9064D01*
G03X16664Y14861I-904J-5D01*
G03X5734Y21579I-16664J-14861D01*
G03X5080Y21859I-654J-624D01*
G03X4784Y21809I0J-904D01*
G03X-0Y22328I-4784J-21809D01*
G03X-731Y22316I0J-22328D01*
G03X-1270Y22494I-539J-726D01*
G03X-1890Y22248I0J-904D01*
G03X-20405Y9064I1890J-22248D01*
G03X-20907Y8255I403J-809D01*
G03X-20859Y7965I904J0D01*
G03X-22328Y-0I20859J-7965D01*
G03X-21809Y-4784I22328J0D01*
G03X-21859Y-5080I854J-296D01*
G03X-20955Y-5984I904J0D01*
G03X-20051Y-5080I0J904D01*
G03X-20585Y-4255I-904J0D01*
G02X-21020Y-0I20585J4255D01*
G02X-19668Y7415I21020J0D01*
G03X-19098Y8255I-334J840D01*
G03X-19173Y8615I-904J0D01*
G02X-1893Y20934I19173J-8615D01*
G03X-1270Y20686I623J656D01*
G03X-575Y21012I0J904D01*
G02X-0Y21020I575J-21012D01*
G02X4255Y20585I0J-21020D01*
G03X5080Y20051I825J370D01*
G03X5644Y20248I0J904D01*
G02X15612Y14075I-5644J-20248D01*
G03X15606Y13970I898J-105D01*
G03X16465Y13067I904J0D01*
G02X19173Y8615I-16465J-13067D01*
G03X19098Y8255I829J-360D01*
G03X19668Y7415I904J0D01*
G02X21020Y-0I-19668J-7415D01*
G02X18176Y-10558I-21020J0D01*
G03X17511Y-11430I239J-872D01*
G03X18415Y-12334I904J0D01*
G01X-15188Y-9444D02*
G03X-14605Y-9694I583J554D01*
G03X-13801Y-8890I0J804D01*
G03X-14605Y-8086I-804J0D01*
G03X-15188Y-8336I0J-804D01*
G01X-16280D01*
G01X-16731Y-7886D01*
G02X-18496Y-0I16731J7886D01*
G02X0Y18496I18496J0D01*
G02X18178Y3412I0J-18496D01*
G01Y2805D01*
G03X17928Y2223I554J-583D01*
G03X18733Y1418I804J0D01*
G03X19537Y2223I0J804D01*
G03X19287Y2805I-804J0D01*
G01Y3493D01*
G03X19258Y3669I-554J0D01*
G03X0Y19604I-19258J-3669D01*
G03X-19604Y-0I0J-19604D01*
G03X-17663Y-8505I19604J0D01*
G03X-17437Y-8746I499J240D01*
G01X-16902Y-9282D01*
G03X-16510Y-9444I392J392D01*
G01X-15188D01*
G01X-4762Y-1757D02*
G03X-3958Y-952I0J804D01*
G03X-4208Y-370I-804J0D01*
G01Y8890D01*
G03X-4371Y9282I-554J0D01*
G01X-5229Y10140D01*
G01X-5228Y10160D01*
G03X-6032Y10964I-804J0D01*
G03X-6837Y10160I0J-804D01*
G03X-6032Y9356I804J0D01*
G01X-6012D01*
G01X-5317Y8660D01*
G01Y-370D01*
G03X-5567Y-952I554J-583D01*
G03X-4762Y-1757I804J0D01*
G01X0Y-1654D02*
G03X1654Y0I0J1654D01*
G03X0Y1654I-1654J0D01*
G03X-1654Y0I0J-1654D01*
G03X0Y-1654I1654J0D01*
G04 Copper End*

G04 PolygonModel Start*
G54D10*
G01X19685Y-5080D02*
G03X-20017Y-3551I-19685J5080D01*
G01X18415Y-11430D02*
G03X-21064Y-5106I-18415J11430D01*
G54D11*
G01X18727Y3492D02*
G03X-17164Y-8264I-18727J-3492D01*
G04 PolygonModel End*

G04 Pad Start*
G54D12*
G01X0Y0D03*
G04 Pad End*

G04 Via Start*
G54D13*
G01X-1270Y21590D03*
G01X0Y20320D03*
G01X-15240Y13335D03*
G01X16510Y13970D03*
G01X18098Y9208D03*
G01X20003Y8255D03*
G01X19685Y-5080D03*
G01X-20955Y-5080D03*
G01X-20002Y-3492D03*
G01X-19367Y6033D03*
G01X-20002Y8255D03*
G01X-6350Y19368D03*
G01X5080Y20955D03*
G01X18415Y-11430D03*
G54D14*
G01X-4762Y-952D03*
G01X-6032Y10160D03*
G54D13*
G01X-20320Y0D03*
G54D14*
G01X18733Y2223D03*
G01X-14605Y-8890D03*
G04 Via End*

G04 Track Start*
G54D11*
G01X-4762Y-952D02*
G01X-4762Y8890D01*
G01X-6032Y10160D01*
G01X18733Y2223D02*
G01X18733Y3493D01*
G01X-14605Y-8890D02*
G01X-16510Y-8890D01*
G01X-17145Y-8255D01*
G04 Track End*

M02*
