G04 Layer: BottomLayer*
G04 EasyEDA Pro v1.9.29.eba1c1, 2023-07-30 16:19:25*
G04 Gerber Generator version 0.3*
G04 Scale: 100 percent, Rotated: No, Reflected: No*
G04 Dimensions in millimeters*
G04 Leading zeros omitted, absolute positions, 3 integers and 3 decimals*
%FSLAX33Y33*%
%MOMM*%
%AMRect*21,1,$1,$2,0,0,$3*%
%ADD999C,0.2032*%
%ADD10C,0.299999*%
%ADD11C,2.499995*%
%ADD12R,1.35001X1.410005*%
%ADD13R,1.999996X4.499991*%
%ADD14R,1.132535X1.37701*%
%ADD15R,1.3818X1.132535*%
%ADD16R,1.37701X1.132535*%
%ADD17R,0.999998X0.550012*%
%ADD18R,0.999998X0.959993*%
%ADD19Rect,1.410005X1.35001X112.5*%
%ADD20Rect,1.410005X1.35001X-112.5*%
%ADD21Rect,1.410005X1.35001X40.5*%
%ADD22Rect,1.410005X1.35001X-40.5*%
%ADD23R,1.25001X0.699999*%
%ADD24R,1.37701X1.132535*%
%ADD25R,1.132535X1.37701*%
%ADD26C,1.699999*%
%ADD27R,1.699999X1.699999*%
%ADD28R,5.699989X6.099988*%
%ADD29C,11.000003*%
%ADD30R,2.199996X2.799994*%
%ADD31R,2.199996X2.799994*%
%ADD32Rect,1.545006X0.997001X291.88*%
%ADD33Rect,1.545006X0.997001X247.47*%
%ADD34Rect,1.545006X0.997001X220.47*%
%ADD35Rect,1.545006X0.997001X193.47*%
%ADD36Rect,1.545006X0.997001X166.47*%
%ADD37Rect,1.545006X0.997001X139.47*%
%ADD38Rect,1.545006X0.997001X112.47*%
%ADD39Rect,1.545006X0.997001X67.47*%
%ADD40O,0.699999X1.999996*%
%ADD41C,0.999998*%
%ADD42C,0.799998*%
%ADD43C,0.499999*%
%ADD44C,0.399999*%
%ADD45C,1.000001*%
G75*


G04 Copper Start*
G36*
G01X0Y-24396D02*
G02X-21320Y-11858I0J24396D01*
G03X-21280Y-11844I-111J389D01*
G01X-21019Y-11739D01*
G01X-20682Y-12077D01*
G03X-20290Y-12239I392J392D01*
G01X-18988D01*
G03X-18596Y-12077I0J554D01*
G01X-15409Y-8890D01*
G03X-14605Y-9694I804J0D01*
G03X-13801Y-8890I0J804D01*
G03X-13967Y-8401I-804J0D01*
G01X-10565Y-4999D01*
G01X-6668D01*
G01X-6667D01*
G03X-6276Y-4837I0J554D01*
G01X-3418Y-1979D01*
G03X-3256Y-1587I-392J392D01*
G01Y1905D01*
G03X-3418Y2297I-554J0D01*
G01X-3736Y2614D01*
G03X-4127Y2777I-392J-392D01*
G01X-4128D01*
G01X-6667D01*
G03X-7059Y2614I0J-554D01*
G01X-7676Y1998D01*
G03X-7937Y1749I373J-655D01*
G03X-8572Y2097I-635J-407D01*
G03X-9327Y1343I0J-754D01*
G01Y43D01*
G03X-8572Y-712I754J0D01*
G03X-7937Y-364I0J754D01*
G03X-7302Y-712I635J407D01*
G03X-6667Y-364I0J754D01*
G03X-6587Y-469I635J407D01*
G01Y-2310D01*
G01X-7532Y-3256D01*
G01X-11112D01*
G03X-11504Y-3418I0J-554D01*
G01X-16504Y-8418D01*
G01X-16950Y-7340D01*
G03X-17181Y-7117I-373J-155D01*
G03X-17145Y-6950I-368J167D01*
G03X-17176Y-6795I-404J0D01*
G01X-17716Y-5493D01*
G03X-18089Y-5243I-373J-155D01*
G03X-18244Y-5274I0J-404D01*
G01X-18638Y-5437D01*
G01X-19457Y-4617D01*
G03X-19920Y-4426I-463J-463D01*
G01X-20331D01*
G03X-20730Y-4204I-624J-654D01*
G01X-20490D01*
G03X-20086Y-3800I0J404D01*
G01Y-1000D01*
G03X-20490Y-596I-404J0D01*
G01X-22690D01*
G03X-23094Y-1000I0J-404D01*
G01Y-3800D01*
G03X-22690Y-4204I404J0D01*
G01X-21180D01*
G03X-21859Y-5080I225J-876D01*
G03X-21828Y-5314I904J0D01*
G01X-23576Y-3867D01*
G01Y4001D01*
G01X-22487Y6269D01*
G01X-22481Y6266D01*
G03X-22326Y6235I155J373D01*
G03X-22003Y6397I0J404D01*
G03X-22007Y6339I400J-57D01*
G03X-21757Y5966I404J0D01*
G01X-20836Y5584D01*
G03X-20682Y5553I155J373D01*
G03X-20308Y5802I0J404D01*
G01X-19716Y7229D01*
G03X-19685Y7384I-373J155D01*
G01X-19686Y7408D01*
G03X-19098Y8255I-316J847D01*
G03X-19191Y8654I-904J0D01*
G03X-19053Y8827I-236J328D01*
G01X-18476Y10218D01*
G01X-17355Y11339D01*
G03X-17193Y11731I-392J392D01*
G01Y15600D01*
G01X-17087Y15705D01*
G03X-16878Y15647I209J346D01*
G03X-16700Y15688I0J404D01*
G03X-16774Y15456I330J-233D01*
G03X-16677Y15193I404J0D01*
G01X-16030Y14435D01*
G03X-15723Y14293I307J262D01*
G03X-15461Y14390I0J404D01*
G01X-14285Y15392D01*
G03X-14143Y15700I-262J307D01*
G03X-14191Y15890I-404J0D01*
G01X-13515Y15559D01*
G03X-13621Y15494I157J-373D01*
G01X-14693Y14578D01*
G03X-14835Y14271I262J-307D01*
G03X-14738Y14008I404J0D01*
G01X-13861Y12982D01*
G03X-13554Y12840I307J262D01*
G03X-13291Y12937I0J404D01*
G01X-12219Y13853D01*
G03X-12078Y14141I-262J307D01*
G03X-12033Y14139I45J402D01*
G03X-11770Y14236I0J404D01*
G01X-10698Y15151D01*
G03X-10557Y15459I-262J307D01*
G03X-10653Y15721I-404J0D01*
G01X-10722Y15802D01*
G01X-10668Y15856D01*
G01X-9643D01*
G03X-8572Y15256I1070J654D01*
G03X-7757Y15557I0J1254D01*
G03X-7857Y15240I454J-317D01*
G01Y15000D01*
G03X-8572Y15224I-716J-1030D01*
G03X-9827Y13970I0J-1254D01*
G03X-8750Y12728I1254J0D01*
G01X-8699Y12678D01*
G03X-9827Y11430I126J-1248D01*
G03X-8572Y10176I1254J0D01*
G03X-8372Y10192I0J1254D01*
G01X-8964Y9599D01*
G03X-9127Y9208I392J-392D01*
G01Y9207D01*
G01Y7454D01*
G03X-9235Y7303I554J-512D01*
G01X-9380Y7448D01*
G03X-9842Y7639I-463J-463D01*
G01X-12700D01*
G03X-13163Y7448I0J-654D01*
G01X-17556Y3054D01*
G01X-20086D01*
G01Y3800D01*
G03X-20490Y4204I-404J0D01*
G01X-22690D01*
G03X-23094Y3800I0J-404D01*
G01Y1000D01*
G03X-22690Y596I404J0D01*
G01X-20490D01*
G03X-20086Y1000I0J404D01*
G01Y1746D01*
G01X-17285D01*
G03X-16822Y1937I0J654D01*
G01X-12429Y6331D01*
G01X-11831D01*
G03X-11874Y6150I361J-181D01*
G01Y4740D01*
G03X-11746Y4445I404J0D01*
G03X-11874Y4150I276J-295D01*
G01Y2740D01*
G03X-11470Y2336I404J0D01*
G01X-10120D01*
G03X-9716Y2740I0J404D01*
G01Y4150D01*
G03X-9844Y4445I-404J0D01*
G01X-9829Y4459D01*
G01X-9670Y4300D01*
G03X-9207Y4108I463J463D01*
G01X-5398D01*
G01X-5397D01*
G03X-4935Y4300I0J654D01*
G01X-4300Y4935D01*
G03X-4130Y5233I-463J463D01*
G03X-4008Y5642I-633J410D01*
G01Y6942D01*
G03X-4028Y7112I-754J0D01*
G01X-2278Y8862D01*
G03X-1945Y8686I333J228D01*
G01X-1711D01*
G03X-1970Y8309I145J-377D01*
G01Y6931D01*
G03X-1654Y6537I404J0D01*
G01Y5964D01*
G01X-2085D01*
G03X-2489Y5560I0J-404D01*
G01Y4600D01*
G03X-2085Y4196I404J0D01*
G01X-1085D01*
G03X-681Y4600I0J404D01*
G01Y5059D01*
G01X-537Y5202D01*
G03X-346Y5665I-463J463D01*
G01Y6537D01*
G03X-30Y6931I-88J394D01*
G01Y8309D01*
G03X-346Y8703I-404J0D01*
G01Y8772D01*
G03X-191Y9090I-249J318D01*
G01Y10500D01*
G03X-319Y10795I-404J0D01*
G03X-191Y11090I-276J295D01*
G01Y12500D01*
G03X-595Y12904I-404J0D01*
G01X-1886D01*
G01Y16620D01*
G01X-807Y17698D01*
G03X-616Y18161I-463J463D01*
G01Y20966D01*
G03X-366Y21590I-654J624D01*
G03X-1270Y22494I-904J0D01*
G03X-2174Y21590I0J-904D01*
G03X-1924Y20966I904J0D01*
G01Y18432D01*
G01X-2540Y17816D01*
G01X-3601Y18878D01*
G03X-4064Y19069I-463J-463D01*
G01X-4397D01*
G01Y20675D01*
G03X-4152Y20592I245J321D01*
G03X-4058Y20603I0J404D01*
G01X-2555Y20963D01*
G03X-2245Y21356I-94J393D01*
G03X-2256Y21450I-404J0D01*
G01X-2389Y22005D01*
G01X-1135Y23258D01*
G01X2690D01*
G01X2672Y23184D01*
G03X2661Y23089I393J-95D01*
G03X2876Y22732I404J0D01*
G03X2489Y22423I6J-404D01*
G01X2256Y21453D01*
G03X2244Y21359I393J-95D01*
G03X2554Y20966I404J0D01*
G01X4056Y20604D01*
G03X4151Y20593I95J393D01*
G03X4246Y20605I0J404D01*
G03X5080Y20051I834J350D01*
G03X5634Y20241I0J904D01*
G03X5738Y20200I199J352D01*
G01X7240Y19838D01*
G03X7335Y19827I95J393D01*
G03X7728Y20136I0J404D01*
G01X7777Y20342D01*
G01X12057D01*
G01X12929Y19470D01*
G01X12906Y19444D01*
G03X12809Y19181I307J-263D01*
G03X12883Y18949I404J0D01*
G03X12704Y18990I-178J-363D01*
G03X12397Y18849I0J-404D01*
G01X11749Y18091D01*
G03X11652Y17829I307J-263D01*
G03X11794Y17521I404J0D01*
G01X12968Y16517D01*
G03X13231Y16420I263J307D01*
G03X13280Y16423I0J404D01*
G01X13160Y15887D01*
G01X12100Y16793D01*
G03X11838Y16889I-262J-307D01*
G03X11530Y16748I0J-404D01*
G01X10653Y15721D01*
G03X10557Y15459I307J-262D01*
G03X10698Y15151I404J0D01*
G01X11770Y14236D01*
G03X12033Y14139I262J307D01*
G03X12078Y14141I0J404D01*
G03X12219Y13853I404J18D01*
G01X13291Y12937D01*
G03X13554Y12840I262J307D01*
G03X13813Y12934I0J404D01*
G01X13874Y12872D01*
G03X14336Y12681I463J463D01*
G01X15875D01*
G03X16338Y12872I0J654D01*
G01X16531Y13066D01*
G03X17414Y13970I-21J904D01*
G03X17378Y14223I-904J0D01*
G01X20210Y11391D01*
G03X20077Y11092I271J-299D01*
G03X20081Y11035I404J0D01*
G03X19758Y11197I-323J-242D01*
G03X19603Y11166I0J-404D01*
G01X18682Y10785D01*
G03X18432Y10412I154J-373D01*
G03X18463Y10257I404J0D01*
G01X19053Y8830D01*
G03X19192Y8655I373J154D01*
G03X19098Y8255I811J-400D01*
G03X19685Y7409I904J0D01*
G01X19684Y7385D01*
G03X19715Y7231I404J0D01*
G01X20305Y5803D01*
G03X20678Y5553I373J154D01*
G03X20833Y5584I0J404D01*
G01X21190Y5732D01*
G01X22719Y4203D01*
G03X22690Y4204I-29J-403D01*
G01X20490D01*
G03X20086Y3800I0J-404D01*
G01Y1961D01*
G01X18779Y654D01*
G01X15047D01*
G01Y1300D01*
G03X14643Y1704I-404J0D01*
G01X13392D01*
G03X13217Y1664I0J-404D01*
G01X12889Y1992D01*
G01Y2082D01*
G01X12901D01*
G03X13305Y2486I0J404D01*
G01Y3864D01*
G03X12901Y4268I-404J0D01*
G01X11769D01*
G03X11365Y3864I0J-404D01*
G01Y3729D01*
G01X10795D01*
G03X10403Y3567I0J-554D01*
G01X9451Y2614D01*
G03X9288Y2223I392J-392D01*
G01Y2222D01*
G01Y1970D01*
G01X9154D01*
G03X8750Y1566I0J-404D01*
G01Y1065D01*
G01X8654Y1161D01*
G01Y3696D01*
G01X9000D01*
G03X9404Y4100I0J404D01*
G01Y8600D01*
G03X9395Y8686I-404J0D01*
G01X9565D01*
G03X9969Y9090I0J404D01*
G01Y10500D01*
G03X9841Y10795I-404J0D01*
G03X9969Y11090I-276J295D01*
G01Y12500D01*
G03X9565Y12904I-404J0D01*
G01X8215D01*
G03X7811Y12500I0J-404D01*
G01Y11466D01*
G03X7547Y11522I-264J-599D01*
G01X7483D01*
G01X7484Y11543D01*
G01Y12093D01*
G03X7080Y12497I-404J0D01*
G01X6080D01*
G03X5676Y12093I0J-404D01*
G01Y11543D01*
G03X5729Y11343I404J0D01*
G03X5676Y11143I351J-200D01*
G01Y10593D01*
G03X5729Y10393I404J0D01*
G03X5676Y10193I351J-200D01*
G01Y9643D01*
G03X6080Y9239I404J0D01*
G01X7080D01*
G03X7484Y9643I0J404D01*
G01Y10006D01*
G01X7811Y9679D01*
G01Y9641D01*
G01X7537Y9368D01*
G03X7353Y9004I463J-463D01*
G01X7000D01*
G03X6596Y8600I0J-404D01*
G01Y4100D01*
G03X7000Y3696I404J0D01*
G01X7346D01*
G01Y890D01*
G03X7537Y427I654J0D01*
G01X8427Y-463D01*
G03X8750Y-639I463J463D01*
G01Y-1566D01*
G03X8938Y-1908I404J0D01*
G01Y-3810D01*
G03X9203Y-4449I904J0D01*
G01X12136Y-7382D01*
G01Y-9773D01*
G01X10190D01*
G03X9786Y-10177I0J-404D01*
G01Y-16277D01*
G03X10190Y-16681I404J0D01*
G01X15890D01*
G03X16294Y-16277I0J404D01*
G01Y-10177D01*
G03X15890Y-9773I-404J0D01*
G01X13944D01*
G01Y-7008D01*
G03X13680Y-6369I-904J0D01*
G01X10747Y-3435D01*
G01Y-1908D01*
G03X10933Y-1604I-216J342D01*
G01X13126D01*
G03X13392Y-1704I266J304D01*
G01X14643D01*
G03X14909Y-1604I0J404D01*
G01X18777D01*
G01X20035Y-2863D01*
G03X20086Y-2908I463J463D01*
G01Y-3800D01*
G03X20490Y-4204I404J0D01*
G01X22690D01*
G03X23094Y-3800I0J404D01*
G01Y-1000D01*
G03X22690Y-596I-404J0D01*
G01X20490D01*
G03X20086Y-1000I0J-404D01*
G01Y-1063D01*
G01X19510Y-487D01*
G01X19498Y-476D01*
G01X19513Y-463D01*
G01X20571Y596D01*
G01X22690D01*
G03X23094Y1000I0J404D01*
G01Y3800D01*
G03X23093Y3829I-404J0D01*
G01X23576Y3346D01*
G01Y-3385D01*
G01X22418Y-6246D01*
G03X22326Y-6235I-92J-394D01*
G03X22003Y-6397I0J-404D01*
G03X22007Y-6339I-400J57D01*
G03X21757Y-5966I-404J0D01*
G01X20836Y-5584D01*
G03X20682Y-5553I-155J-373D01*
G03X20308Y-5802I0J-404D01*
G01X19716Y-7229D01*
G03X19685Y-7384I373J-155D01*
G03X19758Y-7615I404J0D01*
G01X19155Y-7654D01*
G03X19170Y-7621I-358J187D01*
G01X19710Y-6319D01*
G03X19741Y-6164I-373J155D01*
G03X19491Y-5791I-404J0D01*
G01X18244Y-5274D01*
G03X18089Y-5243I-155J-373D01*
G03X17716Y-5493I0J-404D01*
G01X17176Y-6795D01*
G03X17145Y-6950I373J-155D01*
G03X17181Y-7117I404J0D01*
G03X16950Y-7340I142J-378D01*
G01X16411Y-8643D01*
G03X16380Y-8798I373J-155D01*
G03X16630Y-9171I404J0D01*
G01X17023Y-9334D01*
G01Y-10693D01*
G03X17215Y-11155I654J0D01*
G01X17511Y-11451D01*
G03X18415Y-12334I904J21D01*
G03X19319Y-11430I0J904D01*
G03X19212Y-11004I-904J0D01*
G01X19601Y-11165D01*
G03X19755Y-11195I155J373D01*
G03X20079Y-11034I0J404D01*
G03X20075Y-11091I400J-57D01*
G03X20324Y-11465I404J0D01*
G01X21245Y-11847D01*
G03X21314Y-11868I155J373D01*
G02X0Y-24396I-21314J11868D01*
G37*
%LPC*%
G36*
G01X140Y-19131D02*
G03X6044Y-13227I0J5904D01*
G03X140Y-7323I-5904J0D01*
G03X-5764Y-13227I0J-5904D01*
G03X140Y-19131I5904J0D01*
G37*
G36*
G01X3296Y4100D02*
G03X3700Y3696I404J0D01*
G01X5700D01*
G03X6104Y4100I0J404D01*
G01Y8600D01*
G03X5700Y9004I-404J0D01*
G01X5354D01*
G03X5163Y9460I-654J-7D01*
G01X4684Y9939D01*
G01Y10193D01*
G03X4631Y10393I-404J0D01*
G03X4684Y10593I-351J200D01*
G01Y11143D01*
G03X4631Y11343I-404J0D01*
G03X4684Y11543I-351J200D01*
G01Y12093D01*
G03X4280Y12497I-404J0D01*
G01X3280D01*
G03X2889Y12198I0J-404D01*
G01X2363Y11671D01*
G01Y12361D01*
G03X1959Y12765I-404J0D01*
G01X581D01*
G03X177Y12361I0J-404D01*
G01Y11229D01*
G03X581Y10825I404J0D01*
G01X1516D01*
G01X1457Y10765D01*
G01X581D01*
G03X177Y10361I0J-404D01*
G01Y9229D01*
G03X581Y8825I404J0D01*
G01X716D01*
G01Y8713D01*
G01X434D01*
G03X30Y8309I0J-404D01*
G01Y6931D01*
G03X434Y6527I404J0D01*
G01X1566D01*
G03X1970Y6931I0J404D01*
G01Y8309D01*
G03X1824Y8620I-404J0D01*
G01Y8825D01*
G01X1959D01*
G03X2363Y9229I0J404D01*
G01Y10104D01*
G01X2876Y10617D01*
G01Y10593D01*
G03X2928Y10393I404J0D01*
G03X2876Y10193I351J-200D01*
G01Y9643D01*
G03X3280Y9239I404J0D01*
G01X3534D01*
G01X3768Y9004D01*
G01X3700D01*
G03X3296Y8600I0J-404D01*
G01Y5871D01*
G01X3159Y5734D01*
G01X2450D01*
G03X2085Y5964I-365J-174D01*
G01X1085D01*
G03X681Y5560I0J-404D01*
G01Y4600D01*
G03X1085Y4196I404J0D01*
G01X2085D01*
G03X2450Y4426I0J404D01*
G01X3296D01*
G01Y4100D01*
G37*
G36*
G01X-16014Y-16277D02*
G03X-15610Y-16681I404J0D01*
G01X-9910D01*
G03X-9506Y-16277I0J404D01*
G01Y-10177D01*
G03X-9910Y-9773I-404J0D01*
G01X-15610D01*
G03X-16014Y-10177I0J-404D01*
G01Y-16277D01*
G37*
G36*
G01X18733Y1418D02*
G03X19537Y2223I0J804D01*
G03X18733Y3027I-804J0D01*
G03X18150Y2777I0J-804D01*
G01X15517D01*
G01X15305Y2988D01*
G01Y3864D01*
G03X14901Y4268I-404J0D01*
G01X13769D01*
G03X13365Y3864I0J-404D01*
G01Y2486D01*
G03X13769Y2082I404J0D01*
G01X14644D01*
G01X14896Y1831D01*
G03X15287Y1668I392J392D01*
G01X18150D01*
G03X18733Y1418I583J554D01*
G37*
G36*
G01X0Y-1654D02*
G03X1654Y0I0J1654D01*
G03X0Y1654I-1654J0D01*
G03X-1654Y0I0J-1654D01*
G03X0Y-1654I1654J0D01*
G37*
%LPD*%
G36*
G01X-19505Y-11131D02*
G01X-19024Y-10938D01*
G01X-19217Y-11131D01*
G01X-19505D01*
G37*
G36*
G01X-18455Y-10369D02*
G03X-18479Y-10284I-399J-65D01*
G01X-19055Y-8850D01*
G03X-19428Y-8596I-375J-151D01*
G01X-18967Y-8094D01*
G03X-18944Y-8166I396J83D01*
G01X-18405Y-9469D01*
G03X-18031Y-9718I373J155D01*
G03X-17877Y-9688I0J404D01*
G01X-17701Y-9615D01*
G01X-18455Y-10369D01*
G37*
G36*
G01X-12100Y16793D02*
G01X-12449Y16494D01*
G01X-12795Y16663D01*
G01X-11794Y17518D01*
G03X-11652Y17825I-262J307D01*
G03X-11749Y18088I-404J0D01*
G01X-11772Y18115D01*
G01X-8110Y21777D01*
G03X-7758Y21560I358J187D01*
G03X-7973Y21203I189J-357D01*
G03X-7962Y21109I404J0D01*
G01X-7730Y20139D01*
G03X-7337Y19829I393J94D01*
G03X-7243Y19840I0J404D01*
G01X-5740Y20200D01*
G03X-5705Y20210I-94J393D01*
G01Y19069D01*
G01X-7620D01*
G03X-8083Y18878I0J-654D01*
G01X-9035Y17925D01*
G03X-9215Y17587I463J-463D01*
G03X-9643Y17164I642J-1077D01*
G01X-10939D01*
G03X-11402Y16973I0J-654D01*
G01X-11579Y16796D01*
G03X-11838Y16889I-259J-310D01*
G03X-12100Y16793I0J-404D01*
G37*
G54D999*
G01X0Y-24396D02*
G02X-21320Y-11858I0J24396D01*
G03X-21280Y-11844I-111J389D01*
G01X-21019Y-11739D01*
G01X-20682Y-12077D01*
G03X-20290Y-12239I392J392D01*
G01X-18988D01*
G03X-18596Y-12077I0J554D01*
G01X-15409Y-8890D01*
G03X-14605Y-9694I804J0D01*
G03X-13801Y-8890I0J804D01*
G03X-13967Y-8401I-804J0D01*
G01X-10565Y-4999D01*
G01X-6668D01*
G01X-6667D01*
G03X-6276Y-4837I0J554D01*
G01X-3418Y-1979D01*
G03X-3256Y-1587I-392J392D01*
G01Y1905D01*
G03X-3418Y2297I-554J0D01*
G01X-3736Y2614D01*
G03X-4127Y2777I-392J-392D01*
G01X-4128D01*
G01X-6667D01*
G03X-7059Y2614I0J-554D01*
G01X-7676Y1998D01*
G03X-7937Y1749I373J-655D01*
G03X-8572Y2097I-635J-407D01*
G03X-9327Y1343I0J-754D01*
G01Y43D01*
G03X-8572Y-712I754J0D01*
G03X-7937Y-364I0J754D01*
G03X-7302Y-712I635J407D01*
G03X-6667Y-364I0J754D01*
G03X-6587Y-469I635J407D01*
G01Y-2310D01*
G01X-7532Y-3256D01*
G01X-11112D01*
G03X-11504Y-3418I0J-554D01*
G01X-16504Y-8418D01*
G01X-16950Y-7340D01*
G03X-17181Y-7117I-373J-155D01*
G03X-17145Y-6950I-368J167D01*
G03X-17176Y-6795I-404J0D01*
G01X-17716Y-5493D01*
G03X-18089Y-5243I-373J-155D01*
G03X-18244Y-5274I0J-404D01*
G01X-18638Y-5437D01*
G01X-19457Y-4617D01*
G03X-19920Y-4426I-463J-463D01*
G01X-20331D01*
G03X-20730Y-4204I-624J-654D01*
G01X-20490D01*
G03X-20086Y-3800I0J404D01*
G01Y-1000D01*
G03X-20490Y-596I-404J0D01*
G01X-22690D01*
G03X-23094Y-1000I0J-404D01*
G01Y-3800D01*
G03X-22690Y-4204I404J0D01*
G01X-21180D01*
G03X-21859Y-5080I225J-876D01*
G03X-21828Y-5314I904J0D01*
G01X-23576Y-3867D01*
G01Y4001D01*
G01X-22487Y6269D01*
G01X-22481Y6266D01*
G03X-22326Y6235I155J373D01*
G03X-22003Y6397I0J404D01*
G03X-22007Y6339I400J-57D01*
G03X-21757Y5966I404J0D01*
G01X-20836Y5584D01*
G03X-20682Y5553I155J373D01*
G03X-20308Y5802I0J404D01*
G01X-19716Y7229D01*
G03X-19685Y7384I-373J155D01*
G01X-19686Y7408D01*
G03X-19098Y8255I-316J847D01*
G03X-19191Y8654I-904J0D01*
G03X-19053Y8827I-236J328D01*
G01X-18476Y10218D01*
G01X-17355Y11339D01*
G03X-17193Y11731I-392J392D01*
G01Y15600D01*
G01X-17087Y15705D01*
G03X-16878Y15647I209J346D01*
G03X-16700Y15688I0J404D01*
G03X-16774Y15456I330J-233D01*
G03X-16677Y15193I404J0D01*
G01X-16030Y14435D01*
G03X-15723Y14293I307J262D01*
G03X-15461Y14390I0J404D01*
G01X-14285Y15392D01*
G03X-14143Y15700I-262J307D01*
G03X-14191Y15890I-404J0D01*
G01X-13515Y15559D01*
G03X-13621Y15494I157J-373D01*
G01X-14693Y14578D01*
G03X-14835Y14271I262J-307D01*
G03X-14738Y14008I404J0D01*
G01X-13861Y12982D01*
G03X-13554Y12840I307J262D01*
G03X-13291Y12937I0J404D01*
G01X-12219Y13853D01*
G03X-12078Y14141I-262J307D01*
G03X-12033Y14139I45J402D01*
G03X-11770Y14236I0J404D01*
G01X-10698Y15151D01*
G03X-10557Y15459I-262J307D01*
G03X-10653Y15721I-404J0D01*
G01X-10722Y15802D01*
G01X-10668Y15856D01*
G01X-9643D01*
G03X-8572Y15256I1070J654D01*
G03X-7757Y15557I0J1254D01*
G03X-7857Y15240I454J-317D01*
G01Y15000D01*
G03X-8572Y15224I-716J-1030D01*
G03X-9827Y13970I0J-1254D01*
G03X-8750Y12728I1254J0D01*
G01X-8699Y12678D01*
G03X-9827Y11430I126J-1248D01*
G03X-8572Y10176I1254J0D01*
G03X-8372Y10192I0J1254D01*
G01X-8964Y9599D01*
G03X-9127Y9208I392J-392D01*
G01Y9207D01*
G01Y7454D01*
G03X-9235Y7303I554J-512D01*
G01X-9380Y7448D01*
G03X-9842Y7639I-463J-463D01*
G01X-12700D01*
G03X-13163Y7448I0J-654D01*
G01X-17556Y3054D01*
G01X-20086D01*
G01Y3800D01*
G03X-20490Y4204I-404J0D01*
G01X-22690D01*
G03X-23094Y3800I0J-404D01*
G01Y1000D01*
G03X-22690Y596I404J0D01*
G01X-20490D01*
G03X-20086Y1000I0J404D01*
G01Y1746D01*
G01X-17285D01*
G03X-16822Y1937I0J654D01*
G01X-12429Y6331D01*
G01X-11831D01*
G03X-11874Y6150I361J-181D01*
G01Y4740D01*
G03X-11746Y4445I404J0D01*
G03X-11874Y4150I276J-295D01*
G01Y2740D01*
G03X-11470Y2336I404J0D01*
G01X-10120D01*
G03X-9716Y2740I0J404D01*
G01Y4150D01*
G03X-9844Y4445I-404J0D01*
G01X-9829Y4459D01*
G01X-9670Y4300D01*
G03X-9207Y4108I463J463D01*
G01X-5398D01*
G01X-5397D01*
G03X-4935Y4300I0J654D01*
G01X-4300Y4935D01*
G03X-4130Y5233I-463J463D01*
G03X-4008Y5642I-633J410D01*
G01Y6942D01*
G03X-4028Y7112I-754J0D01*
G01X-2278Y8862D01*
G03X-1945Y8686I333J228D01*
G01X-1711D01*
G03X-1970Y8309I145J-377D01*
G01Y6931D01*
G03X-1654Y6537I404J0D01*
G01Y5964D01*
G01X-2085D01*
G03X-2489Y5560I0J-404D01*
G01Y4600D01*
G03X-2085Y4196I404J0D01*
G01X-1085D01*
G03X-681Y4600I0J404D01*
G01Y5059D01*
G01X-537Y5202D01*
G03X-346Y5665I-463J463D01*
G01Y6537D01*
G03X-30Y6931I-88J394D01*
G01Y8309D01*
G03X-346Y8703I-404J0D01*
G01Y8772D01*
G03X-191Y9090I-249J318D01*
G01Y10500D01*
G03X-319Y10795I-404J0D01*
G03X-191Y11090I-276J295D01*
G01Y12500D01*
G03X-595Y12904I-404J0D01*
G01X-1886D01*
G01Y16620D01*
G01X-807Y17698D01*
G03X-616Y18161I-463J463D01*
G01Y20966D01*
G03X-366Y21590I-654J624D01*
G03X-1270Y22494I-904J0D01*
G03X-2174Y21590I0J-904D01*
G03X-1924Y20966I904J0D01*
G01Y18432D01*
G01X-2540Y17816D01*
G01X-3601Y18878D01*
G03X-4064Y19069I-463J-463D01*
G01X-4397D01*
G01Y20675D01*
G03X-4152Y20592I245J321D01*
G03X-4058Y20603I0J404D01*
G01X-2555Y20963D01*
G03X-2245Y21356I-94J393D01*
G03X-2256Y21450I-404J0D01*
G01X-2389Y22005D01*
G01X-1135Y23258D01*
G01X2690D01*
G01X2672Y23184D01*
G03X2661Y23089I393J-95D01*
G03X2876Y22732I404J0D01*
G03X2489Y22423I6J-404D01*
G01X2256Y21453D01*
G03X2244Y21359I393J-95D01*
G03X2554Y20966I404J0D01*
G01X4056Y20604D01*
G03X4151Y20593I95J393D01*
G03X4246Y20605I0J404D01*
G03X5080Y20051I834J350D01*
G03X5634Y20241I0J904D01*
G03X5738Y20200I199J352D01*
G01X7240Y19838D01*
G03X7335Y19827I95J393D01*
G03X7728Y20136I0J404D01*
G01X7777Y20342D01*
G01X12057D01*
G01X12929Y19470D01*
G01X12906Y19444D01*
G03X12809Y19181I307J-263D01*
G03X12883Y18949I404J0D01*
G03X12704Y18990I-178J-363D01*
G03X12397Y18849I0J-404D01*
G01X11749Y18091D01*
G03X11652Y17829I307J-263D01*
G03X11794Y17521I404J0D01*
G01X12968Y16517D01*
G03X13231Y16420I263J307D01*
G03X13280Y16423I0J404D01*
G01X13160Y15887D01*
G01X12100Y16793D01*
G03X11838Y16889I-262J-307D01*
G03X11530Y16748I0J-404D01*
G01X10653Y15721D01*
G03X10557Y15459I307J-262D01*
G03X10698Y15151I404J0D01*
G01X11770Y14236D01*
G03X12033Y14139I262J307D01*
G03X12078Y14141I0J404D01*
G03X12219Y13853I404J18D01*
G01X13291Y12937D01*
G03X13554Y12840I262J307D01*
G03X13813Y12934I0J404D01*
G01X13874Y12872D01*
G03X14336Y12681I463J463D01*
G01X15875D01*
G03X16338Y12872I0J654D01*
G01X16531Y13066D01*
G03X17414Y13970I-21J904D01*
G03X17378Y14223I-904J0D01*
G01X20210Y11391D01*
G03X20077Y11092I271J-299D01*
G03X20081Y11035I404J0D01*
G03X19758Y11197I-323J-242D01*
G03X19603Y11166I0J-404D01*
G01X18682Y10785D01*
G03X18432Y10412I154J-373D01*
G03X18463Y10257I404J0D01*
G01X19053Y8830D01*
G03X19192Y8655I373J154D01*
G03X19098Y8255I811J-400D01*
G03X19685Y7409I904J0D01*
G01X19684Y7385D01*
G03X19715Y7231I404J0D01*
G01X20305Y5803D01*
G03X20678Y5553I373J154D01*
G03X20833Y5584I0J404D01*
G01X21190Y5732D01*
G01X22719Y4203D01*
G03X22690Y4204I-29J-403D01*
G01X20490D01*
G03X20086Y3800I0J-404D01*
G01Y1961D01*
G01X18779Y654D01*
G01X15047D01*
G01Y1300D01*
G03X14643Y1704I-404J0D01*
G01X13392D01*
G03X13217Y1664I0J-404D01*
G01X12889Y1992D01*
G01Y2082D01*
G01X12901D01*
G03X13305Y2486I0J404D01*
G01Y3864D01*
G03X12901Y4268I-404J0D01*
G01X11769D01*
G03X11365Y3864I0J-404D01*
G01Y3729D01*
G01X10795D01*
G03X10403Y3567I0J-554D01*
G01X9451Y2614D01*
G03X9288Y2223I392J-392D01*
G01Y2222D01*
G01Y1970D01*
G01X9154D01*
G03X8750Y1566I0J-404D01*
G01Y1065D01*
G01X8654Y1161D01*
G01Y3696D01*
G01X9000D01*
G03X9404Y4100I0J404D01*
G01Y8600D01*
G03X9395Y8686I-404J0D01*
G01X9565D01*
G03X9969Y9090I0J404D01*
G01Y10500D01*
G03X9841Y10795I-404J0D01*
G03X9969Y11090I-276J295D01*
G01Y12500D01*
G03X9565Y12904I-404J0D01*
G01X8215D01*
G03X7811Y12500I0J-404D01*
G01Y11466D01*
G03X7547Y11522I-264J-599D01*
G01X7483D01*
G01X7484Y11543D01*
G01Y12093D01*
G03X7080Y12497I-404J0D01*
G01X6080D01*
G03X5676Y12093I0J-404D01*
G01Y11543D01*
G03X5729Y11343I404J0D01*
G03X5676Y11143I351J-200D01*
G01Y10593D01*
G03X5729Y10393I404J0D01*
G03X5676Y10193I351J-200D01*
G01Y9643D01*
G03X6080Y9239I404J0D01*
G01X7080D01*
G03X7484Y9643I0J404D01*
G01Y10006D01*
G01X7811Y9679D01*
G01Y9641D01*
G01X7537Y9368D01*
G03X7353Y9004I463J-463D01*
G01X7000D01*
G03X6596Y8600I0J-404D01*
G01Y4100D01*
G03X7000Y3696I404J0D01*
G01X7346D01*
G01Y890D01*
G03X7537Y427I654J0D01*
G01X8427Y-463D01*
G03X8750Y-639I463J463D01*
G01Y-1566D01*
G03X8938Y-1908I404J0D01*
G01Y-3810D01*
G03X9203Y-4449I904J0D01*
G01X12136Y-7382D01*
G01Y-9773D01*
G01X10190D01*
G03X9786Y-10177I0J-404D01*
G01Y-16277D01*
G03X10190Y-16681I404J0D01*
G01X15890D01*
G03X16294Y-16277I0J404D01*
G01Y-10177D01*
G03X15890Y-9773I-404J0D01*
G01X13944D01*
G01Y-7008D01*
G03X13680Y-6369I-904J0D01*
G01X10747Y-3435D01*
G01Y-1908D01*
G03X10933Y-1604I-216J342D01*
G01X13126D01*
G03X13392Y-1704I266J304D01*
G01X14643D01*
G03X14909Y-1604I0J404D01*
G01X18777D01*
G01X20035Y-2863D01*
G03X20086Y-2908I463J463D01*
G01Y-3800D01*
G03X20490Y-4204I404J0D01*
G01X22690D01*
G03X23094Y-3800I0J404D01*
G01Y-1000D01*
G03X22690Y-596I-404J0D01*
G01X20490D01*
G03X20086Y-1000I0J-404D01*
G01Y-1063D01*
G01X19510Y-487D01*
G01X19498Y-476D01*
G01X19513Y-463D01*
G01X20571Y596D01*
G01X22690D01*
G03X23094Y1000I0J404D01*
G01Y3800D01*
G03X23093Y3829I-404J0D01*
G01X23576Y3346D01*
G01Y-3385D01*
G01X22418Y-6246D01*
G03X22326Y-6235I-92J-394D01*
G03X22003Y-6397I0J-404D01*
G03X22007Y-6339I-400J57D01*
G03X21757Y-5966I-404J0D01*
G01X20836Y-5584D01*
G03X20682Y-5553I-155J-373D01*
G03X20308Y-5802I0J-404D01*
G01X19716Y-7229D01*
G03X19685Y-7384I373J-155D01*
G03X19758Y-7615I404J0D01*
G01X19155Y-7654D01*
G03X19170Y-7621I-358J187D01*
G01X19710Y-6319D01*
G03X19741Y-6164I-373J155D01*
G03X19491Y-5791I-404J0D01*
G01X18244Y-5274D01*
G03X18089Y-5243I-155J-373D01*
G03X17716Y-5493I0J-404D01*
G01X17176Y-6795D01*
G03X17145Y-6950I373J-155D01*
G03X17181Y-7117I404J0D01*
G03X16950Y-7340I142J-378D01*
G01X16411Y-8643D01*
G03X16380Y-8798I373J-155D01*
G03X16630Y-9171I404J0D01*
G01X17023Y-9334D01*
G01Y-10693D01*
G03X17215Y-11155I654J0D01*
G01X17511Y-11451D01*
G03X18415Y-12334I904J21D01*
G03X19319Y-11430I0J904D01*
G03X19212Y-11004I-904J0D01*
G01X19601Y-11165D01*
G03X19755Y-11195I155J373D01*
G03X20079Y-11034I0J404D01*
G03X20075Y-11091I400J-57D01*
G03X20324Y-11465I404J0D01*
G01X21245Y-11847D01*
G03X21314Y-11868I155J373D01*
G02X0Y-24396I-21314J11868D01*
G01X140Y-19131D02*
G03X6044Y-13227I0J5904D01*
G03X140Y-7323I-5904J0D01*
G03X-5764Y-13227I0J-5904D01*
G03X140Y-19131I5904J0D01*
G01X3296Y4100D02*
G03X3700Y3696I404J0D01*
G01X5700D01*
G03X6104Y4100I0J404D01*
G01Y8600D01*
G03X5700Y9004I-404J0D01*
G01X5354D01*
G03X5163Y9460I-654J-7D01*
G01X4684Y9939D01*
G01Y10193D01*
G03X4631Y10393I-404J0D01*
G03X4684Y10593I-351J200D01*
G01Y11143D01*
G03X4631Y11343I-404J0D01*
G03X4684Y11543I-351J200D01*
G01Y12093D01*
G03X4280Y12497I-404J0D01*
G01X3280D01*
G03X2889Y12198I0J-404D01*
G01X2363Y11671D01*
G01Y12361D01*
G03X1959Y12765I-404J0D01*
G01X581D01*
G03X177Y12361I0J-404D01*
G01Y11229D01*
G03X581Y10825I404J0D01*
G01X1516D01*
G01X1457Y10765D01*
G01X581D01*
G03X177Y10361I0J-404D01*
G01Y9229D01*
G03X581Y8825I404J0D01*
G01X716D01*
G01Y8713D01*
G01X434D01*
G03X30Y8309I0J-404D01*
G01Y6931D01*
G03X434Y6527I404J0D01*
G01X1566D01*
G03X1970Y6931I0J404D01*
G01Y8309D01*
G03X1824Y8620I-404J0D01*
G01Y8825D01*
G01X1959D01*
G03X2363Y9229I0J404D01*
G01Y10104D01*
G01X2876Y10617D01*
G01Y10593D01*
G03X2928Y10393I404J0D01*
G03X2876Y10193I351J-200D01*
G01Y9643D01*
G03X3280Y9239I404J0D01*
G01X3534D01*
G01X3768Y9004D01*
G01X3700D01*
G03X3296Y8600I0J-404D01*
G01Y5871D01*
G01X3159Y5734D01*
G01X2450D01*
G03X2085Y5964I-365J-174D01*
G01X1085D01*
G03X681Y5560I0J-404D01*
G01Y4600D01*
G03X1085Y4196I404J0D01*
G01X2085D01*
G03X2450Y4426I0J404D01*
G01X3296D01*
G01Y4100D01*
G01X-16014Y-16277D02*
G03X-15610Y-16681I404J0D01*
G01X-9910D01*
G03X-9506Y-16277I0J404D01*
G01Y-10177D01*
G03X-9910Y-9773I-404J0D01*
G01X-15610D01*
G03X-16014Y-10177I0J-404D01*
G01Y-16277D01*
G01X18733Y1418D02*
G03X19537Y2223I0J804D01*
G03X18733Y3027I-804J0D01*
G03X18150Y2777I0J-804D01*
G01X15517D01*
G01X15305Y2988D01*
G01Y3864D01*
G03X14901Y4268I-404J0D01*
G01X13769D01*
G03X13365Y3864I0J-404D01*
G01Y2486D01*
G03X13769Y2082I404J0D01*
G01X14644D01*
G01X14896Y1831D01*
G03X15287Y1668I392J392D01*
G01X18150D01*
G03X18733Y1418I583J554D01*
G01X0Y-1654D02*
G03X1654Y0I0J1654D01*
G03X0Y1654I-1654J0D01*
G03X-1654Y0I0J-1654D01*
G03X0Y-1654I1654J0D01*
G01X-19505Y-11131D02*
G01X-19024Y-10938D01*
G01X-19217Y-11131D01*
G01X-19505D01*
G01X-18455Y-10369D02*
G03X-18479Y-10284I-399J-65D01*
G01X-19055Y-8850D01*
G03X-19428Y-8596I-375J-151D01*
G01X-18967Y-8094D01*
G03X-18944Y-8166I396J83D01*
G01X-18405Y-9469D01*
G03X-18031Y-9718I373J155D01*
G03X-17877Y-9688I0J404D01*
G01X-17701Y-9615D01*
G01X-18455Y-10369D01*
G01X-12100Y16793D02*
G01X-12449Y16494D01*
G01X-12795Y16663D01*
G01X-11794Y17518D01*
G03X-11652Y17825I-262J307D01*
G03X-11749Y18088I-404J0D01*
G01X-11772Y18115D01*
G01X-8110Y21777D01*
G03X-7758Y21560I358J187D01*
G03X-7973Y21203I189J-357D01*
G03X-7962Y21109I404J0D01*
G01X-7730Y20139D01*
G03X-7337Y19829I393J94D01*
G03X-7243Y19840I0J404D01*
G01X-5740Y20200D01*
G03X-5705Y20210I-94J393D01*
G01Y19069D01*
G01X-7620D01*
G03X-8083Y18878I0J-654D01*
G01X-9035Y17925D01*
G03X-9215Y17587I463J-463D01*
G03X-9643Y17164I642J-1077D01*
G01X-10939D01*
G03X-11402Y16973I0J-654D01*
G01X-11579Y16796D01*
G03X-11838Y16889I-259J-310D01*
G03X-12100Y16793I0J-404D01*
G54D10*
G01X18443Y-6557D02*
G01X18830Y-5624D01*
G01X18443Y-6557D02*
G01X19348Y-6932D01*
G01X18443Y-6557D02*
G01X17538Y-6182D01*
G01X-21590Y-2400D02*
G01X-21590Y-4105D01*
G01X-21590Y-2400D02*
G01X-21590Y-695D01*
G01X-21590Y-2400D02*
G01X-22995Y-2400D01*
G01X-21590Y-2400D02*
G01X-20185Y-2400D01*
G01X140Y-13227D02*
G01X-5665Y-13227D01*
G01X140Y-13227D02*
G01X5945Y-13227D01*
G01X140Y-13227D02*
G01X140Y-7422D01*
G01X140Y-13227D02*
G01X140Y-19032D01*
G01X8890Y11795D02*
G01X8890Y12805D01*
G01X8890Y11795D02*
G01X7910Y11795D01*
G01X8890Y11795D02*
G01X9870Y11795D01*
G01X-1270Y11795D02*
G01X-1270Y12805D01*
G01X-1270Y11795D02*
G01X-290Y11795D01*
G01X1270Y11795D02*
G01X1270Y10924D01*
G01X1270Y11795D02*
G01X1270Y12666D01*
G01X1270Y11795D02*
G01X276Y11795D01*
G01X1270Y11795D02*
G01X2264Y11795D01*
G01X11935Y15514D02*
G01X11167Y16170D01*
G01X11935Y15514D02*
G01X12572Y16259D01*
G01X11935Y15514D02*
G01X11299Y14769D01*
G01X3516Y21663D02*
G01X2469Y21915D01*
G01X3516Y21663D02*
G01X3328Y20882D01*
G01X20846Y-6862D02*
G01X21259Y-5866D01*
G01X20846Y-6862D02*
G01X20104Y-6554D01*
G01X12968Y17705D02*
G01X12149Y18406D01*
G01X12968Y17705D02*
G01X12445Y17095D01*
G01X-8572Y693D02*
G01X-9228Y693D01*
G01X-8572Y693D02*
G01X-8572Y1998D01*
G01X-8572Y693D02*
G01X-8572Y-613D01*
G01X-19604Y-9903D02*
G01X-19203Y-10903D01*
G01X-19604Y-9903D02*
G01X-18859Y-9604D01*
G01X-13456Y14215D02*
G01X-14224Y13559D01*
G01X-13456Y14215D02*
G01X-14093Y14960D01*
G01X-13456Y14215D02*
G01X-12820Y13470D01*
G01X-10795Y3445D02*
G01X-10795Y2435D01*
G01X-10795Y3445D02*
G01X-11775Y3445D01*
G01X-10795Y3445D02*
G01X-9815Y3445D01*
G01X-20846Y6862D02*
G01X-21259Y5866D01*
G01X-20846Y6862D02*
G01X-20104Y6554D01*
G01X-17678Y-8405D02*
G01X-18583Y-8780D01*
G01X-17678Y-8405D02*
G01X-16772Y-8030D01*
G01X3780Y10868D02*
G01X4585Y10868D01*
G01X-15459Y15578D02*
G01X-16279Y14878D01*
G01X-15459Y15578D02*
G01X-14937Y14966D01*
G01X-6702Y20898D02*
G01X-7750Y20647D01*
G01X-6702Y20898D02*
G01X-6515Y20117D01*
G01X19592Y9888D02*
G01X19181Y10884D01*
G01X19592Y9888D02*
G01X18850Y9581D01*
G01X-8572Y11430D02*
G01X-9728Y11430D01*
G01X-8572Y11430D02*
G01X-8572Y10275D01*
G04 Copper End*

G04 Pad Start*
G54D11*
G01X0Y0D03*
G54D12*
G01X8890Y9795D03*
G01X8890Y11795D03*
G01X-1270Y9795D03*
G01X-1270Y11795D03*
G54D13*
G01X8000Y6350D03*
G01X4700Y6350D03*
G54D14*
G01X-1000Y7620D03*
G01X1000Y7620D03*
G54D16*
G01X1270Y9795D03*
G01X1270Y11795D03*
G54D17*
G01X3780Y11818D03*
G01X3780Y10868D03*
G01X3780Y9918D03*
G01X6580Y9918D03*
G01X6580Y10868D03*
G01X6580Y11818D03*
G54D18*
G01X-1585Y5080D03*
G01X1585Y5080D03*
G54D12*
G01X-10795Y3445D03*
G01X-10795Y5445D03*
G54D19*
G01X-17678Y-8405D03*
G01X-18443Y-6557D03*
G54D20*
G01X18443Y-6557D03*
G01X17678Y-8405D03*
G54D21*
G01X-13456Y14215D03*
G01X-11935Y15514D03*
G54D22*
G01X11935Y15514D03*
G01X13456Y14215D03*
G54D23*
G01X14017Y950D03*
G01X14017Y-950D03*
G01X12018Y0D03*
G54D24*
G01X9843Y1000D03*
G01X9843Y-1000D03*
G54D25*
G01X14335Y3175D03*
G01X12335Y3175D03*
G54D26*
G01X-8572Y16510D03*
G54D27*
G01X-6032Y16510D03*
G54D26*
G01X-6032Y13970D03*
G01X-6032Y11430D03*
G01X-8572Y11430D03*
G01X-8572Y13970D03*
G54D28*
G01X-12760Y-13227D03*
G01X13040Y-13227D03*
G54D29*
G01X140Y-13227D03*
G54D30*
G01X-21590Y-2400D03*
G01X-21590Y2400D03*
G54D31*
G01X21590Y2400D03*
G01X21590Y-2400D03*
G54D32*
G01X-22477Y-7527D03*
G01X-20825Y-6864D03*
G01X-19604Y-9903D03*
G01X-21256Y-10567D03*
G54D33*
G01X-21235Y10569D03*
G01X-19591Y9887D03*
G01X-20846Y6862D03*
G01X-22490Y7544D03*
G54D34*
G01X-14122Y19057D03*
G01X-12967Y17703D03*
G01X-15459Y15578D03*
G01X-16614Y16932D03*
G54D35*
G01X-3931Y23392D03*
G01X-3517Y21661D03*
G01X-6702Y20898D03*
G01X-7116Y22629D03*
G54D36*
G01X7117Y22627D03*
G01X6700Y20896D03*
G01X3516Y21663D03*
G01X3933Y23393D03*
G54D37*
G01X16614Y16930D03*
G01X15457Y15577D03*
G01X12968Y17705D03*
G01X14124Y19058D03*
G54D38*
G01X22489Y7542D03*
G01X20844Y6862D03*
G01X19592Y9888D03*
G01X21237Y10569D03*
G54D39*
G01X21235Y-10569D03*
G01X19591Y-9887D03*
G01X20846Y-6862D03*
G01X22490Y-7544D03*
G54D40*
G01X-4762Y693D03*
G01X-6032Y693D03*
G01X-7302Y693D03*
G01X-8572Y693D03*
G01X-4762Y6292D03*
G01X-6032Y6292D03*
G01X-7302Y6292D03*
G01X-8572Y6292D03*
G04 Pad End*

G04 Via Start*
G54D41*
G01X-1270Y21590D03*
G01X0Y20320D03*
G01X-15240Y13335D03*
G01X16510Y13970D03*
G01X18098Y9208D03*
G01X20003Y8255D03*
G01X19685Y-5080D03*
G01X-20955Y-5080D03*
G01X-20002Y-3492D03*
G01X-19367Y6033D03*
G01X-20002Y8255D03*
G01X-6350Y19368D03*
G01X5080Y20955D03*
G01X18415Y-11430D03*
G54D42*
G01X-4762Y-952D03*
G01X-6032Y10160D03*
G54D41*
G01X-20320Y0D03*
G54D42*
G01X18733Y2223D03*
G01X-14605Y-8890D03*
G04 Via End*

G04 Track Start*
G54D43*
G01X9843Y-1000D02*
G01X9893Y-950D01*
G01X14017D01*
G54D10*
G01X12335Y3175D02*
G01X10795Y3175D01*
G01X9843Y2223D02*
G01X9843Y1000D01*
G01X10795Y3175D02*
G01X9843Y2223D01*
G01X14017Y950D02*
G01X13147Y950D01*
G01X12335Y1762D01*
G01Y3175D01*
G54D43*
G01X12018Y0D02*
G01X10795Y0D01*
G54D44*
G01X8890Y0D02*
G01X10795Y0D01*
G54D43*
G01X7985Y12700D02*
G01X8890Y11795D01*
G01X8620Y9795D02*
G01X8890Y9795D01*
G01X6580Y10868D02*
G01X7547Y10868D01*
G01X8620Y9795D01*
G01X8890Y9795D02*
G01X8000Y8905D01*
G01Y6350D01*
G01Y890D01*
G01X8890Y0D01*
G01X3780Y10868D02*
G01X4518Y10868D01*
G01X5080Y11430D01*
G01Y12673D01*
G01X5107Y12700D01*
G01X7985Y12700D02*
G01X5107Y12700D01*
G01X3780Y9918D02*
G01X4700Y8997D01*
G01Y6350D01*
G01X1905Y6350D02*
G01X2540Y6985D01*
G01Y10160D01*
G01X3248Y10868D02*
G01X3780Y10868D01*
G01X2540Y10160D02*
G01X3248Y10868D01*
G01X0Y6350D02*
G01X1905Y6350D01*
G01X-1585Y5080D02*
G01X-1000Y5665D01*
G01Y7620D01*
G01X-1270Y9795D02*
G01X-1000Y9525D01*
G01Y7620D01*
G54D10*
G01X1270Y9795D02*
G01X3293Y11818D01*
G01X3780D01*
G54D43*
G01X1270Y11795D02*
G01X2175Y12700D01*
G01X5107D01*
G01X-1270Y11795D02*
G01X1270Y11795D01*
G01X-1270Y9795D02*
G01X-2246Y9795D01*
G01X-2540Y10089D01*
G01Y16891D01*
G54D10*
G01X1000Y7620D02*
G01X1270Y7890D01*
G01Y9795D01*
G54D43*
G01X1585Y5080D02*
G01X3430Y5080D01*
G01X4700Y6350D01*
G01X6580Y11818D02*
G01X6580Y10868D01*
G54D45*
G01X13040Y-13227D02*
G01X13040Y-7008D01*
G01X9843Y-3810D01*
G01Y-1000D01*
G54D43*
G01X21590Y-2400D02*
G01X20498Y-2400D01*
G01X19047Y-950D01*
G01X14017D01*
G01X21590Y2400D02*
G01X21450Y2400D01*
G01X19050Y0D01*
G01X12018D01*
G01X-19604Y-9903D02*
G01X-19176Y-9903D01*
G01X-17678Y-8405D01*
G01X-18443Y-6557D02*
G01X-20002Y-8255D01*
G01X-21272Y-8890D01*
G01X-21907Y-8572D01*
G01X-22477Y-7527D01*
G01X-11935Y15514D02*
G01X-13970Y16510D01*
G01X-14922Y17463D01*
G01Y18098D01*
G01X-14122Y19057D01*
G01X13456Y14215D02*
G01X13970Y16510D01*
G01X14923Y17463D01*
G01X15875D01*
G01X16614Y16930D01*
G01X17678Y-8405D02*
G01X20003Y-8255D01*
G01X21273Y-8890D01*
G01X21590Y-9525D01*
G01X21235Y-10569D01*
G54D10*
G01X-20825Y-6864D02*
G01X-24130Y-4127D01*
G01Y4128D01*
G01X-22490Y7544D01*
G01X-19591Y9887D02*
G01X-17747Y11731D01*
G01Y15830D01*
G01X-16645Y16932D01*
G01X-16614D01*
G01X-12967Y17703D02*
G01X-8041Y22629D01*
G01X-7116D01*
G01X6700Y20896D02*
G01X12286Y20896D01*
G01X14124Y19058D01*
G01X20844Y6862D02*
G01X24130Y3576D01*
G01X24130Y-3492D02*
G01X22490Y-7544D01*
G01X24130Y3576D02*
G01X24130Y-3492D01*
G54D43*
G01X2858Y1270D02*
G01X0Y4128D01*
G01Y6350D01*
G01X-2540Y16891D02*
G01X-4064Y18415D01*
G54D10*
G01X-3517Y21661D02*
G01X-1365Y23813D01*
G01X3514D01*
G01X3933Y23393D01*
G54D43*
G01X-2540Y16891D02*
G01X-1270Y18161D01*
G01Y21590D01*
G01X-1270Y11795D02*
G01X-1270Y16510D01*
G01X0Y17780D01*
G01Y20320D01*
G01X-10939Y16510D02*
G01X-11935Y15514D01*
G01X-13456Y14215D02*
G01X-14336Y13335D01*
G01X-15240D01*
G01X-15459Y15578D02*
G01X-14819Y15578D01*
G01X-13456Y14215D01*
G01X20846Y-6862D02*
G01X18748Y-6862D01*
G01X18443Y-6557D01*
G01X12968Y17705D02*
G01X11935Y16673D01*
G01Y15514D01*
G01X8890Y12469D01*
G01Y11795D01*
G01X13456Y14215D02*
G01X14336Y13335D01*
G01X15875Y13335D02*
G01X16510Y13970D01*
G01X14336Y13335D02*
G01X15875Y13335D01*
G54D10*
G01X15457Y15577D02*
G01X15794Y15240D01*
G01X17145D01*
G01X21237Y11148D01*
G01Y10569D01*
G54D43*
G01X19592Y9888D02*
G01X18911Y9208D01*
G01X18098D01*
G01X22489Y7542D02*
G01X21776Y8255D01*
G01X20003D01*
G01X18443Y-6557D02*
G01X19685Y-5315D01*
G01Y-5080D01*
G54D10*
G01X-21256Y-10567D02*
G01X-21256Y-10719D01*
G01X-20290Y-11685D01*
G01X-7302Y-3810D02*
G01X-6032Y-2540D01*
G01Y-38D01*
G54D43*
G01X-18443Y-6557D02*
G01X-19920Y-5080D01*
G01X-20955D01*
G01X-21590Y-2400D02*
G01X-21095Y-2400D01*
G01X-20002Y-3492D01*
G01X-20846Y6862D02*
G01X-20197Y6862D01*
G01X-19367Y6033D01*
G01X-21235Y10569D02*
G01X-21235Y9170D01*
G01X-20320Y8255D02*
G01X-20002Y8255D01*
G01X-21235Y9170D02*
G01X-20320Y8255D01*
G01X-6702Y20898D02*
G01X-6350Y20546D01*
G01Y19368D01*
G01X-3931Y23392D02*
G01X-5051Y22272D01*
G01Y18415D01*
G01X-4064Y18415D02*
G01X-5051Y18415D01*
G01X3516Y21663D02*
G01X2173Y20320D01*
G01X0D01*
G01X7117Y22627D02*
G01X5938Y22627D01*
G01X5080Y21769D01*
G01Y20955D01*
G01X17678Y-8405D02*
G01X17678Y-10693D01*
G01X18415Y-11430D01*
G01X-10795Y3445D02*
G01X-10113Y3445D01*
G01X-8572Y1905D01*
G01Y-38D01*
G01X-10795Y5445D02*
G01X-9890Y5445D01*
G01X-9207Y4763D01*
G01X-5397D01*
G01X-4762Y5398D01*
G01X-21590Y2400D02*
G01X-17285Y2400D01*
G01X-12700Y6985D01*
G01X-2246Y9795D02*
G01X-2540Y9501D01*
G01Y10089D01*
G54D10*
G01X-4762Y-952D02*
G01X-4762Y-38D01*
G54D43*
G01X-10795Y3445D02*
G01X-14652Y3445D01*
G01X-18097Y0D02*
G01X-20320Y0D01*
G01X-14652Y3445D02*
G01X-18097Y0D01*
G01X-5051Y18415D02*
G01X-7620Y18415D01*
G01X-8572Y17463D01*
G01Y16510D01*
G01X-10939Y16510D02*
G01X-8572Y16510D01*
G54D10*
G01X-6032Y10160D02*
G01X-6032Y11430D01*
G01X-8572Y7023D02*
G01X-8572Y9208D01*
G01X-7302Y10478D01*
G01X-7302Y7023D02*
G01X-7302Y8255D01*
G01X-4445Y10160D02*
G01X-4445Y11748D01*
G01X-5397Y12700D01*
G01X-6667D01*
G01X-8572Y13970D02*
G01X-8572Y13335D01*
G01X-7302Y12065D01*
G01Y10478D01*
G01X-6667Y12700D02*
G01X-7302Y13335D01*
G01Y15240D01*
G01X-6032Y16510D01*
G01X-5715Y13970D02*
G01X-6032Y13970D01*
G01X-3810Y9843D02*
G01X-3810Y12065D01*
G01X-5715Y13970D01*
G01X-7302Y8255D02*
G01X-6350Y9208D01*
G01X-5397D01*
G01X-4445Y10160D01*
G01X-6032Y7023D02*
G01X-6032Y8255D01*
G01X-5715Y8573D01*
G01X-5080Y8573D02*
G01X-3810Y9843D01*
G01X-5715Y8573D02*
G01X-5080Y8573D01*
G54D43*
G01X-8572Y11430D02*
G01X-10671Y11430D01*
G01X-13456Y14215D01*
G01X-17678Y-8405D02*
G01X-17678Y-8388D01*
G01X-16468Y-7179D01*
G01Y-5757D01*
G01X-18732Y-3492D01*
G01X-20002D01*
G54D10*
G01X-20290Y-11685D02*
G01X-18988Y-11685D01*
G01X-11112Y-3810D01*
G01X-7302D01*
G01X-10795Y-4445D02*
G01X-6667Y-4445D01*
G01X-14605Y-8255D02*
G01X-10795Y-4445D01*
G01X14335Y3175D02*
G01X15287Y2223D01*
G01X18733D01*
G01X-14605Y-8890D02*
G01X-14605Y-8255D01*
G54D43*
G01X140Y-13227D02*
G01X140Y-3987D01*
G01X2858Y-1270D01*
G01Y1270D01*
G01X-4762Y5398D02*
G01X-4762Y7303D01*
G01X-2564Y9501D01*
G01X-2540D01*
G54D10*
G01X-4127Y2223D02*
G01X-6667Y2223D01*
G01X-7302Y1588D01*
G01Y-38D01*
G01X-6667Y-4445D02*
G01X-3810Y-1587D01*
G01Y1905D01*
G01X-4127Y2223D01*
G54D43*
G01X-8572Y7023D02*
G01X-8610Y6985D01*
G01X-12700Y6985D02*
G01X-9842Y6985D01*
G01X-9150Y6292D02*
G01X-8572Y6292D01*
G01X-9842Y6985D02*
G01X-9150Y6292D01*
G04 Track End*

M02*
