G04 Layer: BottomSolderMaskLayer*
G04 EasyEDA Pro v1.9.29.eba1c1, 2023-07-30 16:19:25*
G04 Gerber Generator version 0.3*
G04 Scale: 100 percent, Rotated: No, Reflected: No*
G04 Dimensions in millimeters*
G04 Leading zeros omitted, absolute positions, 3 integers and 3 decimals*
%FSLAX33Y33*%
%MOMM*%
%AMRect*21,1,$1,$2,0,0,$3*%
%ADD10C,2.601595*%
%ADD11R,1.45161X1.511605*%
%ADD12R,2.101596X4.601591*%
%ADD13R,1.234135X1.47861*%
%ADD14R,1.47861X1.234135*%
%ADD15R,1.101598X0.651612*%
%ADD16R,1.101598X1.061593*%
%ADD17Rect,1.511605X1.45161X112.5*%
%ADD18Rect,1.511605X1.45161X-112.5*%
%ADD19Rect,1.511605X1.45161X40.5*%
%ADD20Rect,1.511605X1.45161X-40.5*%
%ADD21R,1.35161X0.801599*%
%ADD22R,1.47861X1.234135*%
%ADD23R,1.234135X1.47861*%
%ADD24C,1.903199*%
%ADD25R,1.903199X1.903199*%
%ADD26R,5.800014X6.200013*%
%ADD27C,11.100029*%
%ADD28R,2.301596X2.901594*%
%ADD29R,2.301596X2.901594*%
%ADD30Rect,1.646606X1.098601X291.88*%
%ADD31Rect,1.646606X1.098601X247.47*%
%ADD32Rect,1.646606X1.098601X220.47*%
%ADD33Rect,1.646606X1.098601X193.47*%
%ADD34Rect,1.646606X1.098601X166.47*%
%ADD35Rect,1.646606X1.098601X139.47*%
%ADD36Rect,1.646606X1.098601X112.47*%
%ADD37Rect,1.646606X1.098601X67.47*%
%ADD38O,0.801599X2.101596*%
G75*


G04 Pad Start*
G54D10*
G01X0Y0D03*
G54D11*
G01X8890Y9795D03*
G01X8890Y11795D03*
G01X-1270Y9795D03*
G01X-1270Y11795D03*
G54D12*
G01X8000Y6350D03*
G01X4700Y6350D03*
G54D13*
G01X-1000Y7620D03*
G01X1000Y7620D03*
G54D14*
G01X1270Y9795D03*
G01X1270Y11795D03*
G54D15*
G01X3780Y11818D03*
G01X3780Y10868D03*
G01X3780Y9918D03*
G01X6580Y9918D03*
G01X6580Y10868D03*
G01X6580Y11818D03*
G54D16*
G01X-1585Y5080D03*
G01X1585Y5080D03*
G54D11*
G01X-10795Y3445D03*
G01X-10795Y5445D03*
G54D17*
G01X-17678Y-8405D03*
G01X-18443Y-6557D03*
G54D18*
G01X18443Y-6557D03*
G01X17678Y-8405D03*
G54D19*
G01X-13456Y14215D03*
G01X-11935Y15514D03*
G54D20*
G01X11935Y15514D03*
G01X13456Y14215D03*
G54D21*
G01X14017Y950D03*
G01X14017Y-950D03*
G01X12018Y0D03*
G54D22*
G01X9843Y1000D03*
G01X9843Y-1000D03*
G54D23*
G01X14335Y3175D03*
G01X12335Y3175D03*
G54D24*
G01X-8572Y16510D03*
G54D25*
G01X-6032Y16510D03*
G54D24*
G01X-6032Y13970D03*
G01X-6032Y11430D03*
G01X-8572Y11430D03*
G01X-8572Y13970D03*
G54D26*
G01X-12760Y-13227D03*
G01X13040Y-13227D03*
G54D27*
G01X140Y-13227D03*
G54D28*
G01X-21590Y-2400D03*
G01X-21590Y2400D03*
G54D29*
G01X21590Y2400D03*
G01X21590Y-2400D03*
G54D30*
G01X-22477Y-7527D03*
G01X-20825Y-6864D03*
G01X-19604Y-9903D03*
G01X-21256Y-10567D03*
G54D31*
G01X-21235Y10569D03*
G01X-19591Y9887D03*
G01X-20846Y6862D03*
G01X-22490Y7544D03*
G54D32*
G01X-14122Y19057D03*
G01X-12967Y17703D03*
G01X-15459Y15578D03*
G01X-16614Y16932D03*
G54D33*
G01X-3931Y23392D03*
G01X-3517Y21661D03*
G01X-6702Y20898D03*
G01X-7116Y22629D03*
G54D34*
G01X7117Y22627D03*
G01X6700Y20896D03*
G01X3516Y21663D03*
G01X3933Y23393D03*
G54D35*
G01X16614Y16930D03*
G01X15457Y15577D03*
G01X12968Y17705D03*
G01X14124Y19058D03*
G54D36*
G01X22489Y7542D03*
G01X20844Y6862D03*
G01X19592Y9888D03*
G01X21237Y10569D03*
G54D37*
G01X21235Y-10569D03*
G01X19591Y-9887D03*
G01X20846Y-6862D03*
G01X22490Y-7544D03*
G54D38*
G01X-4762Y693D03*
G01X-6032Y693D03*
G01X-7302Y693D03*
G01X-8572Y693D03*
G01X-4762Y6292D03*
G01X-6032Y6292D03*
G01X-7302Y6292D03*
G01X-8572Y6292D03*
G04 Pad End*

M02*
